<svg width="110" height="34" fill="none" xmlns="http://www.w3.org/2000/svg"><ellipse cx="3.745" cy="28.174" rx="3.745" ry="3.842" fill="#F8D24E"/><ellipse cx="11.857" cy="23.052" rx="3.745" ry="3.842" fill="#F8D24E"/><ellipse cx="21.219" cy="17.289" rx="3.745" ry="3.842" fill="#F8D24E"/><ellipse cx="29.956" cy="12.167" rx="3.745" ry="3.842" fill="#F8D24E"/><ellipse cx="51.176" cy="30.095" rx="3.745" ry="3.842" fill="#F8D24E"/><ellipse cx="59.288" cy="24.972" rx="3.745" ry="3.842" fill="#F8D24E"/><ellipse cx="68.65" cy="19.21" rx="3.745" ry="3.842" fill="#F8D24E"/><ellipse cx="77.386" cy="14.087" rx="3.745" ry="3.842" fill="#F8D24E"/><ellipse cx="70.522" cy="27.533" rx="3.745" ry="3.842" fill="#F8D24E"/><ellipse cx="78.635" cy="22.411" rx="3.745" ry="3.842" fill="#F8D24E"/><ellipse cx="87.996" cy="16.648" rx="3.745" ry="3.842" fill="#F8D24E"/><ellipse cx="96.733" cy="11.525" rx="3.745" ry="3.842" fill="#F8D24E"/><ellipse cx="106.095" cy="3.842" rx="3.745" ry="3.842" fill="#F8D24E"/><ellipse cx="86.123" cy="8.324" rx="3.745" ry="3.842" fill="#F8D24E"/><ellipse cx="33.701" cy="29.455" rx="3.745" ry="3.842" fill="#F8D24E"/><ellipse cx="41.814" cy="24.332" rx="3.745" ry="3.842" fill="#F8D24E"/><ellipse cx="51.176" cy="18.569" rx="3.745" ry="3.842" fill="#F8D24E"/><ellipse cx="59.911" cy="13.447" rx="3.745" ry="3.842" fill="#F8D24E"/><ellipse cx="18.099" cy="28.814" rx="3.745" ry="3.842" fill="#F8D24E"/><ellipse cx="26.212" cy="23.692" rx="3.745" ry="3.842" fill="#F8D24E"/><ellipse cx="35.573" cy="17.929" rx="3.745" ry="3.842" fill="#F8D24E"/><ellipse cx="44.309" cy="12.806" rx="3.745" ry="3.842" fill="#F8D24E"/></svg>