<svg width="170" height="219" fill="none" xmlns="http://www.w3.org/2000/svg"><g clip-path="url('#clip0_4660_119')"><path d="M100.077 56.008c2.882 1.688 7.421-.818 10.139-5.598 2.717-4.78 2.584-10.023-.297-11.712-2.882-1.689-7.421.817-10.139 5.597-2.717 4.78-2.584 10.024.297 11.712Z" fill="#FCFCFC"/><path d="M109.699 39.084c2.621 1.537 2.684 6.62.136 11.102-2.549 4.482-6.915 6.97-9.537 5.433-2.621-1.536-2.684-6.619-.135-11.101 2.548-4.483 6.917-6.968 9.536-5.434Zm.441-.775c-3.093-1.812-7.902.768-10.74 5.762-2.84 4.994-2.635 10.511.458 12.323 3.092 1.813 7.901-.767 10.74-5.76 2.839-4.995 2.637-10.51-.458-12.325Z" fill="#131313"/><path d="M117.633 66.3c2.882 1.688 7.421-.818 10.138-5.598 2.718-4.78 2.585-10.024-.296-11.712-2.882-1.69-7.421.817-10.139 5.597-2.718 4.78-2.585 10.023.297 11.712Z" fill="#FCFCFC"/><path d="M127.254 49.377c2.621 1.536 2.684 6.619.135 11.101-2.548 4.482-6.914 6.97-9.536 5.434-2.622-1.537-2.684-6.62-.136-11.102 2.549-4.482 6.918-6.968 9.537-5.433Zm.44-.775c-3.092-1.813-7.901.767-10.74 5.76-2.839 4.995-2.634 10.512.458 12.324 3.093 1.813 7.902-.767 10.741-5.76 2.839-4.995 2.636-10.51-.459-12.324ZM102.57 51.615c1.617.947 4.144-.425 5.645-3.064 1.5-2.64 1.407-5.548-.21-6.495-1.616-.947-4.143.424-5.644 3.064-1.501 2.64-1.407 5.548.209 6.495Z" fill="#131313"/><path d="M107.933 42.185c1.545.905 1.614 3.726.155 6.291-1.458 2.566-3.898 3.915-5.443 3.01-1.545-.906-1.615-3.726-.156-6.291 1.459-2.566 3.901-3.914 5.444-3.01Zm.147-.258c-1.688-.99-4.305.408-5.846 3.118-1.54 2.71-1.424 5.71.264 6.699 1.687.989 4.304-.409 5.845-3.119 1.541-2.71 1.424-5.71-.263-6.698ZM120.132 61.908c1.616.947 4.143-.425 5.644-3.065 1.501-2.64 1.407-5.547-.209-6.494-1.617-.948-4.144.424-5.645 3.064-1.501 2.64-1.407 5.547.21 6.495Z" fill="#131313"/><path d="M125.493 52.478c1.545.905 1.615 3.726.156 6.291-1.459 2.566-3.899 3.915-5.444 3.01-1.545-.906-1.614-3.726-.155-6.292 1.458-2.565 3.901-3.913 5.443-3.009Zm.147-.258c-1.687-.99-4.304.408-5.845 3.118-1.541 2.71-1.424 5.71.263 6.699 1.688.989 4.305-.409 5.845-3.119 1.541-2.71 1.425-5.71-.263-6.698Z" fill="#131313"/><path d="M106.032 47.96c.973.57 2.353-.008 3.083-1.292.731-1.284.534-2.788-.439-3.358-.972-.57-2.353.01-3.083 1.293-.73 1.285-.533 2.788.439 3.358ZM123.591 58.253c.973.57 2.353-.01 3.083-1.293.73-1.284.534-2.788-.439-3.358-.973-.57-2.353.01-3.083 1.293-.73 1.285-.534 2.788.439 3.358Z" fill="#FCFCFC"/><path d="M107.477 31.96c3.239.235 6.183 1.967 8.009 4.693.636.947 2.171.067 1.532-.886-2.204-3.291-5.638-5.314-9.552-5.597-1.129-.083-1.116 1.708.011 1.79ZM125.798 42.7c3.239.235 6.183 1.967 8.01 4.692.635.948 2.17.068 1.531-.885-2.204-3.291-5.638-5.314-9.551-5.597-1.13-.083-1.117 1.707.01 1.79Z" fill="#131313"/><path d="M102.442 72.725C89.301 65.022 82.332 52.3 86.876 44.31M134.464 72.203c-4.544 7.991-18.88 8.224-32.021.521M83.71 43.315l6.628 1.473M132.647 70.622l3.778 2.904" stroke="#131313" stroke-width="1.61" stroke-miterlimit="10"/></g><g clip-path="url('#clip1_4660_119')"><path d="M107.638 127.7c2.841 2.024 7.784-.155 11.041-4.867 3.258-4.712 3.595-10.173.755-12.197-2.841-2.024-7.784.155-11.042 4.867-3.257 4.713-3.595 10.174-.754 12.197Z" fill="#FCFCFC"/><path d="M119.167 111.018c2.584 1.841 2.188 7.128-.867 11.547-3.054 4.419-7.816 6.595-10.401 4.754-2.584-1.842-2.188-7.128.867-11.547 3.054-4.419 7.819-6.593 10.401-4.754Zm.528-.764c-3.049-2.172-8.279.058-11.682 4.982-3.403 4.923-3.69 10.675-.642 12.847 3.049 2.172 8.279-.059 11.682-4.982 3.403-4.923 3.693-10.673.642-12.847Z" fill="#131313"/><path d="M124.948 140.035c2.84 2.024 7.784-.155 11.041-4.867 3.257-4.713 3.595-10.173.754-12.197-2.841-2.024-7.784.155-11.041 4.867-3.257 4.712-3.595 10.173-.754 12.197Z" fill="#FCFCFC"/><path d="M136.478 123.352c2.584 1.841 2.188 7.128-.866 11.547-3.055 4.419-7.817 6.595-10.401 4.754-2.584-1.842-2.188-7.128.866-11.547 3.055-4.419 7.819-6.593 10.401-4.754Zm.528-.764c-3.048-2.172-8.278.058-11.681 4.982-3.404 4.923-3.691 10.675-.642 12.847 3.048 2.172 8.278-.059 11.681-4.982 3.403-4.923 3.693-10.673.642-12.847ZM113.395 121.539c1.594 1.136 4.344-.053 6.142-2.656 1.799-2.602 1.965-5.632.372-6.767-1.594-1.136-4.344.053-6.143 2.656-1.798 2.602-1.965 5.632-.371 6.767Z" fill="#131313"/><path d="M119.821 112.243c1.523 1.085 1.339 4.021-.409 6.551-1.748 2.529-4.406 3.703-5.929 2.618-1.523-1.085-1.339-4.022.409-6.551s4.409-3.702 5.929-2.618Zm.176-.255c-1.663-1.185-4.509.022-6.356 2.694-1.847 2.672-1.997 5.799-.334 6.984 1.664 1.186 4.509-.022 6.356-2.694 1.847-2.671 1.998-5.799.334-6.984ZM130.955 134.052c1.593 1.136 4.343-.054 6.142-2.656 1.799-2.602 1.965-5.632.371-6.767-1.593-1.136-4.343.053-6.142 2.656-1.799 2.602-1.965 5.632-.371 6.767Z" fill="#131313"/><path d="M137.382 124.756c1.523 1.085 1.339 4.022-.409 6.551-1.749 2.529-4.406 3.703-5.929 2.618-1.523-1.085-1.339-4.022.409-6.551s4.408-3.701 5.929-2.618Zm.176-.255c-1.664-1.185-4.509.022-6.356 2.694-1.847 2.672-1.998 5.799-.334 6.985 1.663 1.185 4.509-.023 6.356-2.694 1.846-2.672 1.997-5.8.334-6.985Z" fill="#131313"/><path d="M112.538 120.359c.746.531 1.902.164 2.583-.821.68-.985.628-2.214-.118-2.745-.745-.531-1.901-.163-2.582.821-.681.985-.628 2.214.117 2.745ZM130.174 133.306c.746.531 1.902.164 2.582-.821.681-.985.628-2.214-.117-2.745-.746-.531-1.902-.163-2.582.821-.681.985-.628 2.214.117 2.745Z" fill="#FCFCFC"/><path d="M116.908 103.398c3.509.129 6.633 1.83 8.704 4.704.7.97 2.116-.222 1.421-1.188-2.344-3.251-6.005-5.229-9.971-5.375-1.18-.042-1.342 1.818-.154 1.859ZM137.315 116.039c3.309 1.209 5.756 3.812 6.868 7.181.377 1.139 2.045.351 1.672-.777a13.025 13.025 0 0 0-7.923-8.165c-1.113-.405-1.735 1.352-.617 1.761Z" fill="#131313"/><path d="M107.902 145.189c-12.954-9.232-19.041-23.1-13.595-30.978" stroke="#131313" stroke-width="1.61" stroke-miterlimit="10"/><path d="M141.218 147.64c-5.446 7.877-20.362 6.779-33.317-2.452M91.106 112.881l6.752 2.15M139.474 145.828l3.661 3.369" stroke="#131313" stroke-width="1.61" stroke-miterlimit="10"/><path d="M114.203 105.023a5.57 5.57 0 0 0-.17 5.57M115.207 105.915a6.32 6.32 0 0 0-.379 2.201 6.45 6.45 0 0 0 .3 1.992M116.766 107.166a3.038 3.038 0 0 0-.405 1.517c-.001.662.21 1.154.323 1.375M143.96 125.846a5.478 5.478 0 0 1-2.424 1.789 5.327 5.327 0 0 1-2.678.266M142.797 125.194c-.246.216-.89.734-1.909 1.11a6.212 6.212 0 0 1-1.948.391M141.106 124.131a2.957 2.957 0 0 1-2.651 1.061" stroke="#131313" stroke-width="1.074" stroke-miterlimit="10"/><path d="M108.304 146.206c1.123-.913.833-3.175-.648-5.053-1.482-1.878-3.593-2.661-4.716-1.748-1.123.914-.833 3.176.649 5.054 1.481 1.878 3.592 2.661 4.715 1.747Z" fill="#131313" stroke="#131313" stroke-width="1.61" stroke-miterlimit="10"/><path d="M107.084 147.456c2.286 1.629 4.336 2.664 4.58 2.313.243-.352-1.413-1.958-3.7-3.587-2.286-1.629-4.336-2.664-4.579-2.313-.243.352 1.413 1.958 3.699 3.587Z" fill="#131313" stroke="#131313" stroke-width="1.61" stroke-miterlimit="10"/><path d="M110.817 149.677c2.158.995 4.389.724 4.984-.606.595-1.33-.672-3.215-2.829-4.21-2.158-.995-4.389-.724-4.984.606-.595 1.33.671 3.215 2.829 4.21Z" fill="#131313" stroke="#131313" stroke-width="1.61" stroke-miterlimit="10"/></g><g clip-path="url('#clip2_4660_119')"><path d="M49.352 100.181c2.687-.916 3.67-5.27 2.195-9.727C50.073 86 46.7 83.13 44.013 84.046c-2.686.916-3.668 5.27-2.194 9.726 1.474 4.456 4.847 7.325 7.533 6.409Z" fill="#FCFCFC"/><path d="M44.132 84.406c2.443-.833 5.675 1.99 7.058 6.169 1.383 4.178.487 8.41-1.957 9.244-2.444.834-5.675-1.99-7.058-6.168s-.485-8.412 1.957-9.245Zm-.24-.722c-2.882.984-3.97 5.555-2.43 10.21 1.542 4.655 5.128 7.631 8.01 6.648 2.883-.984 3.97-5.555 2.43-10.21-1.54-4.655-5.124-7.632-8.01-6.648Z" fill="#131313"/><path d="M65.72 94.597c2.687-.916 3.67-5.27 2.195-9.727-1.474-4.455-4.847-7.325-7.534-6.409-2.686.917-3.668 5.272-2.194 9.727 1.474 4.456 4.847 7.325 7.534 6.41Z" fill="#FCFCFC"/><path d="M60.5 78.822c2.444-.834 5.675 1.99 7.058 6.168 1.383 4.179.487 8.411-1.957 9.245-2.444.833-5.675-1.99-7.058-6.169-1.383-4.178-.485-8.411 1.957-9.244Zm-.24-.722c-2.882.983-3.97 5.554-2.43 10.21 1.542 4.654 5.128 7.63 8.01 6.647 2.883-.983 3.971-5.554 2.43-10.21-1.54-4.654-5.124-7.632-8.01-6.647ZM47.994 96.088c1.507-.514 2.069-2.926 1.255-5.386-.815-2.46-2.696-4.039-4.203-3.525-1.507.514-2.069 2.925-1.255 5.386.815 2.46 2.696 4.039 4.203 3.525Z" fill="#131313"/><path d="M45.085 87.297c1.44-.492 3.253 1.053 4.045 3.444.791 2.391.265 4.734-1.175 5.225-1.44.492-3.253-1.053-4.045-3.444-.792-2.392-.263-4.735 1.175-5.225Zm-.08-.241c-1.573.536-2.169 3.02-1.332 5.547.836 2.526 2.788 4.14 4.361 3.604 1.573-.537 2.169-3.02 1.333-5.547-.836-2.526-2.789-4.14-4.362-3.604ZM64.367 90.503c1.507-.514 2.069-2.925 1.255-5.386-.814-2.46-2.696-4.039-4.203-3.525-1.507.514-2.069 2.925-1.254 5.386.814 2.46 2.695 4.039 4.202 3.525Z" fill="#131313"/><path d="M61.458 81.712c1.44-.492 3.253 1.053 4.045 3.444.791 2.392.265 4.734-1.175 5.225-1.44.492-3.254-1.053-4.045-3.444-.791-2.391-.263-4.735 1.175-5.225Zm-.08-.241c-1.573.537-2.168 3.02-1.332 5.547.836 2.526 2.788 4.141 4.361 3.604 1.573-.536 2.17-3.02 1.333-5.547-.836-2.526-2.789-4.14-4.362-3.604Z" fill="#131313"/><path d="M45.436 92.27c.907-.309 1.32-1.53.924-2.727-.396-1.197-1.452-1.917-2.359-1.607-.907.31-1.32 1.53-.924 2.727.396 1.197 1.452 1.917 2.359 1.608ZM61.64 86.204c.907-.309 1.32-1.53.924-2.727-.396-1.197-1.452-1.917-2.359-1.607-.907.309-1.32 1.53-.924 2.727.396 1.197 1.452 1.917 2.359 1.607Z" fill="#FCFCFC"/><path d="M39.614 81.153c.4-1.463 1.111-2.968 2.56-3.604 1.348-.591 2.86-.22 4.156.338.887.383 1.56-.98.667-1.365-1.725-.745-3.704-1.158-5.485-.347-1.874.854-2.844 2.75-3.368 4.668-.26.948 1.211 1.25 1.47.31ZM56.883 73.754c3.764.428 7.64-.096 11.147-1.563.889-.37.417-1.82-.478-1.445-3.254 1.36-6.86 1.914-10.363 1.515-.955-.11-1.267 1.381-.306 1.493Z" fill="#131313"/><path d="M62.314 109.831c-12.25 4.179-24.178 1.529-26.644-5.92" stroke="#131313" stroke-width="1.61" stroke-miterlimit="10"/><path d="M80.029 88.777c2.465 7.45-5.466 16.875-17.716 21.054M33.258 105.404l4.661-3.466M78.01 89.063l3.958-.812" stroke="#131313" stroke-width="1.61" stroke-miterlimit="10"/></g><defs><clipPath id="clip0_4660_119"><path fill="#fff" transform="matrix(.85655 .51606 -.4841 .875 95.784 16.311)" d="M0 0h64.568v50.182H0z"/></clipPath><clipPath id="clip1_4660_119"><path fill="#fff" transform="matrix(.80675 .5909 -.5581 .82978 106.068 87.417)" d="M0 0h66.545v51.217H0z"/></clipPath><clipPath id="clip2_4660_119"><path fill="#fff" transform="matrix(.94366 -.33092 .30652 .95186 25.291 77.85)" d="M0 0h51.946v45.403H0z"/></clipPath></defs></svg>