<svg width="183" height="68" fill="none" xmlns="http://www.w3.org/2000/svg"><ellipse cx="69.897" cy="62.751" rx="3.745" ry="3.842" fill="#F8D24E"/><ellipse cx="78.01" cy="57.629" rx="3.745" ry="3.842" fill="#F8D24E"/><ellipse cx="87.371" cy="51.865" rx="3.745" ry="3.842" fill="#F8D24E"/><ellipse cx="96.109" cy="46.743" rx="3.745" ry="3.842" fill="#F8D24E"/><ellipse cx="91.116" cy="60.19" rx="3.745" ry="3.842" fill="#F8D24E"/><ellipse cx="99.229" cy="55.068" rx="3.745" ry="3.842" fill="#F8D24E"/><ellipse cx="108.591" cy="49.304" rx="3.745" ry="3.842" fill="#F8D24E"/><ellipse cx="117.328" cy="44.182" rx="3.745" ry="3.842" fill="#F8D24E"/><ellipse cx="109.215" cy="58.269" rx="3.745" ry="3.842" fill="#F8D24E"/><ellipse cx="117.328" cy="53.146" rx="3.745" ry="3.842" fill="#F8D24E"/><ellipse cx="126.689" cy="47.383" rx="3.745" ry="3.842" fill="#F8D24E"/><ellipse cx="135.425" cy="42.261" rx="3.745" ry="3.842" fill="#F8D24E"/><ellipse cx="126.689" cy="55.708" rx="3.745" ry="3.842" fill="#F8D24E"/><ellipse cx="134.802" cy="50.585" rx="3.745" ry="3.842" fill="#F8D24E"/><ellipse cx="144.163" cy="44.822" rx="3.745" ry="3.842" fill="#F8D24E"/><ellipse cx="152.901" cy="39.7" rx="3.745" ry="3.842" fill="#F8D24E"/><ellipse cx="132.306" cy="62.751" rx="3.745" ry="3.842" fill="#F8D24E"/><ellipse cx="140.419" cy="57.629" rx="3.745" ry="3.842" fill="#F8D24E"/><ellipse cx="151.652" cy="63.392" rx="3.745" ry="3.842" fill="#F8D24E"/><ellipse cx="149.78" cy="51.865" rx="3.745" ry="3.842" fill="#F8D24E"/><ellipse cx="161.015" cy="57.629" rx="3.745" ry="3.842" fill="#F8D24E"/><ellipse cx="169.751" cy="63.392" rx="3.745" ry="3.842" fill="#F8D24E"/><ellipse cx="158.517" cy="46.743" rx="3.745" ry="3.842" fill="#F8D24E"/><ellipse cx="169.751" cy="52.506" rx="3.745" ry="3.842" fill="#F8D24E"/><ellipse cx="178.488" cy="58.269" rx="3.745" ry="3.842" fill="#F8D24E"/><ellipse cx="31.828" cy="20.491" rx="3.745" ry="3.842" fill="#F8D24E"/><ellipse cx="39.94" cy="15.367" rx="3.745" ry="3.842" fill="#F8D24E"/><ellipse cx="49.303" cy="9.605" rx="3.745" ry="3.842" fill="#F8D24E"/><ellipse cx="58.038" cy="4.483" rx="3.745" ry="3.842" fill="#F8D24E"/><ellipse cx="16.226" cy="19.849" rx="3.745" ry="3.842" fill="#F8D24E"/><ellipse cx="24.339" cy="14.727" rx="3.745" ry="3.842" fill="#F8D24E"/><ellipse cx="33.7" cy="8.964" rx="3.745" ry="3.842" fill="#F8D24E"/><ellipse cx="42.437" cy="3.842" rx="3.745" ry="3.842" fill="#F8D24E"/><ellipse cx="51.175" cy="62.751" rx="3.745" ry="3.842" fill="#F8D24E"/><ellipse cx="59.287" cy="57.629" rx="3.745" ry="3.842" fill="#F8D24E"/><ellipse cx="68.649" cy="51.865" rx="3.745" ry="3.842" fill="#F8D24E"/><ellipse cx="77.387" cy="46.743" rx="3.745" ry="3.842" fill="#F8D24E"/><ellipse cx="41.19" cy="58.909" rx="3.745" ry="3.842" fill="#F8D24E"/><ellipse cx="49.303" cy="53.787" rx="3.745" ry="3.842" fill="#F8D24E"/><ellipse cx="58.664" cy="48.024" rx="3.745" ry="3.842" fill="#F8D24E"/><ellipse cx="67.401" cy="42.901" rx="3.745" ry="3.842" fill="#F8D24E"/><ellipse cx="44.934" cy="45.463" rx="3.745" ry="3.842" fill="#F8D24E"/><ellipse cx="53.046" cy="40.34" rx="3.745" ry="3.842" fill="#F8D24E"/><ellipse cx="62.408" cy="34.577" rx="3.745" ry="3.842" fill="#F8D24E"/><ellipse cx="71.145" cy="29.455" rx="3.745" ry="3.842" fill="#F8D24E"/><ellipse cx="44.934" cy="23.052" rx="3.745" ry="3.842" fill="#F8D24E"/><ellipse cx="53.046" cy="17.929" rx="3.745" ry="3.842" fill="#F8D24E"/><ellipse cx="62.408" cy="12.166" rx="3.745" ry="3.842" fill="#F8D24E"/><ellipse cx="71.145" cy="7.044" rx="3.745" ry="3.842" fill="#F8D24E"/><ellipse cx="43.062" cy="35.218" rx="3.745" ry="3.842" fill="#F8D24E"/><ellipse cx="51.176" cy="30.095" rx="3.745" ry="3.842" fill="#F8D24E"/><ellipse cx="60.536" cy="24.332" rx="3.745" ry="3.842" fill="#F8D24E"/><ellipse cx="69.273" cy="19.21" rx="3.745" ry="3.842" fill="#F8D24E"/><ellipse cx="3.745" cy="16.648" rx="3.745" ry="3.842" fill="#F8D24E"/><ellipse cx="11.858" cy="11.525" rx="3.745" ry="3.842" fill="#F8D24E"/><ellipse cx="21.219" cy="5.763" rx="3.745" ry="3.842" fill="#F8D24E"/><path d="M20.595 20.49c2.068 0 3.745-1.72 3.745-3.842s-1.677-3.842-3.745-3.842-3.744 1.72-3.744 3.842 1.676 3.842 3.744 3.842Z" fill="#F8D24E"/></svg>