<svg width="484" height="590" fill="none" xmlns="http://www.w3.org/2000/svg"><g clip-path="url('#clip0_4657_117')"><path d="M284.907 154.296c8.195 4.5 21.118-2.178 28.865-14.916s7.384-26.712-.811-31.213c-8.195-4.5-21.118 2.178-28.865 14.916s-7.384 26.712.811 31.213Z" fill="#fff"/><path d="M312.333 109.2c7.455 4.094 7.618 17.639.353 29.584-7.265 11.946-19.696 18.574-27.152 14.479-7.455-4.094-7.618-17.639-.353-29.584 7.265-11.945 19.704-18.569 27.152-14.479Zm1.256-2.066c-8.794-4.829-22.485 2.044-30.579 15.352-8.094 13.309-7.526 28.013 1.268 32.843 8.795 4.829 22.486-2.044 30.58-15.352 8.094-13.309 7.533-28.009-1.269-32.843Z" fill="#000"/><path d="M334.897 181.723c8.195 4.5 21.119-2.178 28.866-14.916s7.384-26.712-.811-31.213c-8.195-4.5-21.118 2.178-28.865 14.916-7.748 12.738-7.384 26.712.81 31.213Z" fill="#fff"/><path d="M362.324 136.627c7.455 4.094 7.618 17.639.353 29.584-7.265 11.946-19.696 18.574-27.152 14.479-7.455-4.094-7.618-17.639-.353-29.584 7.265-11.945 19.704-18.569 27.152-14.479Zm1.256-2.066c-8.795-4.829-22.486 2.044-30.58 15.352-8.094 13.309-7.525 28.013 1.269 32.843 8.794 4.829 22.486-2.044 30.58-15.352 8.094-13.309 7.533-28.009-1.269-32.843ZM292.024 142.591c4.598 2.525 11.793-1.131 16.071-8.165 4.278-7.035 4.019-14.784-.578-17.309-4.597-2.524-11.792 1.131-16.07 8.166-4.278 7.034-4.02 14.784.577 17.308Z" fill="#000"/><path d="M307.307 117.462c4.394 2.413 4.583 9.929.425 16.765-4.158 6.837-11.105 10.433-15.499 8.021-4.393-2.413-4.583-9.929-.425-16.766 4.158-6.837 11.113-10.429 15.499-8.02Zm.419-.689c-4.799-2.635-12.249 1.089-16.642 8.312-4.392 7.222-4.068 15.215.73 17.851 4.799 2.636 12.25-1.089 16.642-8.311 4.393-7.222 4.069-15.216-.73-17.852ZM342.016 170.018c4.597 2.525 11.792-1.131 16.07-8.166 4.278-7.034 4.02-14.783-.578-17.308-4.597-2.525-11.792 1.131-16.07 8.166-4.278 7.034-4.02 14.783.578 17.308Z" fill="#000"/><path d="M357.298 144.889c4.394 2.412 4.583 9.928.426 16.765-4.158 6.837-11.106 10.433-15.5 8.02-4.393-2.413-4.583-9.928-.425-16.765s11.113-10.429 15.499-8.02Zm.419-.689c-4.799-2.635-12.249 1.089-16.641 8.311-4.393 7.223-4.069 15.216.73 17.852 4.799 2.635 12.249-1.089 16.641-8.311 4.393-7.223 4.069-15.216-.73-17.852Z" fill="#000"/><path d="M301.886 132.854c2.767 1.519 6.697-.023 8.778-3.446 2.082-3.422 1.526-7.428-1.24-8.948-2.767-1.519-6.697.024-8.779 3.446-2.081 3.422-1.526 7.429 1.241 8.948ZM351.877 160.281c2.766 1.519 6.697-.024 8.778-3.446 2.081-3.422 1.526-7.428-1.241-8.948-2.766-1.519-6.697.023-8.778 3.446-2.081 3.422-1.526 7.428 1.241 8.948Z" fill="#fff"/><path d="M306.002 90.214c9.227.621 17.603 5.243 22.785 12.524 1.803 2.53 6.185.174 4.371-2.371-6.254-8.79-16.023-14.188-27.173-14.935-3.218-.221-3.194 4.565.017 4.782ZM358.167 118.833c9.226.621 17.602 5.244 22.785 12.524 1.803 2.53 6.184.175 4.371-2.37-6.254-8.791-16.023-14.188-27.173-14.936-3.219-.221-3.195 4.565.017 4.782Z" fill="#000"/><path d="M291.665 198.845c-37.414-20.527-57.255-54.426-44.317-75.72M382.831 197.455c-12.938 21.295-53.753 21.916-91.166 1.39M238.332 120.474l18.867 3.925M377.662 193.243l10.756 7.737" stroke="#000" stroke-width="3" stroke-miterlimit="10"/></g><g clip-path="url('#clip1_4657_117')"><path d="M140.518 272.017c7.64-2.443 10.422-14.051 6.216-25.927-4.207-11.876-13.81-19.522-21.449-17.079-7.639 2.444-10.422 14.052-6.215 25.927 4.206 11.876 13.809 19.523 21.448 17.079Z" fill="#fff"/><path d="M125.626 229.974c6.95-2.223 16.151 5.303 20.096 16.44 3.945 11.137 1.405 22.418-5.545 24.641-6.95 2.223-16.151-5.303-20.096-16.44-3.944-11.137-1.398-22.42 5.545-24.641Zm-.682-1.926c-8.198 2.622-11.282 14.807-6.887 27.214 4.395 12.408 14.604 20.341 22.802 17.719 8.198-2.623 11.282-14.807 6.887-27.214-4.395-12.408-14.597-20.343-22.802-17.719Z" fill="#000"/><path d="M187.12 257.136c7.639-2.443 10.422-14.051 6.215-25.927-4.206-11.876-13.809-19.522-21.448-17.079-7.639 2.443-10.422 14.051-6.216 25.927 4.207 11.876 13.81 19.523 21.449 17.079Z" fill="#fff"/><path d="M172.228 215.093c6.95-2.223 16.151 5.303 20.096 16.44 3.944 11.137 1.405 22.418-5.545 24.641-6.95 2.223-16.151-5.303-20.096-16.44-3.945-11.137-1.398-22.42 5.545-24.641Zm-.682-1.926c-8.199 2.622-11.282 14.806-6.887 27.214 4.395 12.408 14.604 20.341 22.802 17.718 8.198-2.622 11.282-14.806 6.887-27.214-4.395-12.407-14.597-20.342-22.802-17.718ZM136.654 261.106c4.285-1.371 5.876-7.798 3.553-14.357-2.323-6.558-7.68-10.763-11.966-9.393-4.285 1.371-5.876 7.799-3.553 14.357 2.323 6.558 7.68 10.764 11.966 9.393Z" fill="#000"/><path d="M128.355 237.677c4.096-1.31 9.257 2.806 11.515 9.18 2.258 6.374.766 12.618-3.33 13.928-4.096 1.31-9.257-2.806-11.515-9.18-2.257-6.374-.759-12.62 3.33-13.928Zm-.227-.642c-4.474 1.431-6.162 8.052-3.777 14.786 2.385 6.733 7.943 11.037 12.416 9.606 4.474-1.431 6.163-8.052 3.778-14.786-2.385-6.733-7.944-11.037-12.417-9.606ZM183.256 246.225c4.285-1.371 5.876-7.799 3.553-14.357-2.323-6.559-7.68-10.764-11.965-9.393-4.286 1.37-5.877 7.798-3.554 14.356 2.323 6.559 7.68 10.764 11.966 9.394Z" fill="#000"/><path d="M174.957 222.795c4.096-1.31 9.257 2.806 11.515 9.18 2.258 6.374.766 12.618-3.33 13.928-4.096 1.31-9.257-2.806-11.515-9.18-2.257-6.374-.759-12.62 3.33-13.928Zm-.227-.642c-4.474 1.431-6.162 8.053-3.777 14.786 2.385 6.734 7.943 11.037 12.417 9.606 4.473-1.431 6.162-8.052 3.777-14.785-2.385-6.734-7.944-11.037-12.417-9.607Z" fill="#000"/><path d="M129.356 250.935c2.579-.825 3.753-4.08 2.623-7.271s-4.137-5.109-6.716-4.284c-2.579.825-3.754 4.08-2.624 7.271s4.138 5.109 6.717 4.284ZM175.504 234.77c2.579-.825 3.753-4.081 2.623-7.271-1.13-3.191-4.137-5.109-6.716-4.284-2.579.825-3.754 4.08-2.624 7.271s4.137 5.109 6.717 4.284Z" fill="#fff"/><path d="M112.803 221.326c1.131-3.907 3.148-7.925 7.266-9.624 3.836-1.579 8.141-.588 11.833.9 2.528 1.024 4.438-2.617 1.895-3.642-4.916-1.992-10.552-3.093-15.616-.927-5.332 2.28-8.083 7.343-9.566 12.464-.732 2.533 3.455 3.34 4.188.829ZM161.961 201.597c10.72 1.146 21.755-.252 31.73-4.171 2.528-.988 1.177-4.863-1.37-3.861-9.258 3.631-19.519 5.112-29.497 4.043-2.721-.297-3.6 3.69-.863 3.989Z" fill="#000"/><path d="M177.41 297.729c-34.878 11.137-68.839 4.075-75.859-15.775M227.849 241.623c7.02 19.851-15.562 44.969-50.439 56.106M94.69 285.931l13.269-9.238M222.105 242.386l11.262-2.167" stroke="#000" stroke-width="3" stroke-miterlimit="10"/></g><g clip-path="url('#clip2_4657_117')"><path d="M307.064 344.191c8.081 5.394 22.155-.414 31.436-12.971 9.281-12.557 10.255-27.109 2.174-32.502-8.08-5.393-22.155.415-31.436 12.972-9.281 12.557-10.254 27.108-2.174 32.501Z" fill="#fff"/><path d="M339.922 299.737c7.351 4.906 6.211 18.993-2.492 30.769-8.704 11.775-22.262 17.574-29.613 12.668-7.352-4.907-6.212-18.994 2.491-30.77 8.704-11.775 22.269-17.569 29.614-12.667Zm1.504-2.037c-8.671-5.787-23.562.156-33.259 13.275-9.697 13.12-10.527 28.447-1.855 34.235 8.671 5.787 23.562-.156 33.259-13.275 9.697-13.12 10.534-28.442 1.855-34.235Z" fill="#000"/><path d="M356.348 377.062c8.08 5.393 22.154-.415 31.435-12.972 9.282-12.557 10.255-27.108 2.174-32.501-8.08-5.393-22.155.414-31.436 12.971-9.281 12.557-10.254 27.109-2.173 32.502Z" fill="#fff"/><path d="M389.205 332.607c7.351 4.906 6.211 18.994-2.492 30.769-8.704 11.776-22.262 17.574-29.613 12.668-7.352-4.906-6.212-18.994 2.492-30.769 8.703-11.776 22.269-17.57 29.613-12.668Zm1.505-2.036c-8.672-5.788-23.563.155-33.26 13.275-9.696 13.119-10.527 28.446-1.855 34.234 8.672 5.788 23.562-.155 33.259-13.275 9.697-13.119 10.534-28.442 1.856-34.234ZM323.462 327.772c4.533 3.026 12.363-.143 17.488-7.078 5.125-6.934 5.606-15.008 1.073-18.034-4.533-3.025-12.363.144-17.488 7.078-5.126 6.935-5.606 15.009-1.073 18.034Z" fill="#000"/><path d="M341.772 303c4.332 2.891 3.803 10.717-1.178 17.456-4.982 6.74-12.549 9.869-16.881 6.977-4.332-2.891-3.803-10.717 1.179-17.456 4.981-6.74 12.555-9.864 16.88-6.977Zm.502-.679c-4.732-3.158-12.834.06-18.096 7.179-5.262 7.12-5.699 15.454-.967 18.612 4.732 3.158 12.834-.06 18.096-7.179 5.262-7.12 5.699-15.454.967-18.612ZM373.459 361.118c4.533 3.026 12.363-.143 17.488-7.078 5.126-6.934 5.606-15.008 1.073-18.034-4.533-3.025-12.363.144-17.488 7.078-5.126 6.935-5.606 15.009-1.073 18.034Z" fill="#000"/><path d="M391.769 336.346c4.332 2.891 3.803 10.717-1.178 17.456-4.982 6.74-12.549 9.869-16.881 6.977-4.332-2.891-3.803-10.717 1.179-17.456 4.981-6.74 12.555-9.864 16.88-6.977Zm.502-.679c-4.732-3.158-12.834.06-18.096 7.179-5.262 7.12-5.698 15.454-.966 18.612 4.731 3.158 12.833-.06 18.095-7.179 5.262-7.12 5.699-15.454.967-18.612Z" fill="#000"/><path d="M321.032 324.63c2.121 1.415 5.413.436 7.352-2.188s1.792-5.899-.329-7.315c-2.12-1.415-5.412-.435-7.351 2.189-1.94 2.624-1.793 5.898.328 7.314ZM371.243 359.131c2.12 1.416 5.412.436 7.351-2.188 1.94-2.624 1.793-5.898-.328-7.314-2.121-1.415-5.412-.436-7.352 2.188-1.939 2.624-1.792 5.899.329 7.314Z" fill="#fff"/><path d="M333.48 279.432c9.996.339 18.885 4.873 24.772 12.542 1.989 2.588 6.028-.595 4.053-3.173-6.66-8.672-17.081-13.946-28.377-14.33-3.361-.112-3.834 4.852-.448 4.961ZM391.572 313.111c9.42 3.224 16.378 10.166 19.53 19.154 1.069 3.039 5.824.935 4.766-2.076-3.581-10.209-11.899-18.14-22.528-21.776-3.168-1.08-4.95 3.608-1.768 4.698Z" fill="#000"/><path d="M307.836 390.795c-36.884-24.6-54.214-61.557-38.709-82.55M402.692 397.328c-15.506 20.992-57.972 18.067-94.856-6.533M260.017 304.702l19.223 5.729M397.729 392.498l10.426 8.98" stroke="#000" stroke-width="3" stroke-miterlimit="10"/><path d="M325.784 283.759c-.725 1.097-2.364 3.894-2.373 7.789a14.09 14.09 0 0 0 1.89 7.055M328.634 286.136c-.33.823-1.076 2.93-1.08 5.865-.004 2.56.558 4.455.854 5.311M333.07 289.469a7.704 7.704 0 0 0-.233 7.706M410.502 339.25a15.488 15.488 0 0 1-6.901 4.768 16.194 16.194 0 0 1-7.624.71M407.181 337.511c-.702.575-2.533 1.958-5.436 2.959-2.533.874-4.599 1.015-5.546 1.042M402.375 334.68c-.439.508-1.607 1.714-3.61 2.405-1.744.6-3.245.51-3.937.423" stroke="#000" stroke-width="2" stroke-miterlimit="10"/><path d="M308.982 393.506c3.198-2.433 2.371-8.463-1.847-13.468-4.217-5.004-10.229-7.089-13.426-4.655-3.198 2.433-2.371 8.463 1.847 13.467 4.217 5.005 10.229 7.09 13.426 4.656Z" fill="#000" stroke="#000" stroke-width="3" stroke-miterlimit="10"/><path d="M305.505 396.838c6.508 4.341 12.346 7.1 13.038 6.163.692-.937-4.023-5.216-10.532-9.557s-12.346-7.1-13.038-6.163c-.692.937 4.023 5.216 10.532 9.557Z" fill="#000" stroke="#000" stroke-width="3" stroke-miterlimit="10"/><path d="M316.134 402.755c6.143 2.652 12.496 1.929 14.19-1.615 1.695-3.544-1.911-8.567-8.054-11.218-6.143-2.652-12.496-1.929-14.19 1.615-1.695 3.544 1.912 8.567 8.054 11.218Z" fill="#000" stroke="#000" stroke-width="3" stroke-miterlimit="10"/></g><defs><clipPath id="clip0_4657_117"><path fill="#fff" transform="matrix(.86815 .4963 -.50371 .86387 272.708 41.062)" d="M0 0h185.152v132.458H0z"/></clipPath><clipPath id="clip1_4657_117"><path fill="#fff" transform="matrix(.94885 -.31572 .32138 .94695 72 207.31)" d="M0 0h147.086v122.812H0z"/></clipPath><clipPath id="clip2_4657_117"><path fill="#fff" transform="matrix(.82117 .57069 -.5783 .81583 302.618 232)" d="M0 0h186.726v139.407H0z"/></clipPath></defs></svg>