<svg width="110" height="34" fill="none" xmlns="http://www.w3.org/2000/svg"><ellipse rx="2.707" ry="2.817" transform="matrix(.98748 -.15783 .14548 .98937 87.721 17.82)" fill="#F8D24E"/><ellipse rx="2.707" ry="2.817" transform="matrix(.98748 -.15783 .14548 .98937 92.967 13.177)" fill="#F8D24E"/><ellipse rx="2.707" ry="2.817" transform="matrix(.98748 -.15783 .14548 .98937 99.036 7.928)" fill="#F8D24E"/><ellipse rx="2.707" ry="2.817" transform="matrix(.98748 -.15783 .14548 .98937 104.728 3.215)" fill="#F8D24E"/><ellipse cx="2.72" cy="17.389" rx="2.72" ry="2.82" fill="#F8D24E"/><ellipse cx="8.611" cy="13.629" rx="2.72" ry="2.82" fill="#F8D24E"/><ellipse cx="15.413" cy="9.399" rx="2.72" ry="2.82" fill="#F8D24E"/><ellipse cx="21.758" cy="5.639" rx="2.72" ry="2.82" fill="#F8D24E"/><ellipse cx="5.44" cy="24.438" rx="2.72" ry="2.82" fill="#F8D24E"/><ellipse cx="11.333" cy="20.678" rx="2.72" ry="2.82" fill="#F8D24E"/><ellipse cx="18.134" cy="16.448" rx="2.72" ry="2.82" fill="#F8D24E"/><ellipse cx="24.479" cy="12.688" rx="2.72" ry="2.82" fill="#F8D24E"/><ellipse cx="12.238" cy="28.197" rx="2.72" ry="2.82" fill="#F8D24E"/><ellipse cx="18.132" cy="24.438" rx="2.72" ry="2.82" fill="#F8D24E"/><ellipse cx="24.931" cy="20.208" rx="2.72" ry="2.82" fill="#F8D24E"/><ellipse cx="31.276" cy="16.448" rx="2.72" ry="2.82" fill="#F8D24E"/><ellipse cx="19.943" cy="30.548" rx="2.72" ry="2.82" fill="#F8D24E"/><ellipse cx="25.836" cy="26.787" rx="2.72" ry="2.82" fill="#F8D24E"/><ellipse cx="32.638" cy="22.558" rx="2.72" ry="2.82" fill="#F8D24E"/><ellipse cx="38.981" cy="18.798" rx="2.72" ry="2.82" fill="#F8D24E"/><ellipse cx="29.917" cy="31.018" rx="2.72" ry="2.82" fill="#F8D24E"/><ellipse cx="35.81" cy="27.258" rx="2.72" ry="2.82" fill="#F8D24E"/><ellipse cx="42.61" cy="23.028" rx="2.72" ry="2.82" fill="#F8D24E"/><ellipse cx="48.955" cy="19.269" rx="2.72" ry="2.82" fill="#F8D24E"/><ellipse cx="41.704" cy="31.017" rx="2.72" ry="2.82" fill="#F8D24E"/><ellipse cx="47.596" cy="27.258" rx="2.72" ry="2.82" fill="#F8D24E"/><ellipse cx="54.396" cy="23.028" rx="2.72" ry="2.82" fill="#F8D24E"/><ellipse cx="60.742" cy="19.268" rx="2.72" ry="2.82" fill="#F8D24E"/><ellipse cx="51.674" cy="30.548" rx="2.72" ry="2.82" fill="#F8D24E"/><ellipse cx="57.566" cy="26.787" rx="2.72" ry="2.82" fill="#F8D24E"/><ellipse cx="64.367" cy="22.558" rx="2.72" ry="2.82" fill="#F8D24E"/><ellipse cx="70.712" cy="18.798" rx="2.72" ry="2.82" fill="#F8D24E"/><ellipse cx="63.006" cy="30.077" rx="2.72" ry="2.82" fill="#F8D24E"/><ellipse cx="68.898" cy="26.318" rx="2.72" ry="2.82" fill="#F8D24E"/><ellipse cx="75.699" cy="22.088" rx="2.72" ry="2.82" fill="#F8D24E"/><ellipse cx="82.044" cy="18.328" rx="2.72" ry="2.82" fill="#F8D24E"/><ellipse cx="73.432" cy="17.858" rx="2.72" ry="2.82" fill="#F8D24E"/><ellipse cx="79.324" cy="14.099" rx="2.72" ry="2.82" fill="#F8D24E"/><ellipse cx="86.124" cy="9.869" rx="2.72" ry="2.82" fill="#F8D24E"/><ellipse cx="92.47" cy="6.109" rx="2.72" ry="2.82" fill="#F8D24E"/></svg>