<svg width="214" height="241" fill="none" xmlns="http://www.w3.org/2000/svg"><g clip-path="url('#clip0_123_255')"><path d="M118.944 62.719c4.576 2.645 11.785-1.28 16.103-8.766 4.317-7.487 4.107-15.7-.469-18.345-4.576-2.645-11.785 1.28-16.103 8.766-4.317 7.487-4.107 15.7.469 18.345Z" fill="#fff"/><path d="M134.228 36.215c4.163 2.406 4.261 10.367.212 17.387-4.048 7.02-10.983 10.916-15.146 8.51-4.163-2.407-4.261-10.367-.212-17.387 4.048-7.02 10.987-10.914 15.146-8.51Zm.7-1.214c-4.911-2.838-12.548 1.201-17.059 9.023-4.51 7.822-4.186 16.463.725 19.302 4.911 2.838 12.548-1.201 17.059-9.023 4.51-7.822 4.19-16.461-.725-19.302Z" fill="#000"/><path d="M146.831 78.838c4.576 2.645 11.785-1.28 16.102-8.766 4.318-7.486 4.108-15.7-.468-18.344-4.576-2.645-11.786 1.28-16.103 8.766-4.317 7.486-4.107 15.7.469 18.344Z" fill="#fff"/><path d="M162.115 52.335c4.163 2.406 4.261 10.366.213 17.387-4.049 7.02-10.984 10.916-15.147 8.51-4.163-2.407-4.261-10.367-.212-17.388 4.048-7.02 10.987-10.913 15.146-8.51Zm.7-1.214c-4.911-2.839-12.548 1.2-17.059 9.023-4.51 7.821-4.185 16.463.725 19.301 4.911 2.839 12.549-1.2 17.059-9.022 4.511-7.822 4.19-16.462-.725-19.302ZM122.911 55.84c2.567 1.484 6.581-.665 8.965-4.8 2.384-4.133 2.236-8.688-.332-10.172-2.567-1.483-6.58.665-8.964 4.8-2.384 4.134-2.236 8.688.331 10.172Z" fill="#000"/><path d="M131.428 41.07c2.454 1.419 2.563 5.836.246 9.854-2.317 4.018-6.193 6.132-8.646 4.714-2.454-1.419-2.563-5.836-.246-9.854 2.317-4.018 6.197-6.13 8.646-4.713Zm.234-.404c-2.68-1.549-6.836.64-9.284 4.885-2.448 4.244-2.263 8.942.416 10.491 2.68 1.549 6.836-.64 9.284-4.885 2.448-4.244 2.263-8.942-.416-10.491ZM150.799 71.96c2.567 1.483 6.58-.665 8.964-4.8 2.384-4.134 2.236-8.688-.331-10.172s-6.581.665-8.965 4.799c-2.384 4.134-2.235 8.689.332 10.172Z" fill="#000"/><path d="M159.315 57.19c2.454 1.418 2.563 5.836.246 9.853-2.317 4.018-6.193 6.132-8.646 4.714-2.453-1.418-2.563-5.835-.246-9.853s6.197-6.13 8.646-4.714Zm.234-.404c-2.68-1.55-6.836.64-9.284 4.884-2.448 4.245-2.263 8.943.417 10.492 2.679 1.549 6.836-.64 9.283-4.885 2.448-4.245 2.263-8.943-.416-10.491Z" fill="#000"/><path d="M128.41 50.116c1.545.893 3.737-.013 4.897-2.025 1.16-2.011.848-4.365-.697-5.258-1.544-.893-3.737.014-4.897 2.025-1.159 2.011-.848 4.366.697 5.258ZM156.297 66.236c1.545.893 3.737-.014 4.897-2.025 1.16-2.012.848-4.366-.696-5.259-1.545-.892-3.738.014-4.897 2.025-1.16 2.012-.848 4.366.696 5.259Z" fill="#fff"/><path d="M130.705 25.055a16.822 16.822 0 0 1 12.719 7.352c1.009 1.484 3.448.105 2.433-1.388-3.498-5.157-8.951-8.325-15.168-8.768-1.794-.13-1.774 2.676.016 2.804ZM159.805 41.875a16.82 16.82 0 0 1 12.719 7.352c1.009 1.484 3.448.105 2.434-1.388-3.499-5.156-8.952-8.325-15.169-8.767-1.794-.131-1.774 2.675.016 2.803Z" fill="#000"/><path d="M122.706 88.901C101.834 76.838 90.766 56.915 97.983 44.4M173.564 88.085c-7.218 12.516-29.986 12.881-50.857.817M92.954 42.84l10.525 2.308M170.68 85.61l6 4.547" stroke="#000" stroke-width="1.679" stroke-miterlimit="10"/></g><g clip-path="url('#clip1_123_255')"><path d="M130.951 175.005c4.511 3.17 12.363-.243 17.537-7.624 5.174-7.38 5.711-15.933 1.2-19.103-4.511-3.169-12.363.244-17.537 7.624-5.174 7.38-5.711 15.933-1.2 19.103Z" fill="#fff"/><path d="M149.268 148.877c4.104 2.884 3.474 11.163-1.378 18.084-4.852 6.921-12.416 10.329-16.52 7.446-4.104-2.884-3.473-11.164 1.379-18.085 4.852-6.921 12.419-10.326 16.519-7.445Zm.839-1.197c-4.841-3.402-13.148.091-18.554 7.802-5.405 7.711-5.863 16.72-1.022 20.121 4.841 3.402 13.148-.091 18.554-7.802 5.406-7.71 5.867-16.716 1.022-20.121Z" fill="#000"/><path d="M158.444 194.324c4.511 3.17 12.362-.243 17.536-7.624 5.174-7.38 5.712-15.933 1.2-19.103-4.511-3.169-12.362.244-17.536 7.624-5.174 7.381-5.711 15.933-1.2 19.103Z" fill="#fff"/><path d="M176.761 168.196c4.104 2.883 3.474 11.163-1.378 18.084-4.852 6.921-12.416 10.329-16.52 7.445-4.104-2.883-3.473-11.163 1.379-18.084 4.852-6.921 12.419-10.326 16.519-7.445Zm.839-1.197c-4.841-3.402-13.148.091-18.553 7.802-5.406 7.711-5.864 16.719-1.023 20.121 4.842 3.402 13.148-.091 18.554-7.802 5.406-7.711 5.867-16.716 1.022-20.121ZM140.096 165.355c2.53 1.778 6.898-.085 9.756-4.16 2.857-4.076 3.122-8.822.591-10.6-2.531-1.778-6.898.085-9.756 4.16-2.857 4.076-3.122 8.822-.591 10.6Z" fill="#000"/><path d="M150.303 150.795c2.419 1.699 2.127 6.299-.65 10.26-2.777 3.961-6.999 5.8-9.417 4.1-2.419-1.699-2.126-6.299.651-10.26 2.777-3.961 7.002-5.797 9.416-4.1Zm.28-.399c-2.642-1.857-7.161.035-10.095 4.219-2.933 4.185-3.173 9.083-.532 10.939 2.642 1.856 7.161-.035 10.095-4.219 2.934-4.185 3.174-9.083.532-10.939ZM167.986 184.953c2.531 1.778 6.899-.084 9.756-4.16 2.857-4.076 3.122-8.821.592-10.599-2.531-1.779-6.899.084-9.756 4.16-2.857 4.075-3.122 8.821-.592 10.599Z" fill="#000"/><path d="M178.194 170.393c2.418 1.7 2.126 6.299-.651 10.26-2.777 3.961-6.998 5.8-9.417 4.101-2.419-1.7-2.126-6.299.651-10.26 2.777-3.961 7.002-5.797 9.417-4.101Zm.279-.399c-2.641-1.856-7.161.035-10.095 4.22-2.933 4.184-3.173 9.082-.532 10.939 2.642 1.856 7.162-.035 10.095-4.22 2.934-4.184 3.174-9.082.532-10.939Z" fill="#000"/><path d="M138.738 163.507c1.184.832 3.02.257 4.101-1.286 1.082-1.542.998-3.466-.186-4.298-1.183-.832-3.02-.256-4.101 1.286s-.998 3.467.186 4.298ZM166.748 183.785c1.184.832 3.02.256 4.101-1.286s.998-3.467-.186-4.299c-1.184-.832-3.02-.256-4.101 1.286-1.081 1.543-.998 3.467.186 4.299Z" fill="#fff"/><path d="M145.681 136.943c5.574.201 10.534 2.865 13.824 7.368 1.112 1.519 3.361-.348 2.257-1.862a20.508 20.508 0 0 0-15.835-8.418c-1.875-.067-2.133 2.847-.246 2.912ZM178.083 156.74c5.256 1.895 9.142 5.971 10.908 11.249.598 1.784 3.248.55 2.656-1.218-2.007-5.995-6.652-10.652-12.582-12.788-1.767-.635-2.757 2.117-.982 2.757Z" fill="#000"/><path d="M131.375 202.395c-20.575-14.458-30.243-36.179-21.593-48.517M184.291 206.234c-8.65 12.338-32.34 10.619-52.916-3.839M104.7 151.795l10.723 3.367M181.522 203.396l5.816 5.277" stroke="#000" stroke-width="1.679" stroke-miterlimit="10"/><path d="M141.388 139.487a8.622 8.622 0 0 0-.27 8.724M142.978 140.884c-.184.483-.6 1.721-.602 3.447a9.997 9.997 0 0 0 .476 3.121M145.452 142.843a4.704 4.704 0 0 0-.643 2.377 4.711 4.711 0 0 0 .513 2.153M188.648 172.1a8.686 8.686 0 0 1-3.85 2.803 8.603 8.603 0 0 1-4.253.417M186.796 171.078c-.392.338-1.413 1.151-3.033 1.739a9.992 9.992 0 0 1-3.094.613M184.114 169.415a4.705 4.705 0 0 1-2.014 1.413c-.973.353-1.811.3-2.197.249" stroke="#000" stroke-width="1.119" stroke-miterlimit="10"/><path d="M132.015 203.989c1.784-1.431 1.322-4.974-1.03-7.916-2.353-2.941-5.707-4.166-7.491-2.736-1.783 1.43-1.322 4.974 1.031 7.915 2.353 2.942 5.706 4.167 7.49 2.737Z" fill="#000" stroke="#000" stroke-width="1.679" stroke-miterlimit="10"/><path d="M130.075 205.946c3.631 2.552 6.887 4.174 7.273 3.623.387-.551-2.244-3.066-5.875-5.617s-6.887-4.173-7.273-3.622c-.386.55 2.244 3.065 5.875 5.616Z" fill="#000" stroke="#000" stroke-width="1.679" stroke-miterlimit="10"/><path d="M136.005 209.424c3.426 1.559 6.97 1.134 7.916-.949.945-2.083-1.067-5.035-4.494-6.593-3.426-1.559-6.971-1.134-7.916.949-.945 2.083 1.067 5.035 4.494 6.593Z" fill="#000" stroke="#000" stroke-width="1.679" stroke-miterlimit="10"/></g><g clip-path="url('#clip2_123_255')"><path d="M38.382 131.906c4.266-1.435 5.825-8.256 3.482-15.235-2.342-6.979-7.7-11.473-11.965-10.038-4.266 1.436-5.825 8.256-3.482 15.235 2.342 6.979 7.699 11.473 11.965 10.038Z" fill="#fff"/><path d="M30.089 107.199c3.88-1.306 9.013 3.117 11.21 9.662 2.197 6.544.773 13.173-3.107 14.479-3.881 1.305-9.014-3.118-11.21-9.662-2.197-6.545-.77-13.175 3.107-14.479Zm-.38-1.132c-4.578 1.54-6.305 8.7-3.858 15.991 2.448 7.291 8.143 11.953 12.72 10.413 4.578-1.54 6.306-8.699 3.858-15.99-2.447-7.292-8.139-11.955-12.72-10.414Z" fill="#000"/><path d="M64.378 123.16c4.266-1.435 5.825-8.256 3.482-15.235-2.342-6.979-7.699-11.473-11.965-10.038-4.266 1.436-5.825 8.256-3.482 15.235 2.342 6.979 7.7 11.473 11.965 10.038Z" fill="#fff"/><path d="M56.085 98.453c3.881-1.306 9.014 3.117 11.21 9.662 2.197 6.544.774 13.173-3.107 14.479-3.88 1.305-9.013-3.118-11.21-9.662-2.197-6.545-.77-13.175 3.107-14.48Zm-.38-1.132c-4.577 1.54-6.304 8.7-3.857 15.991s8.142 11.953 12.72 10.413c4.578-1.54 6.305-8.699 3.858-15.99-2.448-7.292-8.139-11.955-12.72-10.414ZM36.229 125.493c2.393-.805 3.284-4.582 1.99-8.435-1.293-3.854-4.282-6.326-6.675-5.521-2.393.805-3.284 4.582-1.99 8.436 1.293 3.854 4.282 6.325 6.675 5.52Z" fill="#000"/><path d="M31.608 111.725c2.287-.769 5.166 1.65 6.423 5.396 1.258 3.745.422 7.414-1.865 8.184-2.287.769-5.166-1.65-6.424-5.396-1.257-3.745-.417-7.415 1.866-8.184Zm-.127-.377c-2.498.841-3.444 4.731-2.116 8.688 1.329 3.957 4.43 6.486 6.927 5.646 2.498-.84 3.444-4.731 2.116-8.688-1.328-3.957-4.429-6.486-6.927-5.646ZM62.226 116.747c2.393-.805 3.284-4.582 1.99-8.436-1.293-3.854-4.282-6.326-6.675-5.521-2.393.805-3.284 4.582-1.99 8.436 1.293 3.854 4.282 6.326 6.675 5.521Z" fill="#000"/><path d="M57.605 102.979c2.287-.769 5.166 1.65 6.423 5.395 1.258 3.746.422 7.415-1.865 8.184-2.287.77-5.166-1.649-6.424-5.395-1.257-3.745-.417-7.416 1.866-8.184Zm-.127-.377c-2.498.84-3.444 4.731-2.115 8.688 1.328 3.957 4.428 6.486 6.926 5.646 2.498-.841 3.444-4.731 2.116-8.688-1.328-3.957-4.429-6.486-6.927-5.646Z" fill="#000"/><path d="M32.16 119.516c1.44-.485 2.097-2.397 1.467-4.272-.629-1.875-2.306-3.002-3.746-2.518-1.44.485-2.097 2.397-1.468 4.272.63 1.875 2.307 3.002 3.747 2.518ZM57.903 110.015c1.44-.484 2.097-2.397 1.468-4.272-.63-1.875-2.307-3.002-3.747-2.517-1.44.484-2.097 2.397-1.467 4.272.629 1.874 2.306 3.002 3.746 2.517Z" fill="#fff"/><path d="M22.92 102.105c.635-2.292 1.764-4.649 4.063-5.645 2.142-.926 4.543-.344 6.602.529 1.409.6 2.478-1.535 1.06-2.137-2.74-1.169-5.884-1.815-8.712-.545-2.976 1.337-4.517 4.307-5.349 7.312-.411 1.485 1.924 1.959 2.335.486ZM50.346 90.514c5.978.671 12.135-.15 17.704-2.447 1.412-.58.662-2.85-.76-2.263-5.168 2.13-10.894 2.998-16.458 2.372-1.518-.174-2.012 2.163-.486 2.338Z" fill="#000"/><path d="M58.97 147.019c-19.457 6.546-38.403 2.395-42.319-9.272" stroke="#000" stroke-width="1.679" stroke-miterlimit="10"/><path d="M87.106 114.044c3.916 11.667-8.681 26.429-28.137 32.975M12.824 140.085l7.402-5.43M83.903 114.492l6.282-1.273" stroke="#000" stroke-width="1.679" stroke-miterlimit="10"/></g><defs><clipPath id="clip0_123_255"><path fill="#fff" transform="matrix(.85971 .51078 -.4893 .87211 112.13 .545)" d="M0 0h102.174v78.856H0z"/></clipPath><clipPath id="clip1_123_255"><path fill="#fff" transform="matrix(.81066 .58551 -.56347 .82614 128.464 111.913)" d="M0 0h105.182v80.57H0z"/></clipPath><clipPath id="clip2_123_255"><path fill="#fff" transform="matrix(.94509 -.32682 .31042 .9506 .166 96.93)" d="M0 0h82.379v71.206H0z"/></clipPath></defs></svg>