<svg width="130" height="50" fill="none" xmlns="http://www.w3.org/2000/svg"><ellipse cx="50.042" cy="46.276" rx="2.665" ry="2.779" fill="#F8D24E"/><ellipse cx="55.818" cy="42.571" rx="2.665" ry="2.779" fill="#F8D24E"/><ellipse cx="62.479" cy="38.403" rx="2.665" ry="2.779" fill="#F8D24E"/><ellipse cx="68.699" cy="34.698" rx="2.665" ry="2.779" fill="#F8D24E"/><ellipse cx="65.144" cy="44.423" rx="2.665" ry="2.779" fill="#F8D24E"/><ellipse cx="70.919" cy="40.718" rx="2.665" ry="2.779" fill="#F8D24E"/><ellipse cx="77.581" cy="36.55" rx="2.665" ry="2.779" fill="#F8D24E"/><ellipse cx="83.802" cy="32.846" rx="2.665" ry="2.779" fill="#F8D24E"/><ellipse cx="78.028" cy="43.034" rx="2.665" ry="2.779" fill="#F8D24E"/><ellipse cx="83.803" cy="39.329" rx="2.665" ry="2.779" fill="#F8D24E"/><ellipse cx="90.466" cy="35.161" rx="2.665" ry="2.779" fill="#F8D24E"/><ellipse cx="96.683" cy="31.457" rx="2.665" ry="2.779" fill="#F8D24E"/><ellipse cx="90.464" cy="41.182" rx="2.665" ry="2.779" fill="#F8D24E"/><ellipse cx="96.237" cy="37.477" rx="2.665" ry="2.779" fill="#F8D24E"/><ellipse cx="102.901" cy="33.309" rx="2.665" ry="2.779" fill="#F8D24E"/><ellipse cx="109.12" cy="29.604" rx="2.665" ry="2.779" fill="#F8D24E"/><ellipse cx="94.463" cy="46.276" rx="2.665" ry="2.779" fill="#F8D24E"/><ellipse cx="100.238" cy="42.571" rx="2.665" ry="2.779" fill="#F8D24E"/><ellipse cx="108.234" cy="46.739" rx="2.665" ry="2.779" fill="#F8D24E"/><ellipse cx="106.902" cy="38.403" rx="2.665" ry="2.779" fill="#F8D24E"/><ellipse cx="114.897" cy="42.571" rx="2.665" ry="2.779" fill="#F8D24E"/><ellipse cx="121.116" cy="46.739" rx="2.665" ry="2.779" fill="#F8D24E"/><ellipse cx="113.12" cy="34.698" rx="2.665" ry="2.779" fill="#F8D24E"/><ellipse cx="121.116" cy="38.865" rx="2.665" ry="2.779" fill="#F8D24E"/><ellipse cx="127.335" cy="43.034" rx="2.665" ry="2.779" fill="#F8D24E"/><ellipse cx="22.948" cy="15.711" rx="2.665" ry="2.779" fill="#F8D24E"/><ellipse cx="28.722" cy="12.006" rx="2.665" ry="2.779" fill="#F8D24E"/><ellipse cx="35.387" cy="7.838" rx="2.665" ry="2.779" fill="#F8D24E"/><ellipse cx="41.604" cy="4.133" rx="2.665" ry="2.779" fill="#F8D24E"/><ellipse cx="11.842" cy="15.247" rx="2.665" ry="2.779" fill="#F8D24E"/><ellipse cx="17.615" cy="11.542" rx="2.665" ry="2.779" fill="#F8D24E"/><ellipse cx="24.279" cy="7.375" rx="2.665" ry="2.779" fill="#F8D24E"/><ellipse cx="30.497" cy="3.67" rx="2.665" ry="2.779" fill="#F8D24E"/><ellipse cx="36.716" cy="46.276" rx="2.665" ry="2.779" fill="#F8D24E"/><ellipse cx="42.489" cy="42.571" rx="2.665" ry="2.779" fill="#F8D24E"/><ellipse cx="49.153" cy="38.403" rx="2.665" ry="2.779" fill="#F8D24E"/><ellipse cx="55.372" cy="34.698" rx="2.665" ry="2.779" fill="#F8D24E"/><ellipse cx="29.61" cy="43.498" rx="2.665" ry="2.779" fill="#F8D24E"/><ellipse cx="35.384" cy="39.793" rx="2.665" ry="2.779" fill="#F8D24E"/><ellipse cx="42.046" cy="35.624" rx="2.665" ry="2.779" fill="#F8D24E"/><ellipse cx="48.266" cy="31.92" rx="2.665" ry="2.779" fill="#F8D24E"/><ellipse cx="32.275" cy="33.772" rx="2.665" ry="2.779" fill="#F8D24E"/><ellipse cx="38.048" cy="30.067" rx="2.665" ry="2.779" fill="#F8D24E"/><ellipse cx="44.713" cy="25.899" rx="2.665" ry="2.779" fill="#F8D24E"/><ellipse cx="50.931" cy="22.194" rx="2.665" ry="2.779" fill="#F8D24E"/><ellipse cx="32.275" cy="17.563" rx="2.665" ry="2.779" fill="#F8D24E"/><ellipse cx="38.048" cy="13.858" rx="2.665" ry="2.779" fill="#F8D24E"/><ellipse cx="44.713" cy="9.69" rx="2.665" ry="2.779" fill="#F8D24E"/><ellipse cx="50.931" cy="5.985" rx="2.665" ry="2.779" fill="#F8D24E"/><ellipse cx="30.942" cy="26.363" rx="2.665" ry="2.779" fill="#F8D24E"/><ellipse cx="36.717" cy="22.657" rx="2.665" ry="2.779" fill="#F8D24E"/><ellipse cx="43.379" cy="18.49" rx="2.665" ry="2.779" fill="#F8D24E"/><ellipse cx="49.598" cy="14.785" rx="2.665" ry="2.779" fill="#F8D24E"/><ellipse cx="2.957" cy="12.932" rx="2.665" ry="2.779" fill="#F8D24E"/><ellipse cx="8.733" cy="9.227" rx="2.665" ry="2.779" fill="#F8D24E"/><ellipse cx="15.396" cy="5.059" rx="2.665" ry="2.779" fill="#F8D24E"/><path d="M14.951 15.71c1.472 0 2.665-1.244 2.665-2.778 0-1.535-1.193-2.779-2.665-2.779s-2.665 1.244-2.665 2.779c0 1.534 1.193 2.778 2.665 2.778Z" fill="#F8D24E"/></svg>