<svg width="135" height="58" viewBox="0 0 135 58" fill="none" xmlns="http://www.w3.org/2000/svg">
<g filter="url(#filter0_d_123_417)">
<ellipse cx="53.7502" cy="46.2757" rx="2.6652" ry="2.77865" fill="#F8D24E"/>
<ellipse cx="59.5256" cy="42.5708" rx="2.6652" ry="2.77865" fill="#F8D24E"/>
<ellipse cx="66.1867" cy="38.4026" rx="2.6652" ry="2.77865" fill="#F8D24E"/>
<ellipse cx="72.4074" cy="34.6976" rx="2.6652" ry="2.77865" fill="#F8D24E"/>
<ellipse cx="68.8517" cy="44.4233" rx="2.6652" ry="2.77865" fill="#F8D24E"/>
<ellipse cx="74.6271" cy="40.7185" rx="2.6652" ry="2.77865" fill="#F8D24E"/>
<ellipse cx="81.2892" cy="36.5505" rx="2.6652" ry="2.77865" fill="#F8D24E"/>
<ellipse cx="87.5099" cy="32.8459" rx="2.6652" ry="2.77865" fill="#F8D24E"/>
<ellipse cx="81.7355" cy="43.0343" rx="2.6652" ry="2.77865" fill="#F8D24E"/>
<ellipse cx="87.5109" cy="39.3289" rx="2.6652" ry="2.77865" fill="#F8D24E"/>
<ellipse cx="94.174" cy="35.1611" rx="2.6652" ry="2.77865" fill="#F8D24E"/>
<ellipse cx="100.391" cy="31.4569" rx="2.6652" ry="2.77865" fill="#F8D24E"/>
<ellipse cx="94.172" cy="41.182" rx="2.6652" ry="2.77865" fill="#F8D24E"/>
<ellipse cx="99.9455" cy="37.4768" rx="2.6652" ry="2.77865" fill="#F8D24E"/>
<ellipse cx="106.609" cy="33.3089" rx="2.6652" ry="2.77865" fill="#F8D24E"/>
<ellipse cx="112.828" cy="29.6041" rx="2.6652" ry="2.77865" fill="#F8D24E"/>
<ellipse cx="98.1711" cy="46.2757" rx="2.6652" ry="2.77865" fill="#F8D24E"/>
<ellipse cx="103.946" cy="42.5708" rx="2.6652" ry="2.77865" fill="#F8D24E"/>
<ellipse cx="111.942" cy="46.7387" rx="2.6652" ry="2.77865" fill="#F8D24E"/>
<ellipse cx="110.61" cy="38.4026" rx="2.6652" ry="2.77865" fill="#F8D24E"/>
<ellipse cx="118.605" cy="42.5708" rx="2.6652" ry="2.77865" fill="#F8D24E"/>
<ellipse cx="124.824" cy="46.7387" rx="2.6652" ry="2.77865" fill="#F8D24E"/>
<ellipse cx="116.828" cy="34.6976" rx="2.6652" ry="2.77865" fill="#F8D24E"/>
<ellipse cx="124.824" cy="38.8654" rx="2.6652" ry="2.77865" fill="#F8D24E"/>
<ellipse cx="131.043" cy="43.0338" rx="2.6652" ry="2.77865" fill="#F8D24E"/>
<ellipse cx="26.6564" cy="15.7111" rx="2.6652" ry="2.77865" fill="#F8D24E"/>
<ellipse cx="32.4298" cy="12.0058" rx="2.6652" ry="2.77865" fill="#F8D24E"/>
<ellipse cx="39.0949" cy="7.83822" rx="2.6652" ry="2.77865" fill="#F8D24E"/>
<ellipse cx="45.3117" cy="4.13339" rx="2.6652" ry="2.77865" fill="#F8D24E"/>
<ellipse cx="15.55" cy="15.247" rx="2.6652" ry="2.77865" fill="#F8D24E"/>
<ellipse cx="21.3234" cy="11.5424" rx="2.6652" ry="2.77865" fill="#F8D24E"/>
<ellipse cx="27.9865" cy="7.37485" rx="2.6652" ry="2.77865" fill="#F8D24E"/>
<ellipse cx="34.2052" cy="3.67001" rx="2.6652" ry="2.77865" fill="#F8D24E"/>
<ellipse cx="40.424" cy="46.2757" rx="2.6652" ry="2.77865" fill="#F8D24E"/>
<ellipse cx="46.1974" cy="42.5708" rx="2.6652" ry="2.77865" fill="#F8D24E"/>
<ellipse cx="52.8605" cy="38.4026" rx="2.6652" ry="2.77865" fill="#F8D24E"/>
<ellipse cx="59.0802" cy="34.6976" rx="2.6652" ry="2.77865" fill="#F8D24E"/>
<ellipse cx="33.3175" cy="43.4975" rx="2.6652" ry="2.77865" fill="#F8D24E"/>
<ellipse cx="39.092" cy="39.7926" rx="2.6652" ry="2.77865" fill="#F8D24E"/>
<ellipse cx="45.7541" cy="35.6244" rx="2.6652" ry="2.77865" fill="#F8D24E"/>
<ellipse cx="51.9738" cy="31.9196" rx="2.6652" ry="2.77865" fill="#F8D24E"/>
<ellipse cx="35.9826" cy="33.7721" rx="2.6652" ry="2.77865" fill="#F8D24E"/>
<ellipse cx="41.756" cy="30.0672" rx="2.6652" ry="2.77865" fill="#F8D24E"/>
<ellipse cx="48.4211" cy="25.899" rx="2.6652" ry="2.77865" fill="#F8D24E"/>
<ellipse cx="54.6388" cy="22.1944" rx="2.6652" ry="2.77865" fill="#F8D24E"/>
<ellipse cx="35.9826" cy="17.5631" rx="2.6652" ry="2.77865" fill="#F8D24E"/>
<ellipse cx="41.756" cy="13.8579" rx="2.6652" ry="2.77865" fill="#F8D24E"/>
<ellipse cx="48.4211" cy="9.69015" rx="2.6652" ry="2.77865" fill="#F8D24E"/>
<ellipse cx="54.6388" cy="5.9852" rx="2.6652" ry="2.77865" fill="#F8D24E"/>
<ellipse cx="34.6496" cy="26.3628" rx="2.6652" ry="2.77865" fill="#F8D24E"/>
<ellipse cx="40.425" cy="22.6573" rx="2.6652" ry="2.77865" fill="#F8D24E"/>
<ellipse cx="47.0871" cy="18.4896" rx="2.6652" ry="2.77865" fill="#F8D24E"/>
<ellipse cx="53.3058" cy="14.7849" rx="2.6652" ry="2.77865" fill="#F8D24E"/>
<ellipse cx="6.6652" cy="12.9317" rx="2.6652" ry="2.77865" fill="#F8D24E"/>
<ellipse cx="12.4406" cy="9.22677" rx="2.6652" ry="2.77865" fill="#F8D24E"/>
<ellipse cx="19.1037" cy="5.05917" rx="2.6652" ry="2.77865" fill="#F8D24E"/>
<path d="M18.6593 15.7104C20.1313 15.7104 21.3245 14.4663 21.3245 12.9317C21.3245 11.3971 20.1313 10.1531 18.6593 10.1531C17.1874 10.1531 15.9941 11.3971 15.9941 12.9317C15.9941 14.4663 17.1874 15.7104 18.6593 15.7104Z" fill="#F8D24E"/>
</g>
<defs>
<filter id="filter0_d_123_417" x="0" y="0.891357" width="137.708" height="56.626" filterUnits="userSpaceOnUse" color-interpolation-filters="sRGB">
<feFlood flood-opacity="0" result="BackgroundImageFix"/>
<feColorMatrix in="SourceAlpha" type="matrix" values="0 0 0 0 0 0 0 0 0 0 0 0 0 0 0 0 0 0 127 0" result="hardAlpha"/>
<feOffset dy="4"/>
<feGaussianBlur stdDeviation="2"/>
<feComposite in2="hardAlpha" operator="out"/>
<feColorMatrix type="matrix" values="0 0 0 0 0 0 0 0 0 0 0 0 0 0 0 0 0 0 0.25 0"/>
<feBlend mode="normal" in2="BackgroundImageFix" result="effect1_dropShadow_123_417"/>
<feBlend mode="normal" in="SourceGraphic" in2="effect1_dropShadow_123_417" result="shape"/>
</filter>
</defs>
</svg>
