<svg width="110" height="34" viewBox="0 0 110 34" fill="none" xmlns="http://www.w3.org/2000/svg">
<ellipse cx="3.74451" cy="28.1742" rx="3.74451" ry="3.84191" fill="#F8D24E"/>
<ellipse cx="11.8568" cy="23.0516" rx="3.74451" ry="3.84191" fill="#F8D24E"/>
<ellipse cx="21.2186" cy="17.2889" rx="3.74451" ry="3.84191" fill="#F8D24E"/>
<ellipse cx="29.9564" cy="12.1666" rx="3.74451" ry="3.84191" fill="#F8D24E"/>
<ellipse cx="51.1757" cy="30.0953" rx="3.74451" ry="3.84191" fill="#F8D24E"/>
<ellipse cx="59.288" cy="24.9723" rx="3.74451" ry="3.84191" fill="#F8D24E"/>
<ellipse cx="68.6498" cy="19.2098" rx="3.74451" ry="3.84191" fill="#F8D24E"/>
<ellipse cx="77.3856" cy="14.087" rx="3.74451" ry="3.84191" fill="#F8D24E"/>
<ellipse cx="70.5223" cy="27.5333" rx="3.74451" ry="3.84191" fill="#F8D24E"/>
<ellipse cx="78.6346" cy="22.4112" rx="3.74451" ry="3.84191" fill="#F8D24E"/>
<ellipse cx="87.996" cy="16.6483" rx="3.74451" ry="3.84191" fill="#F8D24E"/>
<ellipse cx="96.7328" cy="11.5255" rx="3.74451" ry="3.84191" fill="#F8D24E"/>
<ellipse cx="106.095" cy="3.84191" rx="3.74451" ry="3.84191" fill="#F8D24E"/>
<ellipse cx="86.1234" cy="8.32409" rx="3.74451" ry="3.84191" fill="#F8D24E"/>
<ellipse cx="33.701" cy="29.4549" rx="3.74451" ry="3.84191" fill="#F8D24E"/>
<ellipse cx="41.8138" cy="24.3321" rx="3.74451" ry="3.84191" fill="#F8D24E"/>
<ellipse cx="51.1757" cy="18.569" rx="3.74451" ry="3.84191" fill="#F8D24E"/>
<ellipse cx="59.9115" cy="13.4471" rx="3.74451" ry="3.84191" fill="#F8D24E"/>
<ellipse cx="18.0985" cy="28.8141" rx="3.74451" ry="3.84191" fill="#F8D24E"/>
<ellipse cx="26.2118" cy="23.6915" rx="3.74451" ry="3.84191" fill="#F8D24E"/>
<ellipse cx="35.5726" cy="17.9288" rx="3.74451" ry="3.84191" fill="#F8D24E"/>
<ellipse cx="44.3094" cy="12.8065" rx="3.74451" ry="3.84191" fill="#F8D24E"/>
</svg>
