<svg width="130" height="50" viewBox="0 0 130 50" fill="none" xmlns="http://www.w3.org/2000/svg">
<ellipse cx="50.0422" cy="46.2757" rx="2.6652" ry="2.77865" fill="#F8D24E"/>
<ellipse cx="55.8175" cy="42.5708" rx="2.6652" ry="2.77865" fill="#F8D24E"/>
<ellipse cx="62.4787" cy="38.4026" rx="2.6652" ry="2.77865" fill="#F8D24E"/>
<ellipse cx="68.6994" cy="34.6976" rx="2.6652" ry="2.77865" fill="#F8D24E"/>
<ellipse cx="65.1437" cy="44.4233" rx="2.6652" ry="2.77865" fill="#F8D24E"/>
<ellipse cx="70.9191" cy="40.7185" rx="2.6652" ry="2.77865" fill="#F8D24E"/>
<ellipse cx="77.5812" cy="36.5505" rx="2.6652" ry="2.77865" fill="#F8D24E"/>
<ellipse cx="83.8019" cy="32.8459" rx="2.6652" ry="2.77865" fill="#F8D24E"/>
<ellipse cx="78.0275" cy="43.0343" rx="2.6652" ry="2.77865" fill="#F8D24E"/>
<ellipse cx="83.8029" cy="39.3289" rx="2.6652" ry="2.77865" fill="#F8D24E"/>
<ellipse cx="90.466" cy="35.1611" rx="2.6652" ry="2.77865" fill="#F8D24E"/>
<ellipse cx="96.6828" cy="31.4569" rx="2.6652" ry="2.77865" fill="#F8D24E"/>
<ellipse cx="90.464" cy="41.182" rx="2.6652" ry="2.77865" fill="#F8D24E"/>
<ellipse cx="96.2375" cy="37.4768" rx="2.6652" ry="2.77865" fill="#F8D24E"/>
<ellipse cx="102.901" cy="33.3089" rx="2.6652" ry="2.77865" fill="#F8D24E"/>
<ellipse cx="109.12" cy="29.6041" rx="2.6652" ry="2.77865" fill="#F8D24E"/>
<ellipse cx="94.4631" cy="46.2757" rx="2.6652" ry="2.77865" fill="#F8D24E"/>
<ellipse cx="100.238" cy="42.5708" rx="2.6652" ry="2.77865" fill="#F8D24E"/>
<ellipse cx="108.234" cy="46.7387" rx="2.6652" ry="2.77865" fill="#F8D24E"/>
<ellipse cx="106.902" cy="38.4026" rx="2.6652" ry="2.77865" fill="#F8D24E"/>
<ellipse cx="114.897" cy="42.5708" rx="2.6652" ry="2.77865" fill="#F8D24E"/>
<ellipse cx="121.116" cy="46.7387" rx="2.6652" ry="2.77865" fill="#F8D24E"/>
<ellipse cx="113.12" cy="34.6976" rx="2.6652" ry="2.77865" fill="#F8D24E"/>
<ellipse cx="121.116" cy="38.8654" rx="2.6652" ry="2.77865" fill="#F8D24E"/>
<ellipse cx="127.335" cy="43.0338" rx="2.6652" ry="2.77865" fill="#F8D24E"/>
<ellipse cx="22.9484" cy="15.7111" rx="2.6652" ry="2.77865" fill="#F8D24E"/>
<ellipse cx="28.7218" cy="12.0058" rx="2.6652" ry="2.77865" fill="#F8D24E"/>
<ellipse cx="35.3869" cy="7.83822" rx="2.6652" ry="2.77865" fill="#F8D24E"/>
<ellipse cx="41.6037" cy="4.13339" rx="2.6652" ry="2.77865" fill="#F8D24E"/>
<ellipse cx="11.842" cy="15.247" rx="2.6652" ry="2.77865" fill="#F8D24E"/>
<ellipse cx="17.6154" cy="11.5424" rx="2.6652" ry="2.77865" fill="#F8D24E"/>
<ellipse cx="24.2785" cy="7.37485" rx="2.6652" ry="2.77865" fill="#F8D24E"/>
<ellipse cx="30.4972" cy="3.67001" rx="2.6652" ry="2.77865" fill="#F8D24E"/>
<ellipse cx="36.716" cy="46.2757" rx="2.6652" ry="2.77865" fill="#F8D24E"/>
<ellipse cx="42.4894" cy="42.5708" rx="2.6652" ry="2.77865" fill="#F8D24E"/>
<ellipse cx="49.1525" cy="38.4026" rx="2.6652" ry="2.77865" fill="#F8D24E"/>
<ellipse cx="55.3722" cy="34.6976" rx="2.6652" ry="2.77865" fill="#F8D24E"/>
<ellipse cx="29.6095" cy="43.4975" rx="2.6652" ry="2.77865" fill="#F8D24E"/>
<ellipse cx="35.3839" cy="39.7926" rx="2.6652" ry="2.77865" fill="#F8D24E"/>
<ellipse cx="42.0461" cy="35.6244" rx="2.6652" ry="2.77865" fill="#F8D24E"/>
<ellipse cx="48.2658" cy="31.9196" rx="2.6652" ry="2.77865" fill="#F8D24E"/>
<ellipse cx="32.2746" cy="33.7721" rx="2.6652" ry="2.77865" fill="#F8D24E"/>
<ellipse cx="38.048" cy="30.0672" rx="2.6652" ry="2.77865" fill="#F8D24E"/>
<ellipse cx="44.7131" cy="25.899" rx="2.6652" ry="2.77865" fill="#F8D24E"/>
<ellipse cx="50.9308" cy="22.1944" rx="2.6652" ry="2.77865" fill="#F8D24E"/>
<ellipse cx="32.2746" cy="17.5631" rx="2.6652" ry="2.77865" fill="#F8D24E"/>
<ellipse cx="38.048" cy="13.8579" rx="2.6652" ry="2.77865" fill="#F8D24E"/>
<ellipse cx="44.7131" cy="9.69015" rx="2.6652" ry="2.77865" fill="#F8D24E"/>
<ellipse cx="50.9308" cy="5.9852" rx="2.6652" ry="2.77865" fill="#F8D24E"/>
<ellipse cx="30.9416" cy="26.3628" rx="2.6652" ry="2.77865" fill="#F8D24E"/>
<ellipse cx="36.717" cy="22.6573" rx="2.6652" ry="2.77865" fill="#F8D24E"/>
<ellipse cx="43.3791" cy="18.4896" rx="2.6652" ry="2.77865" fill="#F8D24E"/>
<ellipse cx="49.5978" cy="14.7849" rx="2.6652" ry="2.77865" fill="#F8D24E"/>
<ellipse cx="2.95719" cy="12.9317" rx="2.6652" ry="2.77865" fill="#F8D24E"/>
<ellipse cx="8.73258" cy="9.22677" rx="2.6652" ry="2.77865" fill="#F8D24E"/>
<ellipse cx="15.3957" cy="5.05917" rx="2.6652" ry="2.77865" fill="#F8D24E"/>
<path d="M14.9513 15.7104C16.4233 15.7104 17.6165 14.4663 17.6165 12.9317C17.6165 11.3971 16.4233 10.1531 14.9513 10.1531C13.4794 10.1531 12.2861 11.3971 12.2861 12.9317C12.2861 14.4663 13.4794 15.7104 14.9513 15.7104Z" fill="#F8D24E"/>
</svg>
