<svg width="214" height="241" viewBox="0 0 214 241" fill="none" xmlns="http://www.w3.org/2000/svg">
<g clip-path="url(#clip0_123_255)">
<path d="M118.944 62.7188C123.52 65.3638 130.729 61.4391 135.047 53.9527C139.364 46.4663 139.154 38.2532 134.578 35.6082C130.002 32.9633 122.793 36.888 118.475 44.3744C114.158 51.8608 114.368 60.0739 118.944 62.7188Z" fill="white"/>
<path d="M134.228 36.215C138.391 38.6213 138.489 46.5816 134.44 53.6021C130.392 60.6225 123.457 64.518 119.294 62.1118C115.131 59.7055 115.033 51.7451 119.082 44.7247C123.13 37.7043 130.069 33.8111 134.228 36.215ZM134.928 35.0011C130.017 32.1627 122.38 36.2022 117.869 44.0238C113.359 51.8455 113.683 60.4872 118.594 63.3257C123.505 66.1641 131.142 62.1246 135.653 54.3029C140.163 46.4813 139.843 37.8419 134.928 35.0011Z" fill="black"/>
<path d="M146.831 78.8382C151.407 81.4832 158.616 77.5585 162.933 70.0721C167.251 62.5857 167.041 54.3726 162.465 51.7276C157.889 49.0826 150.679 53.0074 146.362 60.4938C142.045 67.9802 142.255 76.1933 146.831 78.8382Z" fill="white"/>
<path d="M162.115 52.3347C166.278 54.7409 166.376 62.7013 162.328 69.7217C158.279 76.7422 151.344 80.6376 147.181 78.2314C143.018 75.8251 142.92 67.8648 146.969 60.8443C151.017 53.8239 157.956 49.9307 162.115 52.3347ZM162.815 51.1207C157.904 48.2823 150.267 52.3219 145.756 60.1435C141.246 67.9651 141.571 76.6069 146.481 79.4453C151.392 82.2837 159.03 78.2442 163.54 70.4226C168.051 62.6009 167.73 53.9615 162.815 51.1207Z" fill="black"/>
<path d="M122.911 55.84C125.478 57.3238 129.492 55.1751 131.876 51.0408C134.26 46.9065 134.112 42.3522 131.544 40.8685C128.977 39.3847 124.964 41.5334 122.58 45.6677C120.196 49.8019 120.344 54.3563 122.911 55.84Z" fill="black"/>
<path d="M131.428 41.0706C133.882 42.4887 133.991 46.9058 131.674 50.9238C129.357 54.9419 125.481 57.0555 123.028 55.6375C120.574 54.2194 120.465 49.8022 122.782 45.7842C125.099 41.7662 128.979 39.6549 131.428 41.0706ZM131.662 40.666C128.982 39.1171 124.826 41.306 122.378 45.5506C119.93 49.7952 120.115 54.4932 122.794 56.0421C125.474 57.591 129.63 55.4021 132.078 51.1575C134.526 46.9128 134.341 42.2149 131.662 40.666Z" fill="black"/>
<path d="M150.799 71.9594C153.366 73.4432 157.379 71.2945 159.763 67.1602C162.147 63.0259 161.999 58.4716 159.432 56.9878C156.865 55.5041 152.851 57.6528 150.467 61.787C148.083 65.9213 148.232 70.4756 150.799 71.9594Z" fill="black"/>
<path d="M159.315 57.1902C161.769 58.6083 161.878 63.0255 159.561 67.0435C157.244 71.0615 153.368 73.1752 150.915 71.7571C148.462 70.339 148.352 65.9219 150.669 61.9039C152.986 57.8858 156.866 55.7745 159.315 57.1902ZM159.549 56.7856C156.869 55.2367 152.713 57.4256 150.265 61.6702C147.817 65.9148 148.002 70.6128 150.682 72.1617C153.361 73.7106 157.518 71.5217 159.965 67.2771C162.413 63.0325 162.228 58.3345 159.549 56.7856Z" fill="black"/>
<path d="M128.41 50.1164C129.955 51.0092 132.147 50.1026 133.307 48.0913C134.467 46.08 134.155 43.7258 132.61 42.833C131.066 41.9401 128.873 42.8468 127.713 44.858C126.554 46.8693 126.865 49.2235 128.41 50.1164Z" fill="white"/>
<path d="M156.297 66.2357C157.842 67.1286 160.034 66.2219 161.194 64.2107C162.354 62.1994 162.042 59.8452 160.498 58.9523C158.953 58.0595 156.76 58.9661 155.601 60.9774C154.441 62.9887 154.753 65.3429 156.297 66.2357Z" fill="white"/>
<path d="M130.705 25.0551C135.849 25.4229 140.525 28.1363 143.424 32.407C144.433 33.8911 146.872 32.5117 145.857 31.0189C142.359 25.8623 136.906 22.694 130.689 22.2513C128.895 22.1204 128.915 24.9266 130.705 25.0551Z" fill="black"/>
<path d="M159.805 41.8754C164.95 42.2432 169.625 44.9566 172.524 49.2273C173.533 50.7114 175.972 49.332 174.958 47.8392C171.459 42.6826 166.006 39.5143 159.789 39.0716C157.995 38.9407 158.015 41.7469 159.805 41.8754Z" fill="black"/>
<path d="M122.706 88.9015C101.834 76.8375 90.766 56.9141 97.9834 44.3987" stroke="black" stroke-width="1.67916" stroke-miterlimit="10"/>
<path d="M173.564 88.0851C166.346 100.601 143.578 100.966 122.707 88.9016" stroke="black" stroke-width="1.67916" stroke-miterlimit="10"/>
<path d="M92.954 42.8405L103.479 45.1476" stroke="black" stroke-width="1.67916" stroke-miterlimit="10"/>
<path d="M170.68 85.6091L176.68 90.1569" stroke="black" stroke-width="1.67916" stroke-miterlimit="10"/>
</g>
<g clip-path="url(#clip1_123_255)">
<path d="M130.951 175.005C135.462 178.175 143.314 174.762 148.488 167.381C153.662 160.001 154.199 151.448 149.688 148.278C145.177 145.109 137.325 148.522 132.151 155.902C126.977 163.282 126.44 171.835 130.951 175.005Z" fill="white"/>
<path d="M149.268 148.877C153.372 151.761 152.742 160.04 147.89 166.961C143.038 173.882 135.474 177.29 131.37 174.407C127.266 171.523 127.897 163.243 132.749 156.322C137.601 149.401 145.168 145.996 149.268 148.877ZM150.107 147.68C145.266 144.278 136.959 147.771 131.553 155.482C126.148 163.193 125.69 172.202 130.531 175.603C135.372 179.005 143.679 175.512 149.085 167.801C154.491 160.091 154.952 151.085 150.107 147.68Z" fill="black"/>
<path d="M158.444 194.324C162.955 197.494 170.806 194.081 175.98 186.7C181.154 179.32 181.692 170.767 177.18 167.597C172.669 164.428 164.818 167.841 159.644 175.221C154.47 182.602 153.933 191.154 158.444 194.324Z" fill="white"/>
<path d="M176.761 168.196C180.865 171.079 180.235 179.359 175.383 186.28C170.531 193.201 162.967 196.609 158.863 193.725C154.759 190.842 155.39 182.562 160.242 175.641C165.094 168.72 172.661 165.315 176.761 168.196ZM177.6 166.999C172.759 163.597 164.452 167.09 159.047 174.801C153.641 182.512 153.183 191.52 158.024 194.922C162.866 198.324 171.172 194.831 176.578 187.12C181.984 179.409 182.445 170.404 177.6 166.999Z" fill="black"/>
<path d="M140.096 165.355C142.626 167.133 146.994 165.27 149.852 161.195C152.709 157.119 152.974 152.373 150.443 150.595C147.912 148.817 143.545 150.68 140.687 154.755C137.83 158.831 137.565 163.577 140.096 165.355Z" fill="black"/>
<path d="M150.303 150.795C152.722 152.494 152.43 157.094 149.653 161.055C146.876 165.016 142.654 166.855 140.236 165.155C137.817 163.456 138.11 158.856 140.887 154.895C143.664 150.934 147.889 149.098 150.303 150.795ZM150.583 150.396C147.941 148.539 143.422 150.431 140.488 154.615C137.555 158.8 137.315 163.698 139.956 165.554C142.598 167.41 147.117 165.519 150.051 161.335C152.985 157.15 153.225 152.252 150.583 150.396Z" fill="black"/>
<path d="M167.986 184.953C170.517 186.731 174.885 184.869 177.742 180.793C180.599 176.717 180.864 171.972 178.334 170.194C175.803 168.415 171.435 170.278 168.578 174.354C165.721 178.429 165.456 183.175 167.986 184.953Z" fill="black"/>
<path d="M178.194 170.393C180.612 172.093 180.32 176.692 177.543 180.653C174.766 184.614 170.545 186.453 168.126 184.754C165.707 183.054 166 178.455 168.777 174.494C171.554 170.533 175.779 168.697 178.194 170.393ZM178.473 169.994C175.832 168.138 171.312 170.029 168.378 174.214C165.445 178.398 165.205 183.296 167.846 185.153C170.488 187.009 175.008 185.118 177.941 180.933C180.875 176.749 181.115 171.851 178.473 169.994Z" fill="black"/>
<path d="M138.738 163.507C139.922 164.339 141.758 163.764 142.839 162.221C143.921 160.679 143.837 158.755 142.653 157.923C141.47 157.091 139.633 157.667 138.552 159.209C137.471 160.751 137.554 162.676 138.738 163.507Z" fill="white"/>
<path d="M166.748 183.785C167.932 184.617 169.768 184.041 170.849 182.499C171.93 180.957 171.847 179.032 170.663 178.2C169.479 177.368 167.643 177.944 166.562 179.486C165.481 181.029 165.564 182.953 166.748 183.785Z" fill="white"/>
<path d="M145.681 136.943C151.255 137.144 156.215 139.808 159.505 144.311C160.617 145.83 162.866 143.963 161.762 142.449C158.041 137.357 152.225 134.259 145.927 134.031C144.052 133.964 143.794 136.878 145.681 136.943Z" fill="black"/>
<path d="M178.083 156.74C183.339 158.635 187.225 162.711 188.991 167.989C189.589 169.773 192.239 168.539 191.647 166.771C189.64 160.776 184.995 156.119 179.065 153.983C177.298 153.348 176.308 156.1 178.083 156.74Z" fill="black"/>
<path d="M131.375 202.395C110.8 187.937 101.132 166.216 109.782 153.878" stroke="black" stroke-width="1.67916" stroke-miterlimit="10"/>
<path d="M184.291 206.234C175.641 218.572 151.951 216.853 131.375 202.395" stroke="black" stroke-width="1.67916" stroke-miterlimit="10"/>
<path d="M104.7 151.795L115.423 155.162" stroke="black" stroke-width="1.67916" stroke-miterlimit="10"/>
<path d="M181.522 203.396L187.338 208.673" stroke="black" stroke-width="1.67916" stroke-miterlimit="10"/>
<path d="M141.388 139.487C140.983 140.132 140.069 141.776 140.064 144.064C140.061 146.063 140.749 147.541 141.118 148.211" stroke="black" stroke-width="1.11944" stroke-miterlimit="10"/>
<path d="M142.978 140.884C142.794 141.367 142.378 142.605 142.376 144.331C142.373 145.835 142.687 146.949 142.852 147.452" stroke="black" stroke-width="1.11944" stroke-miterlimit="10"/>
<path d="M145.452 142.843C145.255 143.175 144.81 144.03 144.809 145.22C144.808 146.256 145.142 147.026 145.322 147.373" stroke="black" stroke-width="1.11944" stroke-miterlimit="10"/>
<path d="M188.648 172.1C188.18 172.7 186.946 174.12 184.798 174.903C182.922 175.585 181.299 175.439 180.545 175.32" stroke="black" stroke-width="1.11944" stroke-miterlimit="10"/>
<path d="M186.796 171.078C186.404 171.416 185.383 172.229 183.763 172.817C182.35 173.331 181.197 173.414 180.669 173.43" stroke="black" stroke-width="1.11944" stroke-miterlimit="10"/>
<path d="M184.114 169.415C183.869 169.713 183.217 170.422 182.1 170.828C181.127 171.181 180.289 171.128 179.903 171.077" stroke="black" stroke-width="1.11944" stroke-miterlimit="10"/>
<path d="M132.015 203.989C133.799 202.558 133.337 199.015 130.985 196.073C128.632 193.132 125.278 191.907 123.494 193.337C121.711 194.767 122.172 198.311 124.525 201.252C126.878 204.194 130.231 205.419 132.015 203.989Z" fill="black" stroke="black" stroke-width="1.67916" stroke-miterlimit="10"/>
<path d="M130.075 205.946C133.706 208.498 136.962 210.12 137.348 209.569C137.735 209.018 135.104 206.503 131.473 203.952C127.842 201.401 124.586 199.779 124.2 200.33C123.814 200.88 126.444 203.395 130.075 205.946Z" fill="black" stroke="black" stroke-width="1.67916" stroke-miterlimit="10"/>
<path d="M136.005 209.424C139.431 210.983 142.975 210.558 143.921 208.475C144.866 206.392 142.854 203.44 139.427 201.882C136.001 200.323 132.456 200.748 131.511 202.831C130.566 204.914 132.578 207.866 136.005 209.424Z" fill="black" stroke="black" stroke-width="1.67916" stroke-miterlimit="10"/>
</g>
<g clip-path="url(#clip2_123_255)">
<path d="M38.3817 131.906C42.6475 130.471 44.2067 123.65 41.8643 116.671C39.5219 109.692 34.1649 105.198 29.8991 106.633C25.6334 108.069 24.0742 114.889 26.4166 121.868C28.759 128.847 34.116 133.341 38.3817 131.906Z" fill="white"/>
<path d="M30.0887 107.199C33.9695 105.893 39.1022 110.316 41.2989 116.861C43.4956 123.405 42.0725 130.034 38.1917 131.34C34.311 132.645 29.1783 128.222 26.9816 121.678C24.7849 115.133 26.2117 108.503 30.0887 107.199ZM29.7089 106.067C25.1311 107.607 23.4039 114.767 25.8513 122.058C28.2986 129.349 33.9938 134.011 38.5716 132.471C43.1493 130.931 44.8766 123.772 42.4292 116.481C39.9818 109.189 34.2904 104.526 29.7089 106.067Z" fill="black"/>
<path d="M64.3778 123.16C68.6436 121.725 70.2028 114.904 67.8604 107.925C65.518 100.946 60.161 96.4523 55.8952 97.8874C51.6295 99.3225 50.0703 106.143 52.4127 113.122C54.7551 120.101 60.1121 124.595 64.3778 123.16Z" fill="white"/>
<path d="M56.0853 98.4528C59.966 97.1472 65.0988 101.57 67.2955 108.115C69.4921 114.659 68.0691 121.288 64.1883 122.594C60.3076 123.899 55.1748 119.476 52.9782 112.932C50.7815 106.387 52.2083 99.7571 56.0853 98.4528ZM55.7055 97.3212C51.1277 98.8613 49.4005 106.021 51.8478 113.312C54.2952 120.603 59.9904 125.265 64.5682 123.725C69.1459 122.185 70.8731 115.026 68.4258 107.735C65.9784 100.443 60.287 95.7798 55.7055 97.3212Z" fill="black"/>
<path d="M36.2287 125.493C38.6217 124.688 39.513 120.911 38.2194 117.058C36.9258 113.204 33.9373 110.732 31.5443 111.537C29.1513 112.342 28.2601 116.119 29.5536 119.973C30.8472 123.827 33.8357 126.298 36.2287 125.493Z" fill="black"/>
<path d="M31.6078 111.725C33.8948 110.956 36.774 113.375 38.0313 117.121C39.2885 120.866 38.4528 124.535 36.1658 125.305C33.8788 126.074 30.9996 123.655 29.7423 119.909C28.4851 116.164 29.3246 112.494 31.6078 111.725ZM31.4812 111.348C28.9832 112.189 28.0374 116.079 29.3655 120.036C30.6937 123.993 33.7944 126.522 36.2924 125.682C38.7904 124.842 39.7362 120.951 38.408 116.994C37.0799 113.037 33.9792 110.508 31.4812 111.348Z" fill="black"/>
<path d="M62.2258 116.747C64.6188 115.942 65.51 112.165 64.2165 108.311C62.9229 104.457 59.9344 101.985 57.5414 102.79C55.1484 103.595 54.2571 107.372 55.5507 111.226C56.8443 115.08 59.8328 117.552 62.2258 116.747Z" fill="black"/>
<path d="M57.6049 102.979C59.8919 102.21 62.7711 104.629 64.0284 108.374C65.2856 112.12 64.4498 115.789 62.1628 116.558C59.8758 117.328 56.9966 114.909 55.7394 111.163C54.4822 107.418 55.3217 103.747 57.6049 102.979ZM57.4783 102.602C54.9803 103.442 54.0345 107.333 55.3626 111.29C56.6908 115.247 59.7915 117.776 62.2895 116.936C64.7874 116.095 65.7333 112.205 64.4051 108.248C63.077 104.291 59.9763 101.762 57.4783 102.602Z" fill="black"/>
<path d="M32.1597 119.516C33.5996 119.031 34.2567 117.119 33.6274 115.244C32.9981 113.369 31.3206 112.242 29.8807 112.726C28.4407 113.211 27.7836 115.123 28.4129 116.998C29.0422 118.873 30.7197 120 32.1597 119.516Z" fill="white"/>
<path d="M57.9033 110.015C59.3433 109.531 60.0004 107.618 59.3711 105.743C58.7418 103.868 57.0643 102.741 55.6243 103.226C54.1844 103.71 53.5273 105.623 54.1566 107.498C54.7859 109.372 56.4634 110.5 57.9033 110.015Z" fill="white"/>
<path d="M22.9195 102.105C23.5549 99.8132 24.6842 97.456 26.9832 96.4601C29.1253 95.5337 31.5261 96.1155 33.5846 96.9888C34.9938 97.5893 36.0633 95.4538 34.6452 94.852C31.9048 93.6834 28.761 93.0368 25.9335 94.3071C22.9566 95.6444 21.4165 98.6142 20.5842 101.619C20.173 103.104 22.5083 103.578 22.9195 102.105Z" fill="black"/>
<path d="M50.3461 90.5141C56.3244 91.1852 62.4813 90.3648 68.0501 88.0673C69.4615 87.4875 68.7119 85.2167 67.2905 85.8041C62.1222 87.9333 56.3965 88.8017 50.8319 88.1761C49.3144 88.0024 48.8198 90.3391 50.3461 90.5141Z" fill="black"/>
<path d="M58.9692 147.019C39.513 153.565 20.5674 149.414 16.6514 137.747" stroke="black" stroke-width="1.67916" stroke-miterlimit="10"/>
<path d="M87.1061 114.044C91.0222 125.711 78.4248 140.473 58.9686 147.019" stroke="black" stroke-width="1.67916" stroke-miterlimit="10"/>
<path d="M12.8236 140.085L20.2262 134.655" stroke="black" stroke-width="1.67916" stroke-miterlimit="10"/>
<path d="M83.9028 114.492L90.1847 113.219" stroke="black" stroke-width="1.67916" stroke-miterlimit="10"/>
</g>
<defs>
<clipPath id="clip0_123_255">
<rect width="102.174" height="78.8557" fill="white" transform="matrix(0.859713 0.510777 -0.4893 0.872115 112.13 0.54541)"/>
</clipPath>
<clipPath id="clip1_123_255">
<rect width="105.182" height="80.5697" fill="white" transform="matrix(0.810663 0.585513 -0.563471 0.826136 128.464 111.913)"/>
</clipPath>
<clipPath id="clip2_123_255">
<rect width="82.3787" height="71.2059" fill="white" transform="matrix(0.945087 -0.326819 0.310424 0.950598 0.166016 96.9294)"/>
</clipPath>
</defs>
</svg>
