<svg width="183" height="68" viewBox="0 0 183 68" fill="none" xmlns="http://www.w3.org/2000/svg">
<ellipse cx="69.8969" cy="62.7513" rx="3.74451" ry="3.84191" fill="#F8D24E"/>
<ellipse cx="78.0101" cy="57.6288" rx="3.74451" ry="3.84191" fill="#F8D24E"/>
<ellipse cx="87.371" cy="51.8653" rx="3.74451" ry="3.84191" fill="#F8D24E"/>
<ellipse cx="96.1093" cy="46.7428" rx="3.74451" ry="3.84191" fill="#F8D24E"/>
<ellipse cx="91.1161" cy="60.1896" rx="3.74451" ry="3.84191" fill="#F8D24E"/>
<ellipse cx="99.2294" cy="55.0675" rx="3.74451" ry="3.84191" fill="#F8D24E"/>
<ellipse cx="108.591" cy="49.3043" rx="3.74451" ry="3.84191" fill="#F8D24E"/>
<ellipse cx="117.328" cy="44.182" rx="3.74451" ry="3.84191" fill="#F8D24E"/>
<ellipse cx="109.215" cy="58.2687" rx="3.74451" ry="3.84191" fill="#F8D24E"/>
<ellipse cx="117.328" cy="53.1456" rx="3.74451" ry="3.84191" fill="#F8D24E"/>
<ellipse cx="126.689" cy="47.3829" rx="3.74451" ry="3.84191" fill="#F8D24E"/>
<ellipse cx="135.425" cy="42.2611" rx="3.74451" ry="3.84191" fill="#F8D24E"/>
<ellipse cx="126.689" cy="55.7079" rx="3.74451" ry="3.84191" fill="#F8D24E"/>
<ellipse cx="134.802" cy="50.5848" rx="3.74451" ry="3.84191" fill="#F8D24E"/>
<ellipse cx="144.163" cy="44.8221" rx="3.74451" ry="3.84191" fill="#F8D24E"/>
<ellipse cx="152.901" cy="39.6996" rx="3.74451" ry="3.84191" fill="#F8D24E"/>
<ellipse cx="132.306" cy="62.7513" rx="3.74451" ry="3.84191" fill="#F8D24E"/>
<ellipse cx="140.419" cy="57.6288" rx="3.74451" ry="3.84191" fill="#F8D24E"/>
<ellipse cx="151.652" cy="63.3915" rx="3.74451" ry="3.84191" fill="#F8D24E"/>
<ellipse cx="149.78" cy="51.8653" rx="3.74451" ry="3.84191" fill="#F8D24E"/>
<ellipse cx="161.015" cy="57.6288" rx="3.74451" ry="3.84191" fill="#F8D24E"/>
<ellipse cx="169.751" cy="63.3915" rx="3.74451" ry="3.84191" fill="#F8D24E"/>
<ellipse cx="158.517" cy="46.7428" rx="3.74451" ry="3.84191" fill="#F8D24E"/>
<ellipse cx="169.751" cy="52.5057" rx="3.74451" ry="3.84191" fill="#F8D24E"/>
<ellipse cx="178.488" cy="58.2689" rx="3.74451" ry="3.84191" fill="#F8D24E"/>
<ellipse cx="31.828" cy="20.4906" rx="3.74451" ry="3.84191" fill="#F8D24E"/>
<ellipse cx="39.9403" cy="15.3675" rx="3.74451" ry="3.84191" fill="#F8D24E"/>
<ellipse cx="49.3026" cy="9.60509" rx="3.74451" ry="3.84191" fill="#F8D24E"/>
<ellipse cx="58.0385" cy="4.48254" rx="3.74451" ry="3.84191" fill="#F8D24E"/>
<ellipse cx="16.226" cy="19.849" rx="3.74451" ry="3.84191" fill="#F8D24E"/>
<ellipse cx="24.3387" cy="14.7269" rx="3.74451" ry="3.84191" fill="#F8D24E"/>
<ellipse cx="33.7001" cy="8.96422" rx="3.74451" ry="3.84191" fill="#F8D24E"/>
<ellipse cx="42.4369" cy="3.84191" rx="3.74451" ry="3.84191" fill="#F8D24E"/>
<ellipse cx="51.1747" cy="62.7513" rx="3.74451" ry="3.84191" fill="#F8D24E"/>
<ellipse cx="59.287" cy="57.6288" rx="3.74451" ry="3.84191" fill="#F8D24E"/>
<ellipse cx="68.6488" cy="51.8653" rx="3.74451" ry="3.84191" fill="#F8D24E"/>
<ellipse cx="77.3866" cy="46.7428" rx="3.74451" ry="3.84191" fill="#F8D24E"/>
<ellipse cx="41.1898" cy="58.9093" rx="3.74451" ry="3.84191" fill="#F8D24E"/>
<ellipse cx="49.3031" cy="53.7867" rx="3.74451" ry="3.84191" fill="#F8D24E"/>
<ellipse cx="58.6639" cy="48.0238" rx="3.74451" ry="3.84191" fill="#F8D24E"/>
<ellipse cx="67.4012" cy="42.9015" rx="3.74451" ry="3.84191" fill="#F8D24E"/>
<ellipse cx="44.9335" cy="45.4628" rx="3.74451" ry="3.84191" fill="#F8D24E"/>
<ellipse cx="53.0458" cy="40.3402" rx="3.74451" ry="3.84191" fill="#F8D24E"/>
<ellipse cx="62.4081" cy="34.577" rx="3.74451" ry="3.84191" fill="#F8D24E"/>
<ellipse cx="71.1449" cy="29.4547" rx="3.74451" ry="3.84191" fill="#F8D24E"/>
<ellipse cx="44.9335" cy="23.0519" rx="3.74451" ry="3.84191" fill="#F8D24E"/>
<ellipse cx="53.0458" cy="17.9288" rx="3.74451" ry="3.84191" fill="#F8D24E"/>
<ellipse cx="62.4081" cy="12.1661" rx="3.74451" ry="3.84191" fill="#F8D24E"/>
<ellipse cx="71.1449" cy="7.04357" rx="3.74451" ry="3.84191" fill="#F8D24E"/>
<ellipse cx="43.0624" cy="35.2179" rx="3.74451" ry="3.84191" fill="#F8D24E"/>
<ellipse cx="51.1757" cy="30.0946" rx="3.74451" ry="3.84191" fill="#F8D24E"/>
<ellipse cx="60.5365" cy="24.3321" rx="3.74451" ry="3.84191" fill="#F8D24E"/>
<ellipse cx="69.2733" cy="19.2098" rx="3.74451" ry="3.84191" fill="#F8D24E"/>
<ellipse cx="3.74451" cy="16.6481" rx="3.74451" ry="3.84191" fill="#F8D24E"/>
<ellipse cx="11.8578" cy="11.5253" rx="3.74451" ry="3.84191" fill="#F8D24E"/>
<ellipse cx="21.2191" cy="5.76281" rx="3.74451" ry="3.84191" fill="#F8D24E"/>
<path d="M20.5951 20.49C22.6631 20.49 24.3396 18.7699 24.3396 16.6481C24.3396 14.5262 22.6631 12.8062 20.5951 12.8062C18.5271 12.8062 16.8506 14.5262 16.8506 16.6481C16.8506 18.7699 18.5271 20.49 20.5951 20.49Z" fill="#F8D24E"/>
</svg>
