<svg width="484" height="590" viewBox="0 0 484 590" fill="none" xmlns="http://www.w3.org/2000/svg">
<g clip-path="url(#clip0_4657_117)">
<path d="M284.907 154.296C293.102 158.796 306.025 152.118 313.772 139.38C321.519 126.642 321.156 112.668 312.961 108.167C304.766 103.667 291.843 110.345 284.096 123.083C276.349 135.821 276.712 149.795 284.907 154.296Z" fill="white"/>
<path d="M312.333 109.2C319.788 113.294 319.951 126.839 312.686 138.784C305.421 150.73 292.99 157.358 285.534 153.263C278.079 149.169 277.916 135.624 285.181 123.679C292.446 111.734 304.885 105.11 312.333 109.2ZM313.589 107.134C304.795 102.305 291.104 109.178 283.01 122.486C274.916 135.795 275.484 150.499 284.278 155.329C293.073 160.158 306.764 153.285 314.858 139.977C322.952 126.668 322.391 111.968 313.589 107.134Z" fill="black"/>
<path d="M334.897 181.723C343.092 186.223 356.016 179.545 363.763 166.807C371.51 154.069 371.147 140.095 362.952 135.594C354.757 131.094 341.834 137.772 334.087 150.51C326.339 163.248 326.703 177.222 334.897 181.723Z" fill="white"/>
<path d="M362.324 136.627C369.779 140.721 369.942 154.266 362.677 166.211C355.412 178.157 342.981 184.785 335.525 180.69C328.07 176.596 327.907 163.051 335.172 151.106C342.437 139.161 354.876 132.537 362.324 136.627ZM363.58 134.561C354.785 129.732 341.094 136.605 333 149.913C324.906 163.222 325.475 177.926 334.269 182.756C343.063 187.585 356.755 180.712 364.849 167.404C372.943 154.095 372.382 139.395 363.58 134.561Z" fill="black"/>
<path d="M292.024 142.591C296.622 145.116 303.817 141.46 308.095 134.426C312.373 127.391 312.114 119.642 307.517 117.117C302.92 114.593 295.725 118.248 291.447 125.283C287.169 132.317 287.427 140.067 292.024 142.591Z" fill="black"/>
<path d="M307.307 117.462C311.701 119.875 311.89 127.391 307.732 134.227C303.574 141.064 296.627 144.66 292.233 142.248C287.84 139.835 287.65 132.319 291.808 125.482C295.966 118.645 302.921 115.053 307.307 117.462ZM307.726 116.773C302.927 114.138 295.477 117.862 291.084 125.085C286.692 132.307 287.016 140.3 291.814 142.936C296.613 145.572 304.064 141.847 308.456 134.625C312.849 127.403 312.525 119.409 307.726 116.773Z" fill="black"/>
<path d="M342.016 170.018C346.613 172.543 353.808 168.887 358.086 161.852C362.364 154.818 362.106 147.069 357.508 144.544C352.911 142.019 345.716 145.675 341.438 152.71C337.16 159.744 337.418 167.493 342.016 170.018Z" fill="black"/>
<path d="M357.298 144.889C361.692 147.301 361.881 154.817 357.724 161.654C353.566 168.491 346.618 172.087 342.224 169.674C337.831 167.261 337.641 159.746 341.799 152.909C345.957 146.072 352.912 142.48 357.298 144.889ZM357.717 144.2C352.918 141.565 345.468 145.289 341.076 152.511C336.683 159.734 337.007 167.727 341.806 170.363C346.605 172.998 354.055 169.274 358.447 162.052C362.84 154.829 362.516 146.836 357.717 144.2Z" fill="black"/>
<path d="M301.886 132.854C304.653 134.373 308.583 132.831 310.664 129.408C312.746 125.986 312.19 121.98 309.424 120.46C306.657 118.941 302.727 120.484 300.645 123.906C298.564 127.328 299.119 131.335 301.886 132.854Z" fill="white"/>
<path d="M351.877 160.281C354.643 161.8 358.574 160.257 360.655 156.835C362.736 153.413 362.181 149.407 359.414 147.887C356.648 146.368 352.717 147.91 350.636 151.333C348.555 154.755 349.11 158.761 351.877 160.281Z" fill="white"/>
<path d="M306.002 90.2141C315.229 90.8351 323.605 95.4573 328.787 102.738C330.59 105.268 334.972 102.912 333.158 100.367C326.904 91.5764 317.135 86.1792 305.985 85.4318C302.767 85.2108 302.791 89.9971 306.002 90.2141Z" fill="black"/>
<path d="M358.167 118.833C367.393 119.454 375.769 124.077 380.952 131.357C382.755 133.887 387.136 131.532 385.323 128.987C379.069 120.196 369.3 114.799 358.15 114.051C354.931 113.83 354.955 118.616 358.167 118.833Z" fill="black"/>
<path d="M291.665 198.845C254.251 178.318 234.41 144.419 247.348 123.125" stroke="black" stroke-width="3" stroke-miterlimit="10"/>
<path d="M382.831 197.455C369.893 218.75 329.078 219.371 291.665 198.845" stroke="black" stroke-width="3" stroke-miterlimit="10"/>
<path d="M238.332 120.474L257.199 124.399" stroke="black" stroke-width="3" stroke-miterlimit="10"/>
<path d="M377.662 193.243L388.418 200.98" stroke="black" stroke-width="3" stroke-miterlimit="10"/>
</g>
<g clip-path="url(#clip1_4657_117)">
<path d="M140.518 272.017C148.158 269.574 150.94 257.966 146.734 246.09C142.527 234.214 132.924 226.568 125.285 229.011C117.646 231.455 114.863 243.063 119.07 254.938C123.276 266.814 132.879 274.461 140.518 272.017Z" fill="white"/>
<path d="M125.626 229.974C132.576 227.751 141.777 235.277 145.722 246.414C149.667 257.551 147.127 268.832 140.177 271.055C133.227 273.278 124.026 265.752 120.081 254.615C116.137 243.478 118.683 232.195 125.626 229.974ZM124.944 228.048C116.746 230.67 113.662 242.855 118.057 255.262C122.452 267.67 132.661 275.603 140.859 272.981C149.057 270.358 152.141 258.174 147.746 245.767C143.351 233.359 133.149 225.424 124.944 228.048Z" fill="black"/>
<path d="M187.12 257.136C194.759 254.693 197.542 243.085 193.335 231.209C189.129 219.333 179.526 211.687 171.887 214.13C164.248 216.573 161.465 228.181 165.671 240.057C169.878 251.933 179.481 259.58 187.12 257.136Z" fill="white"/>
<path d="M172.228 215.093C179.178 212.87 188.379 220.396 192.324 231.533C196.268 242.67 193.729 253.951 186.779 256.174C179.829 258.397 170.628 250.871 166.683 239.734C162.738 228.597 165.285 217.314 172.228 215.093ZM171.546 213.167C163.347 215.789 160.264 227.973 164.659 240.381C169.054 252.789 179.263 260.722 187.461 258.099C195.659 255.477 198.743 243.293 194.348 230.885C189.953 218.478 179.751 210.543 171.546 213.167Z" fill="black"/>
<path d="M136.654 261.106C140.939 259.735 142.53 253.308 140.207 246.749C137.884 240.191 132.527 235.986 128.241 237.356C123.956 238.727 122.365 245.155 124.688 251.713C127.011 258.271 132.368 262.477 136.654 261.106Z" fill="black"/>
<path d="M128.355 237.677C132.451 236.367 137.612 240.483 139.87 246.857C142.128 253.231 140.636 259.475 136.54 260.785C132.444 262.095 127.283 257.979 125.025 251.605C122.768 245.231 124.266 238.985 128.355 237.677ZM128.128 237.035C123.654 238.466 121.966 245.087 124.351 251.821C126.736 258.554 132.294 262.858 136.767 261.427C141.241 259.996 142.93 253.375 140.545 246.641C138.16 239.908 132.601 235.604 128.128 237.035Z" fill="black"/>
<path d="M183.256 246.225C187.541 244.854 189.132 238.426 186.809 231.868C184.486 225.309 179.129 221.104 174.844 222.475C170.558 223.845 168.967 230.273 171.29 236.831C173.613 243.39 178.97 247.595 183.256 246.225Z" fill="black"/>
<path d="M174.957 222.795C179.053 221.485 184.214 225.601 186.472 231.975C188.73 238.349 187.238 244.593 183.142 245.903C179.046 247.213 173.885 243.097 171.627 236.723C169.37 230.349 170.868 224.103 174.957 222.795ZM174.73 222.153C170.256 223.584 168.568 230.206 170.953 236.939C173.338 243.673 178.896 247.976 183.37 246.545C187.843 245.114 189.532 238.493 187.147 231.76C184.762 225.026 179.203 220.723 174.73 222.153Z" fill="black"/>
<path d="M129.356 250.935C131.935 250.11 133.109 246.855 131.979 243.664C130.849 240.473 127.842 238.555 125.263 239.38C122.684 240.205 121.509 243.46 122.639 246.651C123.769 249.842 126.777 251.76 129.356 250.935Z" fill="white"/>
<path d="M175.504 234.77C178.083 233.945 179.257 230.689 178.127 227.499C176.997 224.308 173.99 222.39 171.411 223.215C168.832 224.04 167.657 227.295 168.787 230.486C169.917 233.677 172.924 235.595 175.504 234.77Z" fill="white"/>
<path d="M112.803 221.326C113.934 217.419 115.951 213.401 120.069 211.702C123.905 210.123 128.21 211.114 131.902 212.602C134.43 213.626 136.34 209.985 133.797 208.96C128.881 206.968 123.245 205.867 118.181 208.033C112.849 210.313 110.098 215.376 108.615 220.497C107.883 223.03 112.07 223.837 112.803 221.326Z" fill="black"/>
<path d="M161.961 201.597C172.681 202.743 183.716 201.345 193.691 197.426C196.219 196.438 194.868 192.563 192.321 193.565C183.063 197.196 172.802 198.677 162.824 197.608C160.103 197.311 159.224 201.298 161.961 201.597Z" fill="black"/>
<path d="M177.41 297.729C142.532 308.866 108.571 301.804 101.551 281.954" stroke="black" stroke-width="3" stroke-miterlimit="10"/>
<path d="M227.849 241.623C234.869 261.474 212.287 286.592 177.41 297.729" stroke="black" stroke-width="3" stroke-miterlimit="10"/>
<path d="M94.6893 285.931L107.959 276.693" stroke="black" stroke-width="3" stroke-miterlimit="10"/>
<path d="M222.105 242.386L233.367 240.219" stroke="black" stroke-width="3" stroke-miterlimit="10"/>
</g>
<g clip-path="url(#clip2_4657_117)">
<path d="M307.064 344.191C315.145 349.585 329.219 343.777 338.5 331.22C347.781 318.663 348.755 304.111 340.674 298.718C332.594 293.325 318.519 299.133 309.238 311.69C299.957 324.247 298.984 338.798 307.064 344.191Z" fill="white"/>
<path d="M339.922 299.737C347.273 304.643 346.133 318.73 337.43 330.506C328.726 342.281 315.168 348.08 307.817 343.174C300.465 338.267 301.605 324.18 310.308 312.404C319.012 300.629 332.577 294.835 339.922 299.737ZM341.426 297.7C332.755 291.913 317.864 297.856 308.167 310.975C298.47 324.095 297.64 339.422 306.312 345.21C314.983 350.997 329.874 345.054 339.571 331.935C349.268 318.815 350.105 303.493 341.426 297.7Z" fill="black"/>
<path d="M356.348 377.062C364.428 382.455 378.502 376.647 387.783 364.09C397.065 351.533 398.038 336.982 389.957 331.589C381.877 326.196 367.802 332.003 358.521 344.56C349.24 357.117 348.267 371.669 356.348 377.062Z" fill="white"/>
<path d="M389.205 332.607C396.556 337.513 395.416 351.601 386.713 363.376C378.009 375.152 364.451 380.95 357.1 376.044C349.748 371.138 350.888 357.05 359.592 345.275C368.295 333.499 381.861 327.705 389.205 332.607ZM390.71 330.571C382.038 324.783 367.147 330.726 357.45 343.846C347.754 356.965 346.923 372.292 355.595 378.08C364.267 383.868 379.157 377.925 388.854 364.805C398.551 351.686 399.388 336.363 390.71 330.571Z" fill="black"/>
<path d="M323.462 327.772C327.995 330.798 335.825 327.629 340.95 320.694C346.075 313.76 346.556 305.686 342.023 302.66C337.49 299.635 329.66 302.804 324.535 309.738C319.409 316.673 318.929 324.747 323.462 327.772Z" fill="black"/>
<path d="M341.772 303C346.104 305.891 345.575 313.717 340.594 320.456C335.612 327.196 328.045 330.325 323.713 327.433C319.381 324.542 319.91 316.716 324.892 309.977C329.873 303.237 337.447 300.113 341.772 303ZM342.274 302.321C337.542 299.163 329.44 302.381 324.178 309.5C318.916 316.62 318.479 324.954 323.211 328.112C327.943 331.27 336.045 328.052 341.307 320.933C346.569 313.813 347.006 305.479 342.274 302.321Z" fill="black"/>
<path d="M373.459 361.118C377.992 364.144 385.822 360.975 390.947 354.04C396.073 347.106 396.553 339.032 392.02 336.006C387.487 332.981 379.657 336.15 374.532 343.084C369.406 350.019 368.926 358.093 373.459 361.118Z" fill="black"/>
<path d="M391.769 336.346C396.101 339.237 395.572 347.063 390.591 353.802C385.609 360.542 378.042 363.671 373.71 360.779C369.378 357.888 369.907 350.062 374.889 343.323C379.87 336.583 387.444 333.459 391.769 336.346ZM392.271 335.667C387.539 332.509 379.437 335.727 374.175 342.846C368.913 349.966 368.477 358.3 373.209 361.458C377.94 364.616 386.042 361.398 391.304 354.279C396.566 347.159 397.003 338.825 392.271 335.667Z" fill="black"/>
<path d="M321.032 324.63C323.153 326.045 326.445 325.066 328.384 322.442C330.323 319.818 330.176 316.543 328.055 315.127C325.935 313.712 322.643 314.692 320.704 317.316C318.764 319.94 318.911 323.214 321.032 324.63Z" fill="white"/>
<path d="M371.243 359.131C373.363 360.547 376.655 359.567 378.594 356.943C380.534 354.319 380.387 351.045 378.266 349.629C376.145 348.214 372.854 349.193 370.914 351.817C368.975 354.441 369.122 357.716 371.243 359.131Z" fill="white"/>
<path d="M333.48 279.432C343.476 279.771 352.365 284.305 358.252 291.974C360.241 294.562 364.28 291.379 362.305 288.801C355.645 280.129 345.224 274.855 333.928 274.471C330.567 274.359 330.094 279.323 333.48 279.432Z" fill="black"/>
<path d="M391.572 313.111C400.992 316.335 407.95 323.277 411.102 332.265C412.171 335.304 416.926 333.2 415.868 330.189C412.287 319.98 403.969 312.049 393.34 308.413C390.172 307.333 388.39 312.021 391.572 313.111Z" fill="black"/>
<path d="M307.836 390.795C270.952 366.195 253.622 329.238 269.127 308.245" stroke="black" stroke-width="3" stroke-miterlimit="10"/>
<path d="M402.692 397.328C387.186 418.32 344.72 415.395 307.836 390.795" stroke="black" stroke-width="3" stroke-miterlimit="10"/>
<path d="M260.017 304.702L279.24 310.431" stroke="black" stroke-width="3" stroke-miterlimit="10"/>
<path d="M397.729 392.498L408.155 401.478" stroke="black" stroke-width="3" stroke-miterlimit="10"/>
<path d="M325.784 283.759C325.059 284.856 323.42 287.653 323.411 291.548C323.405 294.948 324.639 297.463 325.301 298.603" stroke="black" stroke-width="2" stroke-miterlimit="10"/>
<path d="M328.634 286.136C328.304 286.959 327.558 289.066 327.554 292.001C327.55 294.561 328.112 296.456 328.408 297.312" stroke="black" stroke-width="2" stroke-miterlimit="10"/>
<path d="M333.07 289.469C332.717 290.034 331.92 291.488 331.917 293.513C331.916 295.275 332.515 296.586 332.837 297.175" stroke="black" stroke-width="2" stroke-miterlimit="10"/>
<path d="M410.502 339.25C409.663 340.271 407.453 342.687 403.601 344.018C400.238 345.179 397.33 344.931 395.977 344.728" stroke="black" stroke-width="2" stroke-miterlimit="10"/>
<path d="M407.181 337.511C406.479 338.086 404.648 339.469 401.745 340.47C399.212 341.344 397.146 341.485 396.199 341.512" stroke="black" stroke-width="2" stroke-miterlimit="10"/>
<path d="M402.375 334.68C401.936 335.188 400.768 336.394 398.765 337.085C397.021 337.685 395.52 337.595 394.828 337.508" stroke="black" stroke-width="2" stroke-miterlimit="10"/>
<path d="M308.982 393.506C312.18 391.073 311.353 385.043 307.135 380.038C302.918 375.034 296.906 372.949 293.709 375.383C290.511 377.816 291.338 383.846 295.556 388.85C299.773 393.855 305.785 395.94 308.982 393.506Z" fill="black" stroke="black" stroke-width="3" stroke-miterlimit="10"/>
<path d="M305.505 396.838C312.013 401.179 317.851 403.938 318.543 403.001C319.235 402.064 314.52 397.785 308.011 393.444C301.502 389.103 295.665 386.344 294.973 387.281C294.281 388.218 298.996 392.497 305.505 396.838Z" fill="black" stroke="black" stroke-width="3" stroke-miterlimit="10"/>
<path d="M316.134 402.755C322.277 405.407 328.63 404.684 330.324 401.14C332.019 397.596 328.413 392.573 322.27 389.922C316.127 387.27 309.774 387.993 308.08 391.537C306.385 395.081 309.992 400.104 316.134 402.755Z" fill="black" stroke="black" stroke-width="3" stroke-miterlimit="10"/>
</g>
<defs>
<clipPath id="clip0_4657_117">
<rect width="185.152" height="132.458" fill="white" transform="matrix(0.868152 0.496299 -0.50371 0.863873 272.708 41.0623)"/>
</clipPath>
<clipPath id="clip1_4657_117">
<rect width="147.086" height="122.812" fill="white" transform="matrix(0.948852 -0.315721 0.321378 0.946951 72 207.31)"/>
</clipPath>
<clipPath id="clip2_4657_117">
<rect width="186.726" height="139.407" fill="white" transform="matrix(0.821168 0.570687 -0.578294 0.815828 302.618 232)"/>
</clipPath>
</defs>
</svg>
