<svg width="170" height="219" viewBox="0 0 170 219" fill="none" xmlns="http://www.w3.org/2000/svg">
<g clip-path="url(#clip0_4660_119)">
<path d="M100.077 56.0075C102.959 57.6963 107.498 55.1904 110.216 50.4105C112.933 45.6305 112.8 40.3866 109.919 38.6979C107.037 37.0091 102.498 39.515 99.7804 44.2949C97.0627 49.0749 97.1956 54.3188 100.077 56.0075Z" fill="#FCFCFC"/>
<path d="M109.699 39.0845C112.32 40.6208 112.383 45.7033 109.835 50.1858C107.286 54.6682 102.92 57.1555 100.298 55.6192C97.6767 54.083 97.6142 49.0004 100.163 44.518C102.711 40.0355 107.08 37.5497 109.699 39.0845ZM110.14 38.3094C107.047 36.4972 102.238 39.0765 99.3991 44.0705C96.5598 49.0645 96.7652 54.5821 99.8577 56.3943C102.95 58.2065 107.759 55.6272 110.598 50.6332C113.437 45.6392 113.235 40.1231 110.14 38.3094Z" fill="#131313"/>
<path d="M117.633 66.2993C120.515 67.988 125.054 65.4821 127.771 60.7022C130.489 55.9223 130.356 50.6784 127.475 48.9896C124.593 47.3009 120.054 49.8068 117.336 54.5867C114.618 59.3666 114.751 64.6105 117.633 66.2993Z" fill="#FCFCFC"/>
<path d="M127.254 49.3767C129.875 50.913 129.938 55.9956 127.389 60.478C124.841 64.9605 120.475 67.4477 117.853 65.9115C115.231 64.3752 115.169 59.2927 117.717 54.8102C120.266 50.3277 124.635 47.842 127.254 49.3767ZM127.694 48.6017C124.602 46.7895 119.793 49.3687 116.954 54.3627C114.115 59.3567 114.32 64.8743 117.412 66.6865C120.505 68.4987 125.314 65.9195 128.153 60.9255C130.992 55.9315 130.789 50.4154 127.694 48.6017Z" fill="#131313"/>
<path d="M102.57 51.615C104.187 52.5623 106.714 51.1904 108.215 48.5507C109.715 45.911 109.622 43.0032 108.005 42.0559C106.389 41.1085 103.862 42.4804 102.361 45.1201C100.86 47.7598 100.954 50.6676 102.57 51.615Z" fill="#131313"/>
<path d="M107.933 42.185C109.478 43.0904 109.547 45.9106 108.088 48.4761C106.63 51.0415 104.19 52.391 102.645 51.4856C101.1 50.5802 101.03 47.76 102.489 45.1945C103.948 42.6291 106.39 41.2811 107.933 42.185ZM108.08 41.9266C106.392 40.9377 103.775 42.3353 102.234 45.0454C100.694 47.7555 100.81 50.755 102.498 51.744C104.185 52.7329 106.802 51.3353 108.343 48.6252C109.884 45.9151 109.767 42.9156 108.08 41.9266Z" fill="#131313"/>
<path d="M120.132 61.9077C121.748 62.855 124.275 61.4831 125.776 58.8434C127.277 56.2038 127.183 53.2959 125.567 52.3486C123.95 51.4013 121.423 52.7732 119.922 55.4128C118.421 58.0525 118.515 60.9603 120.132 61.9077Z" fill="#131313"/>
<path d="M125.493 52.478C127.038 53.3834 127.108 56.2036 125.649 58.769C124.19 61.3345 121.75 62.684 120.205 61.7786C118.66 60.8732 118.591 58.0529 120.05 55.4875C121.508 52.9221 123.951 51.574 125.493 52.478ZM125.64 52.2196C123.953 51.2307 121.336 52.6283 119.795 55.3384C118.254 58.0485 118.371 61.048 120.058 62.0369C121.746 63.0259 124.363 61.6283 125.903 58.9182C127.444 56.2081 127.328 53.2085 125.64 52.2196Z" fill="#131313"/>
<path d="M106.032 47.9607C107.005 48.5308 108.385 47.9519 109.115 46.6678C109.846 45.3836 109.649 43.8805 108.676 43.3105C107.704 42.7404 106.323 43.3193 105.593 44.6035C104.863 45.8876 105.06 47.3907 106.032 47.9607Z" fill="#FCFCFC"/>
<path d="M123.591 58.2527C124.564 58.8228 125.944 58.2439 126.674 56.9598C127.404 55.6756 127.208 54.1725 126.235 53.6025C125.262 53.0324 123.882 53.6113 123.152 54.8954C122.422 56.1796 122.618 57.6827 123.591 58.2527Z" fill="#FCFCFC"/>
<path d="M107.477 31.9598C110.716 32.195 113.66 33.927 115.486 36.6528C116.122 37.6 117.657 36.7199 117.018 35.7671C114.814 32.476 111.38 30.4535 107.466 30.1704C106.337 30.0867 106.35 31.8776 107.477 31.9598Z" fill="#131313"/>
<path d="M125.798 42.6995C129.037 42.9347 131.981 44.6668 133.808 47.3925C134.443 48.3397 135.978 47.4596 135.339 46.5069C133.135 43.2157 129.701 41.1933 125.788 40.9102C124.658 40.8265 124.671 42.6173 125.798 42.6995Z" fill="#131313"/>
<path d="M102.442 72.7246C89.3007 65.022 82.3318 52.3012 86.876 44.3103" stroke="#131313" stroke-width="1.61043" stroke-miterlimit="10"/>
<path d="M134.464 72.2031C129.92 80.194 115.584 80.427 102.443 72.7244" stroke="#131313" stroke-width="1.61043" stroke-miterlimit="10"/>
<path d="M83.7108 43.3151L90.3376 44.7881" stroke="#131313" stroke-width="1.61043" stroke-miterlimit="10"/>
<path d="M132.647 70.6223L136.425 73.5256" stroke="#131313" stroke-width="1.61043" stroke-miterlimit="10"/>
</g>
<g clip-path="url(#clip1_4660_119)">
<path d="M107.638 127.7C110.479 129.724 115.422 127.545 118.679 122.833C121.937 118.121 122.274 112.66 119.434 110.636C116.593 108.612 111.65 110.791 108.392 115.503C105.135 120.216 104.797 125.677 107.638 127.7Z" fill="#FCFCFC"/>
<path d="M119.167 111.018C121.751 112.859 121.355 118.146 118.3 122.565C115.246 126.984 110.484 129.16 107.899 127.319C105.315 125.477 105.711 120.191 108.766 115.772C111.82 111.353 116.585 109.179 119.167 111.018ZM119.695 110.254C116.646 108.082 111.416 110.312 108.013 115.236C104.61 120.159 104.323 125.911 107.371 128.083C110.42 130.255 115.65 128.024 119.053 123.101C122.456 118.178 122.746 112.428 119.695 110.254Z" fill="#131313"/>
<path d="M124.948 140.035C127.788 142.059 132.732 139.88 135.989 135.168C139.246 130.455 139.584 124.995 136.743 122.971C133.902 120.947 128.959 123.126 125.702 127.838C122.445 132.55 122.107 138.011 124.948 140.035Z" fill="#FCFCFC"/>
<path d="M136.478 123.352C139.062 125.193 138.666 130.48 135.612 134.899C132.557 139.318 127.795 141.494 125.211 139.653C122.627 137.811 123.023 132.525 126.077 128.106C129.132 123.687 133.896 121.513 136.478 123.352ZM137.006 122.588C133.958 120.416 128.728 122.646 125.325 127.57C121.921 132.493 121.634 138.245 124.683 140.417C127.731 142.589 132.961 140.358 136.364 135.435C139.767 130.512 140.057 124.762 137.006 122.588Z" fill="#131313"/>
<path d="M113.395 121.539C114.989 122.675 117.739 121.486 119.537 118.883C121.336 116.281 121.502 113.251 119.909 112.116C118.315 110.98 115.565 112.169 113.766 114.772C111.968 117.374 111.801 120.404 113.395 121.539Z" fill="#131313"/>
<path d="M119.821 112.243C121.344 113.328 121.16 116.264 119.412 118.794C117.664 121.323 115.006 122.497 113.483 121.412C111.96 120.327 112.144 117.39 113.892 114.861C115.64 112.332 118.301 111.159 119.821 112.243ZM119.997 111.988C118.334 110.803 115.488 112.01 113.641 114.682C111.794 117.354 111.644 120.481 113.307 121.666C114.971 122.852 117.816 121.644 119.663 118.972C121.51 116.301 121.661 113.173 119.997 111.988Z" fill="#131313"/>
<path d="M130.955 134.052C132.548 135.188 135.298 133.998 137.097 131.396C138.896 128.794 139.062 125.764 137.468 124.629C135.875 123.493 133.125 124.682 131.326 127.285C129.527 129.887 129.361 132.917 130.955 134.052Z" fill="#131313"/>
<path d="M137.382 124.756C138.905 125.841 138.721 128.778 136.973 131.307C135.224 133.836 132.567 135.01 131.044 133.925C129.521 132.84 129.705 129.903 131.453 127.374C133.201 124.845 135.861 123.673 137.382 124.756ZM137.558 124.501C135.894 123.316 133.049 124.523 131.202 127.195C129.355 129.867 129.204 132.994 130.868 134.18C132.531 135.365 135.377 134.157 137.224 131.486C139.07 128.814 139.221 125.686 137.558 124.501Z" fill="#131313"/>
<path d="M112.538 120.359C113.284 120.89 114.44 120.523 115.121 119.538C115.801 118.553 115.749 117.324 115.003 116.793C114.258 116.262 113.102 116.63 112.421 117.614C111.74 118.599 111.793 119.828 112.538 120.359Z" fill="#FCFCFC"/>
<path d="M130.174 133.306C130.92 133.837 132.076 133.47 132.756 132.485C133.437 131.5 133.384 130.271 132.639 129.74C131.893 129.209 130.737 129.577 130.057 130.561C129.376 131.546 129.429 132.775 130.174 133.306Z" fill="#FCFCFC"/>
<path d="M116.908 103.398C120.417 103.527 123.541 105.228 125.612 108.102C126.312 109.072 127.728 107.88 127.033 106.914C124.689 103.663 121.028 101.685 117.062 101.539C115.882 101.497 115.72 103.357 116.908 103.398Z" fill="#131313"/>
<path d="M137.315 116.039C140.624 117.248 143.071 119.851 144.183 123.22C144.56 124.359 146.228 123.571 145.855 122.443C144.591 118.616 141.666 115.642 137.932 114.278C136.819 113.873 136.197 115.63 137.315 116.039Z" fill="#131313"/>
<path d="M107.902 145.189C94.9476 135.957 88.8606 122.089 94.3066 114.211" stroke="#131313" stroke-width="1.61043" stroke-miterlimit="10"/>
<path d="M141.218 147.64C135.772 155.517 120.856 154.419 107.901 145.188" stroke="#131313" stroke-width="1.61043" stroke-miterlimit="10"/>
<path d="M91.1063 112.881L97.8579 115.031" stroke="#131313" stroke-width="1.61043" stroke-miterlimit="10"/>
<path d="M139.474 145.828L143.135 149.197" stroke="#131313" stroke-width="1.61043" stroke-miterlimit="10"/>
<path d="M114.203 105.023C113.949 105.435 113.373 106.484 113.37 107.946C113.368 109.221 113.801 110.165 114.033 110.593" stroke="#131313" stroke-width="1.07362" stroke-miterlimit="10"/>
<path d="M115.207 105.915C115.091 106.224 114.829 107.014 114.828 108.116C114.826 109.076 115.024 109.787 115.128 110.108" stroke="#131313" stroke-width="1.07362" stroke-miterlimit="10"/>
<path d="M116.766 107.166C116.642 107.378 116.362 107.924 116.361 108.683C116.36 109.345 116.571 109.837 116.684 110.058" stroke="#131313" stroke-width="1.07362" stroke-miterlimit="10"/>
<path d="M143.96 125.846C143.665 126.229 142.889 127.135 141.536 127.635C140.355 128.071 139.333 127.978 138.858 127.901" stroke="#131313" stroke-width="1.07362" stroke-miterlimit="10"/>
<path d="M142.797 125.194C142.551 125.41 141.907 125.928 140.888 126.304C139.998 126.632 139.272 126.685 138.94 126.695" stroke="#131313" stroke-width="1.07362" stroke-miterlimit="10"/>
<path d="M141.106 124.131C140.952 124.322 140.541 124.774 139.838 125.033C139.225 125.258 138.698 125.225 138.455 125.192" stroke="#131313" stroke-width="1.07362" stroke-miterlimit="10"/>
<path d="M108.304 146.206C109.427 145.293 109.137 143.031 107.656 141.153C106.174 139.275 104.063 138.492 102.94 139.405C101.817 140.319 102.107 142.581 103.589 144.459C105.07 146.337 107.181 147.12 108.304 146.206Z" fill="#131313" stroke="#131313" stroke-width="1.61043" stroke-miterlimit="10"/>
<path d="M107.084 147.456C109.37 149.085 111.42 150.12 111.664 149.769C111.907 149.417 110.251 147.811 107.964 146.182C105.678 144.553 103.628 143.518 103.385 143.869C103.142 144.221 104.798 145.827 107.084 147.456Z" fill="#131313" stroke="#131313" stroke-width="1.61043" stroke-miterlimit="10"/>
<path d="M110.817 149.677C112.975 150.672 115.206 150.401 115.801 149.071C116.396 147.741 115.129 145.856 112.972 144.861C110.814 143.866 108.583 144.137 107.988 145.467C107.393 146.797 108.659 148.682 110.817 149.677Z" fill="#131313" stroke="#131313" stroke-width="1.61043" stroke-miterlimit="10"/>
</g>
<g clip-path="url(#clip2_4660_119)">
<path d="M49.3525 100.181C52.0387 99.265 53.0212 94.9102 51.5468 90.4544C50.0725 85.9987 46.6996 83.1293 44.0133 84.0455C41.3271 84.9616 40.3446 89.3164 41.819 93.7722C43.2933 98.2279 46.6662 101.097 49.3525 100.181Z" fill="#FCFCFC"/>
<path d="M44.1316 84.4065C46.5753 83.5728 49.8072 86.3966 51.1902 90.5749C52.5732 94.7532 51.6768 98.9855 49.2331 99.8192C46.7894 100.653 43.5575 97.8291 42.1745 93.6508C40.7915 89.4725 41.6902 85.2394 44.1316 84.4065ZM43.8925 83.6841C41.0098 84.6675 39.9219 89.2385 41.4627 93.8936C43.0036 98.5487 46.5896 101.525 49.4722 100.542C52.3549 99.5582 53.4428 94.9872 51.902 90.3321C50.3612 85.677 46.7775 82.6998 43.8925 83.6841Z" fill="#131313"/>
<path d="M65.7206 94.5972C68.4069 93.681 69.3893 89.3262 67.915 84.8704C66.4406 80.4147 63.0678 77.5453 60.3815 78.4615C57.6952 79.3777 56.7128 83.7325 58.1871 88.1882C59.6615 92.644 63.0343 95.5133 65.7206 94.5972Z" fill="#FCFCFC"/>
<path d="M60.4998 78.8221C62.9435 77.9883 66.1754 80.8122 67.5584 84.9904C68.9414 89.1687 68.045 93.401 65.6013 94.2347C63.1575 95.0684 59.9257 92.2446 58.5427 88.0663C57.1597 83.8881 58.0584 79.655 60.4998 78.8221ZM60.2606 78.0996C57.378 79.0831 56.2901 83.6541 57.8309 88.3092C59.3717 92.9643 62.9578 95.9407 65.8404 94.9572C68.7231 93.9737 69.811 89.4027 68.2701 84.7476C66.7293 80.0925 63.1457 77.1153 60.2606 78.0996Z" fill="#131313"/>
<path d="M47.9942 96.0877C49.5011 95.5738 50.0628 93.1624 49.2486 90.7018C48.4345 88.2411 46.5529 86.663 45.0459 87.1769C43.539 87.6908 42.9774 90.1022 43.7915 92.5628C44.6057 95.0235 46.4873 96.6016 47.9942 96.0877Z" fill="#131313"/>
<path d="M45.085 87.2966C46.5251 86.8053 48.338 88.3496 49.1296 90.741C49.9211 93.1324 49.3947 95.4749 47.9546 95.9662C46.5144 96.4575 44.7015 94.9132 43.91 92.5218C43.1184 90.1304 43.6472 87.7871 45.085 87.2966ZM45.0053 87.0558C43.4323 87.5924 42.8365 90.0765 43.6727 92.6027C44.5089 95.129 46.4613 96.7437 48.0343 96.207C49.6073 95.6704 50.203 93.1863 49.3668 90.6601C48.5307 88.1338 46.5783 86.5191 45.0053 87.0558Z" fill="#131313"/>
<path d="M64.3673 90.503C65.8742 89.9891 66.4358 87.5777 65.6217 85.1171C64.8075 82.6564 62.9259 81.0783 61.419 81.5922C59.912 82.1061 59.3504 84.5175 60.1646 86.9781C60.9787 89.4388 62.8603 91.0169 64.3673 90.503Z" fill="#131313"/>
<path d="M61.458 81.7119C62.8982 81.2205 64.7111 82.7649 65.5026 85.1563C66.2942 87.5477 65.7678 89.8902 64.3276 90.3815C62.8875 90.8728 61.0745 89.3284 60.283 86.9371C59.4915 84.5457 60.0203 82.2024 61.458 81.7119ZM61.3783 81.471C59.8053 82.0077 59.2096 84.4918 60.0458 87.018C60.8819 89.5442 62.8343 91.159 64.4073 90.6223C65.9803 90.0856 66.5761 87.6016 65.7399 85.0753C64.9037 82.5491 62.9513 80.9344 61.3783 81.471Z" fill="#131313"/>
<path d="M45.4359 92.2705C46.3426 91.9611 46.7565 90.74 46.3603 89.543C45.9641 88.346 44.9079 87.6264 44.0011 87.9357C43.0944 88.2451 42.6806 89.4662 43.0768 90.6632C43.473 91.8602 44.5292 92.5798 45.4359 92.2705Z" fill="#FCFCFC"/>
<path d="M61.64 86.2043C62.5467 85.895 62.9606 84.6738 62.5644 83.4768C62.1682 82.2798 61.112 81.5602 60.2052 81.8696C59.2985 82.1789 58.8847 83.4001 59.2809 84.5971C59.6771 85.7941 60.7333 86.5137 61.64 86.2043Z" fill="#FCFCFC"/>
<path d="M39.6142 81.153C40.0144 79.69 40.7255 78.1853 42.1731 77.5494C43.5218 76.9579 45.0334 77.3292 46.3295 77.8866C47.2167 78.2699 47.8902 76.9066 46.9974 76.5225C45.272 75.7766 43.2926 75.364 41.5123 76.175C39.6379 77.0289 38.6681 78.9247 38.1439 80.8427C37.8849 81.7913 39.3552 82.0935 39.6142 81.153Z" fill="#131313"/>
<path d="M56.8834 73.7537C60.6473 74.1817 64.5239 73.6576 68.0302 72.1907C68.9189 71.8206 68.4471 70.3712 67.5521 70.7462C64.2979 72.1056 60.6929 72.6603 57.1894 72.2613C56.234 72.1506 55.9224 73.6421 56.8834 73.7537Z" fill="#131313"/>
<path d="M62.314 109.831C50.064 114.01 38.1355 111.36 35.6699 103.911" stroke="#131313" stroke-width="1.61043" stroke-miterlimit="10"/>
<path d="M80.0286 88.7771C82.4942 96.2262 74.5627 105.652 62.3127 109.831" stroke="#131313" stroke-width="1.61043" stroke-miterlimit="10"/>
<path d="M33.2582 105.404L37.919 101.938" stroke="#131313" stroke-width="1.61043" stroke-miterlimit="10"/>
<path d="M78.0107 89.063L81.9676 88.2508" stroke="#131313" stroke-width="1.61043" stroke-miterlimit="10"/>
</g>
<defs>
<clipPath id="clip0_4660_119">
<rect width="64.5681" height="50.1816" fill="white" transform="matrix(0.85655 0.516064 -0.484106 0.875009 95.7842 16.311)"/>
</clipPath>
<clipPath id="clip1_4660_119">
<rect width="66.5453" height="51.2167" fill="white" transform="matrix(0.80675 0.590893 -0.558095 0.829777 106.068 87.4172)"/>
</clipPath>
<clipPath id="clip2_4660_119">
<rect width="51.9456" height="45.4033" fill="white" transform="matrix(0.943659 -0.33092 0.306521 0.951864 25.291 77.8499)"/>
</clipPath>
</defs>
</svg>
