<svg aria-hidden="true" style="position: absolute; width: 0; height: 0; overflow: hidden;" version="1.1" xmlns="http://www.w3.org/2000/svg" xmlns:xlink="http://www.w3.org/1999/xlink">
<defs>
<symbol id="icon-smiley-face-pink" viewBox="0 0 34 32">
<path fill="#fff" style="fill: var(--color1, #fff)" d="M12.317 16.245c1.17 0.781 3.208-0.060 4.552-1.878s1.485-3.925 0.315-4.706c-1.17-0.781-3.208 0.060-4.552 1.878s-1.485 3.925-0.315 4.706z"></path>
<path fill="#000" style="fill: var(--color2, #000)" d="M17.075 9.808c1.064 0.71 0.899 2.75-0.361 4.455s-3.223 2.545-4.288 1.834c-1.064-0.711-0.899-2.75 0.361-4.455s3.224-2.544 4.288-1.834zM17.292 9.513c-1.256-0.838-3.412 0.023-4.816 1.922s-1.524 4.119-0.269 4.957c1.256 0.838 3.412-0.023 4.816-1.922s1.525-4.118 0.269-4.957z"></path>
<path fill="#fff" style="fill: var(--color1, #fff)" d="M19.453 21.004c1.17 0.781 3.208-0.060 4.552-1.878s1.485-3.925 0.315-4.706c-1.17-0.781-3.208 0.060-4.552 1.878s-1.485 3.925-0.315 4.706z"></path>
<path fill="#000" style="fill: var(--color2, #000)" d="M24.211 14.568c1.064 0.71 0.899 2.75-0.361 4.455s-3.223 2.545-4.288 1.834c-1.065-0.71-0.899-2.75 0.361-4.455s3.224-2.544 4.288-1.834zM24.429 14.273c-1.256-0.838-3.412 0.022-4.816 1.922s-1.524 4.119-0.269 4.957 3.412-0.022 4.816-1.922c1.404-1.9 1.525-4.118 0.269-4.957zM14.691 13.867c0.656 0.438 1.79-0.021 2.532-1.025s0.812-2.173 0.155-2.611c-0.656-0.438-1.79 0.021-2.532 1.025s-0.812 2.173-0.155 2.611z"></path>
<path fill="#000" style="fill: var(--color2, #000)" d="M17.343 10.281c0.627 0.419 0.551 1.552-0.171 2.528s-1.817 1.429-2.444 1.010-0.551-1.552 0.171-2.528c0.721-0.976 1.818-1.428 2.444-1.010zM17.415 10.182c-0.685-0.457-1.858 0.009-2.62 1.040s-0.825 2.238-0.14 2.695c0.685 0.457 1.858-0.009 2.62-1.040s0.825-2.238 0.14-2.695zM21.931 18.696c0.656 0.438 1.79-0.021 2.532-1.025s0.812-2.173 0.155-2.611c-0.656-0.438-1.79 0.021-2.532 1.025s-0.812 2.173-0.155 2.611z"></path>
<path fill="#000" style="fill: var(--color2, #000)" d="M24.582 15.109c0.627 0.419 0.551 1.552-0.171 2.528s-1.817 1.429-2.444 1.010c-0.627-0.419-0.551-1.552 0.171-2.528s1.818-1.428 2.444-1.010zM24.655 15.011c-0.685-0.457-1.858 0.009-2.62 1.039s-0.825 2.238-0.14 2.695c0.685 0.457 1.858-0.009 2.62-1.040s0.825-2.238 0.14-2.695z"></path>
<path fill="#fff" style="fill: var(--color1, #fff)" d="M14.339 13.412c0.307 0.205 0.784 0.063 1.065-0.317s0.259-0.854-0.048-1.059c-0.307-0.205-0.784-0.063-1.064 0.317s-0.26 0.854 0.047 1.059zM21.61 18.408c0.307 0.205 0.784 0.063 1.064-0.317s0.26-0.854-0.047-1.059c-0.307-0.205-0.784-0.063-1.065 0.317s-0.259 0.854 0.048 1.059z"></path>
<path fill="#000" style="fill: var(--color2, #000)" d="M16.142 6.868c1.447 0.049 2.734 0.706 3.587 1.816 0.288 0.375 0.873-0.086 0.587-0.459-0.964-1.256-2.473-2.019-4.109-2.075-0.487-0.016-0.555 0.703-0.065 0.718zM24.553 11.744c1.364 0.467 2.371 1.472 2.828 2.774 0.155 0.44 0.843 0.135 0.69-0.301-0.519-1.478-1.723-2.627-3.262-3.153-0.459-0.156-0.717 0.522-0.256 0.68z"></path>
<path fill="none" stroke="#000" style="stroke: var(--color2, #000)" stroke-linejoin="miter" stroke-linecap="butt" stroke-miterlimit="10" stroke-width="0.4344" d="M12.429 22.993c-5.341-3.562-7.85-8.913-5.605-11.953M26.164 23.939c-2.245 3.040-8.394 2.616-13.735-0.946M5.505 10.527l2.783 0.829M25.445 23.24l1.51 1.3"></path>
<path fill="#000" style="fill: var(--color2, #000); stroke: var(--color2, #000)" stroke="#000" stroke-linejoin="miter" stroke-linecap="butt" stroke-miterlimit="10" stroke-width="0.4344" d="M12.595 23.385c0.463-0.352 0.343-1.225-0.267-1.95s-1.481-1.026-1.944-0.674c-0.463 0.352-0.343 1.225 0.267 1.95s1.481 1.027 1.944 0.674z"></path>
<path fill="#000" style="fill: var(--color2, #000); stroke: var(--color2, #000)" stroke="#000" stroke-linejoin="miter" stroke-linecap="butt" stroke-miterlimit="10" stroke-width="0.4344" d="M12.091 23.868c0.942 0.629 1.788 1.028 1.888 0.892s-0.583-0.755-1.525-1.384-1.788-1.028-1.888-0.892c-0.1 0.136 0.583 0.755 1.525 1.384z"></path>
<path fill="#000" style="fill: var(--color2, #000); stroke: var(--color2, #000)" stroke="#000" stroke-linejoin="miter" stroke-linecap="butt" stroke-miterlimit="10" stroke-width="0.4344" d="M13.63 24.725c0.889 0.384 1.809 0.279 2.055-0.234s-0.277-1.24-1.166-1.624c-0.889-0.384-1.809-0.279-2.055 0.234s0.277 1.24 1.166 1.624z"></path>
</symbol>
<symbol id="icon-smiley-face-orange" viewBox="0 0 35 32">
<path fill="#fff" style="fill: var(--color1, #fff)" d="M13.369 21.857c1.491-0.477 2.034-2.742 1.213-5.059s-2.695-3.809-4.185-3.332c-1.491 0.477-2.034 2.742-1.213 5.059s2.695 3.809 4.185 3.332z"></path>
<path fill="#000" style="fill: var(--color2, #000)" d="M10.464 13.653c1.356-0.434 3.151 1.035 3.921 3.208s0.274 4.374-1.082 4.808c-1.356 0.434-3.151-1.035-3.921-3.208s-0.273-4.375 1.082-4.808zM10.331 13.278c-1.6 0.512-2.201 2.889-1.344 5.31s2.85 3.969 4.449 3.457c1.6-0.512 2.201-2.889 1.344-5.31s-2.848-3.969-4.449-3.457z"></path>
<path fill="#fff" style="fill: var(--color1, #fff)" d="M22.462 18.953c1.491-0.477 2.034-2.742 1.213-5.059s-2.694-3.809-4.185-3.332c-1.491 0.477-2.034 2.742-1.213 5.059s2.695 3.809 4.185 3.333z"></path>
<path fill="#000" style="fill: var(--color2, #000)" d="M19.557 10.75c1.356-0.434 3.151 1.035 3.921 3.208s0.274 4.374-1.082 4.808c-1.356 0.434-3.151-1.035-3.921-3.208s-0.273-4.375 1.082-4.808zM19.424 10.374c-1.6 0.512-2.201 2.889-1.344 5.31s2.85 3.969 4.449 3.457c1.6-0.512 2.201-2.889 1.344-5.31s-2.848-3.969-4.449-3.457zM12.615 19.728c0.836-0.267 1.147-1.522 0.693-2.801s-1.499-2.1-2.335-1.833c-0.836 0.268-1.147 1.522-0.693 2.801s1.499 2.1 2.335 1.833z"></path>
<path fill="#000" style="fill: var(--color2, #000)" d="M10.996 15.156c0.799-0.256 1.806 0.547 2.247 1.791s0.149 2.462-0.65 2.718c-0.799 0.256-1.806-0.547-2.247-1.791s-0.148-2.462 0.65-2.718zM10.952 15.031c-0.873 0.279-1.202 1.571-0.737 2.885s1.55 2.154 2.423 1.874c0.873-0.279 1.203-1.571 0.737-2.885s-1.55-2.154-2.423-1.874zM21.709 16.824c0.836-0.267 1.147-1.522 0.693-2.801s-1.499-2.1-2.335-1.833c-0.836 0.267-1.147 1.522-0.693 2.801s1.499 2.1 2.335 1.833z"></path>
<path fill="#000" style="fill: var(--color2, #000)" d="M20.089 12.253c0.799-0.256 1.806 0.547 2.247 1.791s0.149 2.462-0.65 2.718c-0.799 0.256-1.806-0.547-2.247-1.791s-0.148-2.462 0.65-2.718zM20.045 12.127c-0.873 0.279-1.202 1.571-0.737 2.885s1.55 2.154 2.423 1.874c0.873-0.279 1.202-1.571 0.737-2.885s-1.55-2.154-2.423-1.875z"></path>
<path fill="#fff" style="fill: var(--color1, #fff)" d="M11.191 17.743c0.503-0.161 0.732-0.796 0.512-1.419s-0.807-0.997-1.31-0.836c-0.503 0.161-0.732 0.796-0.512 1.419s0.807 0.997 1.311 0.836zM20.196 14.589c0.503-0.161 0.732-0.796 0.512-1.419s-0.807-0.997-1.31-0.836c-0.503 0.161-0.733 0.796-0.512 1.419s0.807 0.997 1.311 0.836z"></path>
<path fill="#000" style="fill: var(--color2, #000)" d="M7.962 11.966c0.221-0.762 0.614-1.546 1.418-1.878 0.748-0.308 1.588-0.115 2.309 0.176 0.493 0.2 0.866-0.511 0.37-0.711-0.959-0.389-2.059-0.604-3.047-0.181-1.040 0.445-1.577 1.433-1.867 2.432-0.143 0.494 0.674 0.652 0.817 0.162zM17.553 8.117c2.092 0.224 4.245-0.049 6.191-0.814 0.493-0.193 0.23-0.949-0.267-0.754-1.806 0.708-3.809 0.997-5.756 0.789-0.531-0.058-0.702 0.72-0.168 0.778z"></path>
<path fill="none" stroke="#000" style="stroke: var(--color2, #000)" stroke-linejoin="miter" stroke-linecap="butt" stroke-miterlimit="10" stroke-width="0.5854" d="M20.568 26.874c-6.805 2.173-13.432 0.795-14.802-3.078M30.41 15.926c1.37 3.873-3.037 8.774-9.842 10.947M4.427 24.572l2.589-1.803M29.289 16.075l2.197-0.423"></path>
</symbol>
<symbol id="icon-smiley-face-green" viewBox="0 0 35 32">
<path fill="#fff" style="fill: var(--color1, #fff)" d="M12.353 17.514c1.267 0.696 3.265-0.337 4.462-2.306s1.142-4.129-0.125-4.825c-1.267-0.696-3.265 0.337-4.462 2.306s-1.142 4.13 0.125 4.825z"></path>
<path fill="#000" style="fill: var(--color2, #000)" d="M16.593 10.543c1.152 0.633 1.178 2.727 0.055 4.573s-3.045 2.871-4.197 2.238c-1.152-0.633-1.178-2.727-0.055-4.573s3.046-2.871 4.197-2.238zM16.787 10.224c-1.359-0.747-3.476 0.316-4.727 2.373s-1.163 4.331 0.196 5.077c1.359 0.747 3.476-0.316 4.727-2.373s1.165-4.33-0.196-5.077z"></path>
<path fill="#fff" style="fill: var(--color1, #fff)" d="M20.081 21.754c1.267 0.696 3.265-0.337 4.462-2.306s1.142-4.129-0.125-4.825c-1.267-0.696-3.265 0.337-4.462 2.306s-1.142 4.129 0.125 4.825z"></path>
<path fill="#000" style="fill: var(--color2, #000)" d="M24.321 14.783c1.152 0.633 1.178 2.727 0.055 4.573s-3.045 2.871-4.197 2.238c-1.152-0.633-1.178-2.727-0.055-4.573s3.046-2.871 4.197-2.238zM24.515 14.464c-1.36-0.747-3.476 0.316-4.727 2.373s-1.163 4.331 0.196 5.077c1.359 0.747 3.476-0.316 4.727-2.373s1.165-4.33-0.196-5.077zM13.453 15.705c0.711 0.39 1.823-0.175 2.484-1.262s0.621-2.285-0.089-2.676c-0.711-0.39-1.823 0.175-2.484 1.262s-0.621 2.285 0.089 2.676z"></path>
<path fill="#000" style="fill: var(--color2, #000)" d="M15.816 11.82c0.679 0.373 0.708 1.535 0.066 2.592s-1.717 1.613-2.396 1.24c-0.679-0.373-0.708-1.535-0.066-2.592s1.718-1.612 2.396-1.24zM15.88 11.714c-0.742-0.407-1.894 0.168-2.573 1.285s-0.629 2.352 0.113 2.76c0.742 0.408 1.894-0.168 2.573-1.285s0.629-2.352-0.113-2.76zM21.181 19.945c0.711 0.39 1.823-0.175 2.484-1.262s0.621-2.285-0.089-2.676c-0.711-0.39-1.823 0.175-2.484 1.262s-0.621 2.285 0.089 2.676z"></path>
<path fill="#000" style="fill: var(--color2, #000)" d="M23.544 16.060c0.679 0.373 0.708 1.535 0.066 2.592s-1.717 1.613-2.396 1.24c-0.679-0.373-0.708-1.535-0.066-2.592s1.718-1.612 2.396-1.24zM23.608 15.954c-0.742-0.407-1.894 0.168-2.573 1.285s-0.629 2.352 0.113 2.76c0.742 0.407 1.894-0.168 2.573-1.285s0.629-2.352-0.113-2.76z"></path>
<path fill="#fff" style="fill: var(--color1, #fff)" d="M14.978 14.2c0.428 0.235 1.035-0.004 1.357-0.533s0.236-1.148-0.192-1.383c-0.428-0.235-1.035 0.004-1.357 0.533s-0.236 1.148 0.192 1.383zM22.706 18.44c0.428 0.235 1.035-0.004 1.357-0.533s0.236-1.148-0.192-1.383c-0.428-0.235-1.035 0.004-1.357 0.533s-0.236 1.148 0.192 1.383z"></path>
<path fill="#000" style="fill: var(--color2, #000)" d="M15.614 7.608c1.426 0.096 2.721 0.811 3.522 1.936 0.279 0.391 0.956 0.027 0.676-0.366-0.967-1.359-2.477-2.193-4.201-2.309-0.497-0.034-0.494 0.706 0.003 0.739zM23.678 12.032c1.426 0.096 2.721 0.81 3.522 1.936 0.279 0.391 0.956 0.027 0.676-0.366-0.967-1.359-2.477-2.193-4.201-2.309-0.498-0.034-0.494 0.706 0.003 0.739z"></path>
<path fill="none" stroke="#000" style="stroke: var(--color2, #000)" stroke-linejoin="miter" stroke-linecap="butt" stroke-miterlimit="10" stroke-width="0.4638" d="M13.398 24.401c-5.784-3.173-8.851-8.414-6.851-11.706"></path>
<path fill="none" stroke="#000" style="stroke: var(--color2, #000)" stroke-linejoin="miter" stroke-linecap="butt" stroke-miterlimit="10" stroke-width="0.4638" d="M27.491 24.186c-2 3.292-8.31 3.388-14.093 0.215M5.153 12.286l2.917 0.607M26.692 23.535l1.663 1.196"></path>
</symbol>
<symbol id="icon-points-hero-tab" viewBox="0 0 361 32">
<path fill="#f8d24e" style="fill: var(--color3, #f8d24e)" d="M309.949 29.706c0 0.999-0.789 1.808-1.762 1.808s-1.762-0.809-1.762-1.808c0-0.999 0.789-1.808 1.762-1.808s1.762 0.809 1.762 1.808z"></path>
<path fill="#f8d24e" style="fill: var(--color3, #f8d24e)" d="M313.767 27.295c0 0.999-0.789 1.808-1.762 1.808s-1.762-0.809-1.762-1.808c0-0.999 0.789-1.808 1.762-1.808s1.762 0.809 1.762 1.808z"></path>
<path fill="#f8d24e" style="fill: var(--color3, #f8d24e)" d="M318.172 24.583c0 0.999-0.789 1.808-1.762 1.808s-1.762-0.809-1.762-1.808c0-0.999 0.789-1.808 1.762-1.808s1.762 0.809 1.762 1.808z"></path>
<path fill="#f8d24e" style="fill: var(--color3, #f8d24e)" d="M322.284 22.172c0 0.999-0.789 1.808-1.762 1.808s-1.762-0.809-1.762-1.808c0-0.999 0.789-1.808 1.762-1.808s1.762 0.809 1.762 1.808z"></path>
<path fill="#f8d24e" style="fill: var(--color3, #f8d24e)" d="M319.935 28.5c0 0.999-0.789 1.808-1.762 1.808s-1.762-0.809-1.762-1.808c0-0.999 0.789-1.808 1.762-1.808s1.762 0.809 1.762 1.808z"></path>
<path fill="#f8d24e" style="fill: var(--color3, #f8d24e)" d="M323.752 26.090c0 0.999-0.789 1.808-1.762 1.808s-1.762-0.809-1.762-1.808c0-0.999 0.789-1.808 1.762-1.808s1.762 0.809 1.762 1.808z"></path>
<path fill="#f8d24e" style="fill: var(--color3, #f8d24e)" d="M328.158 23.378c0 0.999-0.789 1.808-1.762 1.808s-1.762-0.809-1.762-1.808c0-0.999 0.789-1.808 1.762-1.808s1.762 0.809 1.762 1.808z"></path>
<path fill="#f8d24e" style="fill: var(--color3, #f8d24e)" d="M332.27 20.967c0 0.999-0.789 1.808-1.762 1.808s-1.762-0.809-1.762-1.808c0-0.999 0.789-1.808 1.762-1.808s1.762 0.809 1.762 1.808z"></path>
<path fill="#f8d24e" style="fill: var(--color3, #f8d24e)" d="M328.452 27.596c0 0.999-0.789 1.808-1.762 1.808s-1.762-0.809-1.762-1.808c0-0.999 0.789-1.808 1.762-1.808s1.762 0.809 1.762 1.808z"></path>
<path fill="#f8d24e" style="fill: var(--color3, #f8d24e)" d="M332.27 25.185c0 0.999-0.789 1.808-1.762 1.808s-1.762-0.809-1.762-1.808c0-0.999 0.789-1.808 1.762-1.808s1.762 0.809 1.762 1.808z"></path>
<path fill="#f8d24e" style="fill: var(--color3, #f8d24e)" d="M336.675 22.473c0 0.999-0.789 1.808-1.762 1.808s-1.762-0.809-1.762-1.808c0-0.999 0.789-1.808 1.762-1.808s1.762 0.809 1.762 1.808z"></path>
<path fill="#f8d24e" style="fill: var(--color3, #f8d24e)" d="M340.786 20.063c0 0.999-0.789 1.808-1.762 1.808s-1.762-0.809-1.762-1.808c0-0.999 0.789-1.808 1.762-1.808s1.762 0.809 1.762 1.808z"></path>
<path fill="#f8d24e" style="fill: var(--color3, #f8d24e)" d="M336.675 26.391c0 0.999-0.789 1.808-1.762 1.808s-1.762-0.809-1.762-1.808c0-0.999 0.789-1.808 1.762-1.808s1.762 0.809 1.762 1.808z"></path>
<path fill="#f8d24e" style="fill: var(--color3, #f8d24e)" d="M340.493 23.98c0 0.999-0.789 1.808-1.762 1.808s-1.762-0.809-1.762-1.808c0-0.999 0.789-1.808 1.762-1.808s1.762 0.809 1.762 1.808z"></path>
<path fill="#f8d24e" style="fill: var(--color3, #f8d24e)" d="M344.898 21.268c0 0.999-0.789 1.808-1.762 1.808s-1.762-0.809-1.762-1.808c0-0.999 0.789-1.808 1.762-1.808s1.762 0.809 1.762 1.808z"></path>
<path fill="#f8d24e" style="fill: var(--color3, #f8d24e)" d="M349.010 18.858c0 0.999-0.789 1.808-1.762 1.808s-1.762-0.809-1.762-1.808c0-0.999 0.789-1.808 1.762-1.808s1.762 0.809 1.762 1.808z"></path>
<path fill="#f8d24e" style="fill: var(--color3, #f8d24e)" d="M339.318 29.706c0 0.999-0.789 1.808-1.762 1.808s-1.762-0.809-1.762-1.808c0-0.999 0.789-1.808 1.762-1.808s1.762 0.809 1.762 1.808z"></path>
<path fill="#f8d24e" style="fill: var(--color3, #f8d24e)" d="M343.136 27.295c0 0.999-0.789 1.808-1.762 1.808s-1.762-0.809-1.762-1.808c0-0.999 0.789-1.808 1.762-1.808s1.762 0.809 1.762 1.808z"></path>
<path fill="#f8d24e" style="fill: var(--color3, #f8d24e)" d="M348.422 30.007c0 0.999-0.789 1.808-1.762 1.808s-1.762-0.809-1.762-1.808c0-0.999 0.789-1.808 1.762-1.808s1.762 0.809 1.762 1.808z"></path>
<path fill="#f8d24e" style="fill: var(--color3, #f8d24e)" d="M347.541 24.583c0 0.999-0.789 1.808-1.762 1.808s-1.762-0.809-1.762-1.808c0-0.999 0.789-1.808 1.762-1.808s1.762 0.809 1.762 1.808z"></path>
<path fill="#f8d24e" style="fill: var(--color3, #f8d24e)" d="M352.828 27.295c0 0.999-0.789 1.808-1.762 1.808s-1.762-0.809-1.762-1.808c0-0.999 0.789-1.808 1.762-1.808s1.762 0.809 1.762 1.808z"></path>
<path fill="#f8d24e" style="fill: var(--color3, #f8d24e)" d="M356.939 30.007c0 0.999-0.789 1.808-1.762 1.808s-1.762-0.809-1.762-1.808c0-0.999 0.789-1.808 1.762-1.808s1.762 0.809 1.762 1.808z"></path>
<path fill="#f8d24e" style="fill: var(--color3, #f8d24e)" d="M351.653 22.172c0 0.999-0.789 1.808-1.762 1.808s-1.762-0.809-1.762-1.808c0-0.999 0.789-1.808 1.762-1.808s1.762 0.809 1.762 1.808z"></path>
<path fill="#f8d24e" style="fill: var(--color3, #f8d24e)" d="M356.939 24.884c0 0.999-0.789 1.808-1.762 1.808s-1.762-0.809-1.762-1.808c0-0.999 0.789-1.808 1.762-1.808s1.762 0.809 1.762 1.808z"></path>
<path fill="#f8d24e" style="fill: var(--color3, #f8d24e)" d="M361.051 27.596c0 0.999-0.789 1.808-1.762 1.808s-1.762-0.809-1.762-1.808c0-0.999 0.789-1.808 1.762-1.808s1.762 0.809 1.762 1.808z"></path>
<path fill="#f8d24e" style="fill: var(--color3, #f8d24e)" d="M292.034 9.818c0 0.999-0.789 1.808-1.762 1.808s-1.762-0.809-1.762-1.808c0-0.999 0.789-1.808 1.762-1.808s1.762 0.809 1.762 1.808z"></path>
<path fill="#f8d24e" style="fill: var(--color3, #f8d24e)" d="M295.852 7.408c0 0.999-0.789 1.808-1.762 1.808s-1.762-0.809-1.762-1.808c0-0.999 0.789-1.808 1.762-1.808s1.762 0.809 1.762 1.808z"></path>
<path fill="#f8d24e" style="fill: var(--color3, #f8d24e)" d="M300.258 4.696c0 0.999-0.789 1.808-1.762 1.808s-1.762-0.809-1.762-1.808c0-0.999 0.789-1.808 1.762-1.808s1.762 0.809 1.762 1.808z"></path>
<path fill="#f8d24e" style="fill: var(--color3, #f8d24e)" d="M304.368 2.285c0 0.999-0.789 1.808-1.762 1.808s-1.762-0.809-1.762-1.808c0-0.999 0.789-1.808 1.762-1.808s1.762 0.809 1.762 1.808z"></path>
<path fill="#f8d24e" style="fill: var(--color3, #f8d24e)" d="M284.692 9.516c0 0.999-0.789 1.808-1.762 1.808s-1.762-0.809-1.762-1.808c0-0.999 0.789-1.808 1.762-1.808s1.762 0.809 1.762 1.808z"></path>
<path fill="#f8d24e" style="fill: var(--color3, #f8d24e)" d="M288.51 7.106c0 0.999-0.789 1.808-1.762 1.808s-1.762-0.809-1.762-1.808c0-0.999 0.789-1.808 1.762-1.808s1.762 0.809 1.762 1.808z"></path>
<path fill="#f8d24e" style="fill: var(--color3, #f8d24e)" d="M292.915 4.394c0 0.999-0.789 1.808-1.762 1.808s-1.762-0.809-1.762-1.808c0-0.999 0.789-1.808 1.762-1.808s1.762 0.809 1.762 1.808z"></path>
<path fill="#f8d24e" style="fill: var(--color3, #f8d24e)" d="M297.027 1.984c0 0.999-0.789 1.808-1.762 1.808s-1.762-0.809-1.762-1.808c0-0.999 0.789-1.808 1.762-1.808s1.762 0.809 1.762 1.808z"></path>
<path fill="#f8d24e" style="fill: var(--color3, #f8d24e)" d="M301.139 29.706c0 0.999-0.789 1.808-1.762 1.808s-1.762-0.809-1.762-1.808c0-0.999 0.789-1.808 1.762-1.808s1.762 0.809 1.762 1.808z"></path>
<path fill="#f8d24e" style="fill: var(--color3, #f8d24e)" d="M304.956 27.295c0 0.999-0.789 1.808-1.762 1.808s-1.762-0.809-1.762-1.808c0-0.999 0.789-1.808 1.762-1.808s1.762 0.809 1.762 1.808z"></path>
<path fill="#f8d24e" style="fill: var(--color3, #f8d24e)" d="M309.362 24.583c0 0.999-0.789 1.808-1.762 1.808s-1.762-0.809-1.762-1.808c0-0.999 0.789-1.808 1.762-1.808s1.762 0.809 1.762 1.808z"></path>
<path fill="#f8d24e" style="fill: var(--color3, #f8d24e)" d="M313.474 22.172c0 0.999-0.789 1.808-1.762 1.808s-1.762-0.809-1.762-1.808c0-0.999 0.789-1.808 1.762-1.808s1.762 0.809 1.762 1.808z"></path>
<path fill="#f8d24e" style="fill: var(--color3, #f8d24e)" d="M296.44 27.898c0 0.999-0.789 1.808-1.762 1.808s-1.762-0.809-1.762-1.808c0-0.999 0.789-1.808 1.762-1.808s1.762 0.809 1.762 1.808z"></path>
<path fill="#f8d24e" style="fill: var(--color3, #f8d24e)" d="M300.258 25.487c0 0.999-0.789 1.808-1.762 1.808s-1.762-0.809-1.762-1.808c0-0.999 0.789-1.808 1.762-1.808s1.762 0.809 1.762 1.808z"></path>
<path fill="#f8d24e" style="fill: var(--color3, #f8d24e)" d="M304.663 22.775c0 0.999-0.789 1.808-1.762 1.808s-1.762-0.809-1.762-1.808c0-0.999 0.789-1.808 1.762-1.808s1.762 0.809 1.762 1.808z"></path>
<path fill="#f8d24e" style="fill: var(--color3, #f8d24e)" d="M308.775 20.365c0 0.999-0.789 1.808-1.762 1.808s-1.762-0.809-1.762-1.808c0-0.999 0.789-1.808 1.762-1.808s1.762 0.809 1.762 1.808z"></path>
<path fill="#f8d24e" style="fill: var(--color3, #f8d24e)" d="M298.201 21.57c0 0.999-0.789 1.808-1.762 1.808s-1.762-0.809-1.762-1.808c0-0.999 0.789-1.808 1.762-1.808s1.762 0.809 1.762 1.808z"></path>
<path fill="#f8d24e" style="fill: var(--color3, #f8d24e)" d="M302.019 19.16c0 0.999-0.789 1.808-1.762 1.808s-1.762-0.809-1.762-1.808c0-0.999 0.789-1.808 1.762-1.808s1.762 0.809 1.762 1.808z"></path>
<path fill="#f8d24e" style="fill: var(--color3, #f8d24e)" d="M306.425 16.447c0 0.999-0.789 1.808-1.762 1.808s-1.762-0.809-1.762-1.808c0-0.999 0.789-1.808 1.762-1.808s1.762 0.809 1.762 1.808z"></path>
<path fill="#f8d24e" style="fill: var(--color3, #f8d24e)" d="M310.536 14.037c0 0.999-0.789 1.808-1.762 1.808s-1.762-0.809-1.762-1.808c0-0.999 0.789-1.808 1.762-1.808s1.762 0.809 1.762 1.808z"></path>
<path fill="#f8d24e" style="fill: var(--color3, #f8d24e)" d="M298.201 11.024c0 0.999-0.789 1.808-1.762 1.808s-1.762-0.809-1.762-1.808c0-0.999 0.789-1.808 1.762-1.808s1.762 0.809 1.762 1.808z"></path>
<path fill="#f8d24e" style="fill: var(--color3, #f8d24e)" d="M302.019 8.613c0 0.999-0.789 1.808-1.762 1.808s-1.762-0.809-1.762-1.808c0-0.999 0.789-1.808 1.762-1.808s1.762 0.809 1.762 1.808z"></path>
<path fill="#f8d24e" style="fill: var(--color3, #f8d24e)" d="M306.425 5.901c0 0.999-0.789 1.808-1.762 1.808s-1.762-0.809-1.762-1.808c0-0.999 0.789-1.808 1.762-1.808s1.762 0.809 1.762 1.808z"></path>
<path fill="#f8d24e" style="fill: var(--color3, #f8d24e)" d="M310.536 3.49c0 0.999-0.789 1.808-1.762 1.808s-1.762-0.809-1.762-1.808c0-0.999 0.789-1.808 1.762-1.808s1.762 0.809 1.762 1.808z"></path>
<path fill="#f8d24e" style="fill: var(--color3, #f8d24e)" d="M297.321 16.749c0 0.999-0.789 1.808-1.762 1.808s-1.762-0.809-1.762-1.808c0-0.999 0.789-1.808 1.762-1.808s1.762 0.809 1.762 1.808z"></path>
<path fill="#f8d24e" style="fill: var(--color3, #f8d24e)" d="M301.139 14.338c0 0.999-0.789 1.808-1.762 1.808s-1.762-0.809-1.762-1.808c0-0.999 0.789-1.808 1.762-1.808s1.762 0.809 1.762 1.808z"></path>
<path fill="#f8d24e" style="fill: var(--color3, #f8d24e)" d="M305.544 11.626c0 0.999-0.789 1.808-1.762 1.808s-1.762-0.809-1.762-1.808c0-0.999 0.789-1.808 1.762-1.808s1.762 0.809 1.762 1.808z"></path>
<path fill="#f8d24e" style="fill: var(--color3, #f8d24e)" d="M309.656 9.216c0 0.999-0.789 1.808-1.762 1.808s-1.762-0.809-1.762-1.808c0-0.999 0.789-1.808 1.762-1.808s1.762 0.809 1.762 1.808z"></path>
<path fill="#f8d24e" style="fill: var(--color3, #f8d24e)" d="M278.819 8.010c0 0.999-0.789 1.808-1.762 1.808s-1.762-0.809-1.762-1.808c0-0.999 0.789-1.808 1.762-1.808s1.762 0.809 1.762 1.808z"></path>
<path fill="#f8d24e" style="fill: var(--color3, #f8d24e)" d="M282.637 5.6c0 0.999-0.789 1.808-1.762 1.808s-1.762-0.809-1.762-1.808c0-0.999 0.789-1.808 1.762-1.808s1.762 0.809 1.762 1.808z"></path>
<path fill="#f8d24e" style="fill: var(--color3, #f8d24e)" d="M287.042 2.888c0 0.999-0.789 1.808-1.762 1.808s-1.762-0.809-1.762-1.808c0-0.999 0.789-1.808 1.762-1.808s1.762 0.809 1.762 1.808z"></path>
<path fill="#f8d24e" style="fill: var(--color3, #f8d24e)" d="M284.986 9.818c0.973 0 1.762-0.809 1.762-1.808s-0.789-1.808-1.762-1.808-1.762 0.809-1.762 1.808 0.789 1.808 1.762 1.808z"></path>
<path fill="#f8d24e" style="fill: var(--color3, #f8d24e)" d="M3.525 28.466c0 0.999-0.789 1.808-1.762 1.808s-1.762-0.809-1.762-1.808c0-0.999 0.789-1.808 1.762-1.808s1.762 0.809 1.762 1.808z"></path>
<path fill="#f8d24e" style="fill: var(--color3, #f8d24e)" d="M7.342 26.055c0 0.999-0.789 1.808-1.762 1.808s-1.762-0.809-1.762-1.808c0-0.999 0.789-1.808 1.762-1.808s1.762 0.809 1.762 1.808z"></path>
<path fill="#f8d24e" style="fill: var(--color3, #f8d24e)" d="M11.748 23.344c0 0.999-0.789 1.808-1.762 1.808s-1.762-0.809-1.762-1.808c0-0.999 0.789-1.808 1.762-1.808s1.762 0.809 1.762 1.808z"></path>
<path fill="#f8d24e" style="fill: var(--color3, #f8d24e)" d="M15.859 20.933c0 0.999-0.789 1.808-1.762 1.808s-1.762-0.809-1.762-1.808c0-0.999 0.789-1.808 1.762-1.808s1.762 0.809 1.762 1.808z"></path>
<path fill="#f8d24e" style="fill: var(--color3, #f8d24e)" d="M25.845 29.37c0 0.999-0.789 1.808-1.762 1.808s-1.762-0.809-1.762-1.808c0-0.999 0.789-1.808 1.762-1.808s1.762 0.809 1.762 1.808z"></path>
<path fill="#f8d24e" style="fill: var(--color3, #f8d24e)" d="M29.663 26.959c0 0.999-0.789 1.808-1.762 1.808s-1.762-0.809-1.762-1.808c0-0.999 0.789-1.808 1.762-1.808s1.762 0.809 1.762 1.808z"></path>
<path fill="#f8d24e" style="fill: var(--color3, #f8d24e)" d="M34.068 24.248c0 0.999-0.789 1.808-1.762 1.808s-1.762-0.809-1.762-1.808c0-0.999 0.789-1.808 1.762-1.808s1.762 0.809 1.762 1.808z"></path>
<path fill="#f8d24e" style="fill: var(--color3, #f8d24e)" d="M38.179 21.837c0 0.999-0.789 1.808-1.762 1.808s-1.762-0.809-1.762-1.808c0-0.999 0.789-1.808 1.762-1.808s1.762 0.809 1.762 1.808z"></path>
<path fill="#f8d24e" style="fill: var(--color3, #f8d24e)" d="M34.949 28.164c0 0.999-0.789 1.808-1.762 1.808s-1.762-0.809-1.762-1.808c0-0.999 0.789-1.808 1.762-1.808s1.762 0.809 1.762 1.808z"></path>
<path fill="#f8d24e" style="fill: var(--color3, #f8d24e)" d="M38.767 25.754c0 0.999-0.789 1.808-1.762 1.808s-1.762-0.809-1.762-1.808c0-0.999 0.789-1.808 1.762-1.808s1.762 0.809 1.762 1.808z"></path>
<path fill="#f8d24e" style="fill: var(--color3, #f8d24e)" d="M43.172 23.042c0 0.999-0.789 1.808-1.762 1.808s-1.762-0.809-1.762-1.808c0-0.999 0.789-1.808 1.762-1.808s1.762 0.809 1.762 1.808z"></path>
<path fill="#f8d24e" style="fill: var(--color3, #f8d24e)" d="M47.284 20.631c0 0.999-0.789 1.808-1.762 1.808s-1.762-0.809-1.762-1.808c0-0.999 0.789-1.808 1.762-1.808s1.762 0.809 1.762 1.808z"></path>
<path fill="#f8d24e" style="fill: var(--color3, #f8d24e)" d="M51.689 17.016c0 0.999-0.789 1.808-1.762 1.808s-1.762-0.809-1.762-1.808c0-0.999 0.789-1.808 1.762-1.808s1.762 0.809 1.762 1.808z"></path>
<path fill="#f8d24e" style="fill: var(--color3, #f8d24e)" d="M42.291 19.125c0 0.999-0.789 1.808-1.762 1.808s-1.762-0.809-1.762-1.808c0-0.999 0.789-1.808 1.762-1.808s1.762 0.809 1.762 1.808z"></path>
<path fill="#f8d24e" style="fill: var(--color3, #f8d24e)" d="M17.622 29.069c0 0.999-0.789 1.808-1.762 1.808s-1.762-0.809-1.762-1.808c0-0.999 0.789-1.808 1.762-1.808s1.762 0.809 1.762 1.808z"></path>
<path fill="#f8d24e" style="fill: var(--color3, #f8d24e)" d="M21.44 26.658c0 0.999-0.789 1.808-1.762 1.808s-1.762-0.809-1.762-1.808c0-0.999 0.789-1.808 1.762-1.808s1.762 0.809 1.762 1.808z"></path>
<path fill="#f8d24e" style="fill: var(--color3, #f8d24e)" d="M25.845 23.946c0 0.999-0.789 1.808-1.762 1.808s-1.762-0.809-1.762-1.808c0-0.999 0.789-1.808 1.762-1.808s1.762 0.809 1.762 1.808z"></path>
<path fill="#f8d24e" style="fill: var(--color3, #f8d24e)" d="M29.956 21.536c0 0.999-0.789 1.808-1.762 1.808s-1.762-0.809-1.762-1.808c0-0.999 0.789-1.808 1.762-1.808s1.762 0.809 1.762 1.808z"></path>
<path fill="#f8d24e" style="fill: var(--color3, #f8d24e)" d="M10.28 28.767c0 0.999-0.789 1.808-1.762 1.808s-1.762-0.809-1.762-1.808c0-0.999 0.789-1.808 1.762-1.808s1.762 0.809 1.762 1.808z"></path>
<path fill="#f8d24e" style="fill: var(--color3, #f8d24e)" d="M14.097 26.356c0 0.999-0.789 1.808-1.762 1.808s-1.762-0.809-1.762-1.808c0-0.999 0.789-1.808 1.762-1.808s1.762 0.809 1.762 1.808z"></path>
<path fill="#f8d24e" style="fill: var(--color3, #f8d24e)" d="M18.503 23.645c0 0.999-0.789 1.808-1.762 1.808s-1.762-0.809-1.762-1.808c0-0.999 0.789-1.808 1.762-1.808s1.762 0.809 1.762 1.808z"></path>
<path fill="#f8d24e" style="fill: var(--color3, #f8d24e)" d="M22.614 21.234c0 0.999-0.789 1.808-1.762 1.808s-1.762-0.809-1.762-1.808c0-0.999 0.789-1.808 1.762-1.808s1.762 0.809 1.762 1.808z"></path>
</symbol>
<symbol id="icon-points-hero-mob" viewBox="0 0 205 32">
<path fill="#f8d24e" style="fill: var(--color3, #f8d24e)" d="M155.332 29.617c0 0.982-0.764 1.779-1.706 1.779s-1.706-0.796-1.706-1.779c0-0.982 0.764-1.779 1.706-1.779s1.706 0.796 1.706 1.779z"></path>
<path fill="#f8d24e" style="fill: var(--color3, #f8d24e)" d="M159.029 27.245c0 0.982-0.764 1.779-1.706 1.779s-1.706-0.796-1.706-1.779c0-0.982 0.764-1.779 1.706-1.779s1.706 0.796 1.706 1.779z"></path>
<path fill="#f8d24e" style="fill: var(--color3, #f8d24e)" d="M163.292 24.578c0 0.982-0.764 1.779-1.706 1.779s-1.706-0.796-1.706-1.779c0-0.982 0.764-1.779 1.706-1.779s1.706 0.796 1.706 1.779z"></path>
<path fill="#f8d24e" style="fill: var(--color3, #f8d24e)" d="M167.273 22.207c0 0.982-0.764 1.779-1.706 1.779s-1.706-0.796-1.706-1.779c0-0.982 0.764-1.779 1.706-1.779s1.706 0.796 1.706 1.779z"></path>
<path fill="#f8d24e" style="fill: var(--color3, #f8d24e)" d="M164.998 28.431c0 0.982-0.764 1.779-1.706 1.779s-1.706-0.796-1.706-1.779c0-0.982 0.764-1.779 1.706-1.779s1.706 0.796 1.706 1.779z"></path>
<path fill="#f8d24e" style="fill: var(--color3, #f8d24e)" d="M168.694 26.060c0 0.982-0.764 1.779-1.706 1.779s-1.706-0.796-1.706-1.779c0-0.982 0.764-1.779 1.706-1.779s1.706 0.796 1.706 1.779z"></path>
<path fill="#f8d24e" style="fill: var(--color3, #f8d24e)" d="M172.957 23.392c0 0.982-0.764 1.779-1.706 1.779s-1.706-0.796-1.706-1.779c0-0.982 0.764-1.779 1.706-1.779s1.706 0.796 1.706 1.779z"></path>
<path fill="#f8d24e" style="fill: var(--color3, #f8d24e)" d="M176.939 21.021c0 0.982-0.764 1.779-1.706 1.779s-1.706-0.796-1.706-1.779c0-0.982 0.764-1.779 1.706-1.779s1.706 0.796 1.706 1.779z"></path>
<path fill="#f8d24e" style="fill: var(--color3, #f8d24e)" d="M173.243 27.542c0 0.982-0.764 1.779-1.706 1.779s-1.706-0.796-1.706-1.779c0-0.982 0.764-1.779 1.706-1.779s1.706 0.796 1.706 1.779z"></path>
<path fill="#f8d24e" style="fill: var(--color3, #f8d24e)" d="M176.94 25.171c0 0.982-0.764 1.779-1.706 1.779s-1.706-0.796-1.706-1.779c0-0.982 0.764-1.779 1.706-1.779s1.706 0.796 1.706 1.779z"></path>
<path fill="#f8d24e" style="fill: var(--color3, #f8d24e)" d="M181.204 22.503c0 0.982-0.764 1.779-1.706 1.779s-1.706-0.796-1.706-1.779c0-0.982 0.764-1.779 1.706-1.779s1.706 0.796 1.706 1.779z"></path>
<path fill="#f8d24e" style="fill: var(--color3, #f8d24e)" d="M185.183 20.132c0 0.982-0.764 1.779-1.706 1.779s-1.706-0.796-1.706-1.779c0-0.982 0.764-1.779 1.706-1.779s1.706 0.796 1.706 1.779z"></path>
<path fill="#f8d24e" style="fill: var(--color3, #f8d24e)" d="M181.203 26.356c0 0.982-0.764 1.779-1.706 1.779s-1.706-0.796-1.706-1.779c0-0.982 0.764-1.779 1.706-1.779s1.706 0.796 1.706 1.779z"></path>
<path fill="#f8d24e" style="fill: var(--color3, #f8d24e)" d="M184.897 23.985c0 0.982-0.764 1.779-1.706 1.779s-1.706-0.796-1.706-1.779c0-0.982 0.764-1.779 1.706-1.779s1.706 0.796 1.706 1.779z"></path>
<path fill="#f8d24e" style="fill: var(--color3, #f8d24e)" d="M189.162 21.318c0 0.982-0.764 1.779-1.706 1.779s-1.706-0.796-1.706-1.779c0-0.982 0.764-1.779 1.706-1.779s1.706 0.796 1.706 1.779z"></path>
<path fill="#f8d24e" style="fill: var(--color3, #f8d24e)" d="M193.142 18.947c0 0.982-0.764 1.779-1.706 1.779s-1.706-0.796-1.706-1.779c0-0.982 0.764-1.779 1.706-1.779s1.706 0.796 1.706 1.779z"></path>
<path fill="#f8d24e" style="fill: var(--color3, #f8d24e)" d="M183.762 29.617c0 0.982-0.764 1.779-1.706 1.779s-1.706-0.796-1.706-1.779c0-0.982 0.764-1.779 1.706-1.779s1.706 0.796 1.706 1.779z"></path>
<path fill="#f8d24e" style="fill: var(--color3, #f8d24e)" d="M187.458 27.245c0 0.982-0.764 1.779-1.706 1.779s-1.706-0.796-1.706-1.779c0-0.982 0.764-1.779 1.706-1.779s1.706 0.796 1.706 1.779z"></path>
<path fill="#f8d24e" style="fill: var(--color3, #f8d24e)" d="M192.575 29.913c0 0.982-0.764 1.779-1.706 1.779s-1.706-0.796-1.706-1.779c0-0.982 0.764-1.779 1.706-1.779s1.706 0.796 1.706 1.779z"></path>
<path fill="#f8d24e" style="fill: var(--color3, #f8d24e)" d="M191.723 24.578c0 0.982-0.764 1.779-1.706 1.779s-1.706-0.796-1.706-1.779c0-0.982 0.764-1.779 1.706-1.779s1.706 0.796 1.706 1.779z"></path>
<path fill="#f8d24e" style="fill: var(--color3, #f8d24e)" d="M196.84 27.245c0 0.982-0.764 1.779-1.706 1.779s-1.706-0.796-1.706-1.779c0-0.982 0.764-1.779 1.706-1.779s1.706 0.796 1.706 1.779z"></path>
<path fill="#f8d24e" style="fill: var(--color3, #f8d24e)" d="M200.82 29.913c0 0.982-0.764 1.779-1.706 1.779s-1.706-0.796-1.706-1.779c0-0.982 0.764-1.779 1.706-1.779s1.706 0.796 1.706 1.779z"></path>
<path fill="#f8d24e" style="fill: var(--color3, #f8d24e)" d="M195.702 22.207c0 0.982-0.764 1.779-1.706 1.779s-1.706-0.796-1.706-1.779c0-0.982 0.764-1.779 1.706-1.779s1.706 0.796 1.706 1.779z"></path>
<path fill="#f8d24e" style="fill: var(--color3, #f8d24e)" d="M200.82 24.874c0 0.982-0.764 1.779-1.706 1.779s-1.706-0.796-1.706-1.779c0-0.982 0.764-1.779 1.706-1.779s1.706 0.796 1.706 1.779z"></path>
<path fill="#f8d24e" style="fill: var(--color3, #f8d24e)" d="M204.8 27.542c0 0.982-0.764 1.779-1.706 1.779s-1.706-0.796-1.706-1.779c0-0.982 0.764-1.779 1.706-1.779s1.706 0.796 1.706 1.779z"></path>
<path fill="#f8d24e" style="fill: var(--color3, #f8d24e)" d="M137.992 10.055c0 0.982-0.764 1.779-1.706 1.779s-1.706-0.796-1.706-1.779c0-0.982 0.764-1.779 1.706-1.779s1.706 0.796 1.706 1.779z"></path>
<path fill="#f8d24e" style="fill: var(--color3, #f8d24e)" d="M141.688 7.684c0 0.982-0.764 1.779-1.706 1.779s-1.706-0.796-1.706-1.779c0-0.982 0.764-1.779 1.706-1.779s1.706 0.796 1.706 1.779z"></path>
<path fill="#f8d24e" style="fill: var(--color3, #f8d24e)" d="M145.953 5.016c0 0.982-0.764 1.779-1.706 1.779s-1.706-0.796-1.706-1.779c0-0.982 0.764-1.779 1.706-1.779s1.706 0.796 1.706 1.779z"></path>
<path fill="#f8d24e" style="fill: var(--color3, #f8d24e)" d="M149.932 2.645c0 0.982-0.764 1.779-1.706 1.779s-1.706-0.796-1.706-1.779c0-0.982 0.764-1.779 1.706-1.779s1.706 0.796 1.706 1.779z"></path>
<path fill="#f8d24e" style="fill: var(--color3, #f8d24e)" d="M130.884 9.758c0 0.982-0.764 1.779-1.706 1.779s-1.706-0.796-1.706-1.779c0-0.982 0.764-1.779 1.706-1.779s1.706 0.796 1.706 1.779z"></path>
<path fill="#f8d24e" style="fill: var(--color3, #f8d24e)" d="M134.579 7.387c0 0.982-0.764 1.779-1.706 1.779s-1.706-0.796-1.706-1.779c0-0.982 0.764-1.779 1.706-1.779s1.706 0.796 1.706 1.779z"></path>
<path fill="#f8d24e" style="fill: var(--color3, #f8d24e)" d="M138.844 4.72c0 0.982-0.764 1.779-1.706 1.779s-1.706-0.796-1.706-1.779c0-0.982 0.764-1.779 1.706-1.779s1.706 0.796 1.706 1.779z"></path>
<path fill="#f8d24e" style="fill: var(--color3, #f8d24e)" d="M142.824 2.349c0 0.982-0.764 1.779-1.706 1.779s-1.706-0.796-1.706-1.779c0-0.982 0.764-1.779 1.706-1.779s1.706 0.796 1.706 1.779z"></path>
<path fill="#f8d24e" style="fill: var(--color3, #f8d24e)" d="M146.804 29.617c0 0.982-0.764 1.779-1.706 1.779s-1.706-0.796-1.706-1.779c0-0.982 0.764-1.779 1.706-1.779s1.706 0.796 1.706 1.779z"></path>
<path fill="#f8d24e" style="fill: var(--color3, #f8d24e)" d="M150.499 27.245c0 0.982-0.764 1.779-1.706 1.779s-1.706-0.796-1.706-1.779c0-0.982 0.764-1.779 1.706-1.779s1.706 0.796 1.706 1.779z"></path>
<path fill="#f8d24e" style="fill: var(--color3, #f8d24e)" d="M154.763 24.578c0 0.982-0.764 1.779-1.706 1.779s-1.706-0.796-1.706-1.779c0-0.982 0.764-1.779 1.706-1.779s1.706 0.796 1.706 1.779z"></path>
<path fill="#f8d24e" style="fill: var(--color3, #f8d24e)" d="M158.744 22.207c0 0.982-0.764 1.779-1.706 1.779s-1.706-0.796-1.706-1.779c0-0.982 0.764-1.779 1.706-1.779s1.706 0.796 1.706 1.779z"></path>
<path fill="#f8d24e" style="fill: var(--color3, #f8d24e)" d="M142.256 27.839c0 0.982-0.764 1.779-1.706 1.779s-1.706-0.796-1.706-1.779c0-0.982 0.764-1.779 1.706-1.779s1.706 0.796 1.706 1.779z"></path>
<path fill="#f8d24e" style="fill: var(--color3, #f8d24e)" d="M145.951 25.468c0 0.982-0.764 1.779-1.706 1.779s-1.706-0.796-1.706-1.779c0-0.982 0.764-1.779 1.706-1.779s1.706 0.796 1.706 1.779z"></path>
<path fill="#f8d24e" style="fill: var(--color3, #f8d24e)" d="M150.215 22.799c0 0.982-0.764 1.779-1.706 1.779s-1.706-0.796-1.706-1.779c0-0.982 0.764-1.779 1.706-1.779s1.706 0.796 1.706 1.779z"></path>
<path fill="#f8d24e" style="fill: var(--color3, #f8d24e)" d="M154.196 20.429c0 0.982-0.764 1.779-1.706 1.779s-1.706-0.796-1.706-1.779c0-0.982 0.764-1.779 1.706-1.779s1.706 0.796 1.706 1.779z"></path>
<path fill="#f8d24e" style="fill: var(--color3, #f8d24e)" d="M143.962 21.614c0 0.982-0.764 1.779-1.706 1.779s-1.706-0.796-1.706-1.779c0-0.982 0.764-1.779 1.706-1.779s1.706 0.796 1.706 1.779z"></path>
<path fill="#f8d24e" style="fill: var(--color3, #f8d24e)" d="M147.656 19.243c0 0.982-0.764 1.779-1.706 1.779s-1.706-0.796-1.706-1.779c0-0.982 0.764-1.779 1.706-1.779s1.706 0.796 1.706 1.779z"></path>
<path fill="#f8d24e" style="fill: var(--color3, #f8d24e)" d="M151.922 16.575c0 0.982-0.764 1.779-1.706 1.779s-1.706-0.796-1.706-1.779c0-0.982 0.764-1.779 1.706-1.779s1.706 0.796 1.706 1.779z"></path>
<path fill="#f8d24e" style="fill: var(--color3, #f8d24e)" d="M155.901 14.204c0 0.982-0.764 1.779-1.706 1.779s-1.706-0.796-1.706-1.779c0-0.982 0.764-1.779 1.706-1.779s1.706 0.796 1.706 1.779z"></path>
<path fill="#f8d24e" style="fill: var(--color3, #f8d24e)" d="M143.962 11.24c0 0.982-0.764 1.779-1.706 1.779s-1.706-0.796-1.706-1.779c0-0.982 0.764-1.779 1.706-1.779s1.706 0.796 1.706 1.779z"></path>
<path fill="#f8d24e" style="fill: var(--color3, #f8d24e)" d="M147.656 8.869c0 0.982-0.764 1.779-1.706 1.779s-1.706-0.796-1.706-1.779c0-0.982 0.764-1.779 1.706-1.779s1.706 0.796 1.706 1.779z"></path>
<path fill="#f8d24e" style="fill: var(--color3, #f8d24e)" d="M151.922 6.202c0 0.982-0.764 1.779-1.706 1.779s-1.706-0.796-1.706-1.779c0-0.982 0.764-1.779 1.706-1.779s1.706 0.796 1.706 1.779z"></path>
<path fill="#f8d24e" style="fill: var(--color3, #f8d24e)" d="M155.901 3.83c0 0.982-0.764 1.779-1.706 1.779s-1.706-0.796-1.706-1.779c0-0.982 0.764-1.779 1.706-1.779s1.706 0.796 1.706 1.779z"></path>
<path fill="#f8d24e" style="fill: var(--color3, #f8d24e)" d="M143.108 16.872c0 0.982-0.764 1.779-1.706 1.779s-1.706-0.796-1.706-1.779c0-0.982 0.764-1.779 1.706-1.779s1.706 0.796 1.706 1.779z"></path>
<path fill="#f8d24e" style="fill: var(--color3, #f8d24e)" d="M146.804 14.5c0 0.982-0.764 1.779-1.706 1.779s-1.706-0.796-1.706-1.779c0-0.982 0.764-1.779 1.706-1.779s1.706 0.796 1.706 1.779z"></path>
<path fill="#f8d24e" style="fill: var(--color3, #f8d24e)" d="M151.068 11.834c0 0.982-0.764 1.779-1.706 1.779s-1.706-0.796-1.706-1.779c0-0.982 0.764-1.779 1.706-1.779s1.706 0.796 1.706 1.779z"></path>
<path fill="#f8d24e" style="fill: var(--color3, #f8d24e)" d="M155.048 9.462c0 0.982-0.764 1.779-1.706 1.779s-1.706-0.796-1.706-1.779c0-0.982 0.764-1.779 1.706-1.779s1.706 0.796 1.706 1.779z"></path>
<path fill="#f8d24e" style="fill: var(--color3, #f8d24e)" d="M125.198 8.276c0 0.982-0.764 1.779-1.706 1.779s-1.706-0.796-1.706-1.779c0-0.982 0.764-1.779 1.706-1.779s1.706 0.796 1.706 1.779z"></path>
<path fill="#f8d24e" style="fill: var(--color3, #f8d24e)" d="M128.895 5.905c0 0.982-0.764 1.779-1.706 1.779s-1.706-0.796-1.706-1.779c0-0.982 0.764-1.779 1.706-1.779s1.706 0.796 1.706 1.779z"></path>
<path fill="#f8d24e" style="fill: var(--color3, #f8d24e)" d="M133.159 3.238c0 0.982-0.764 1.779-1.706 1.779s-1.706-0.796-1.706-1.779c0-0.982 0.764-1.779 1.706-1.779s1.706 0.796 1.706 1.779z"></path>
<path fill="#f8d24e" style="fill: var(--color3, #f8d24e)" d="M131.169 10.054c0.942 0 1.706-0.796 1.706-1.778s-0.764-1.779-1.706-1.779-1.706 0.796-1.706 1.779c0 0.982 0.764 1.778 1.706 1.778z"></path>
<path fill="#f8d24e" style="fill: var(--color3, #f8d24e)" d="M52.732 21.475c0.145 0.985-0.504 1.906-1.449 2.057s-1.828-0.525-1.973-1.51c-0.145-0.985 0.504-1.906 1.449-2.057s1.828 0.525 1.973 1.51z"></path>
<path fill="#f8d24e" style="fill: var(--color3, #f8d24e)" d="M56.090 18.504c0.145 0.985-0.504 1.906-1.449 2.057s-1.828-0.525-1.973-1.51c-0.145-0.985 0.504-1.906 1.449-2.057s1.828 0.525 1.973 1.51z"></path>
<path fill="#f8d24e" style="fill: var(--color3, #f8d24e)" d="M59.974 15.144c0.145 0.985-0.504 1.906-1.449 2.057s-1.828-0.525-1.973-1.51c-0.145-0.985 0.504-1.906 1.449-2.057s1.828 0.525 1.973 1.51z"></path>
<path fill="#f8d24e" style="fill: var(--color3, #f8d24e)" d="M63.617 12.128c0.145 0.985-0.504 1.906-1.449 2.057s-1.828-0.525-1.973-1.51c-0.145-0.985 0.504-1.906 1.449-2.057s1.828 0.525 1.973 1.51z"></path>
<path fill="#f8d24e" style="fill: var(--color3, #f8d24e)" d="M2.132 19.067c0 0.997-0.779 1.805-1.741 1.805s-1.741-0.808-1.741-1.805c0-0.997 0.779-1.805 1.741-1.805s1.741 0.808 1.741 1.805z"></path>
<path fill="#f8d24e" style="fill: var(--color3, #f8d24e)" d="M6.485 16.36c0 0.997-0.779 1.805-1.741 1.805s-1.741-0.808-1.741-1.805c0-0.997 0.779-1.805 1.741-1.805s1.741 0.808 1.741 1.805z"></path>
<path fill="#f8d24e" style="fill: var(--color3, #f8d24e)" d="M10.546 13.953c0 0.997-0.779 1.805-1.741 1.805s-1.741-0.808-1.741-1.805c0-0.997 0.779-1.805 1.741-1.805s1.741 0.808 1.741 1.805z"></path>
<path fill="#f8d24e" style="fill: var(--color3, #f8d24e)" d="M0.102 25.984c0 0.997-0.779 1.805-1.741 1.805s-1.741-0.808-1.741-1.805c0-0.997 0.779-1.805 1.741-1.805s1.741 0.808 1.741 1.805z"></path>
<path fill="#f8d24e" style="fill: var(--color3, #f8d24e)" d="M3.874 23.578c0 0.997-0.779 1.805-1.741 1.805s-1.741-0.808-1.741-1.805c0-0.997 0.779-1.805 1.741-1.805s1.741 0.808 1.741 1.805z"></path>
<path fill="#f8d24e" style="fill: var(--color3, #f8d24e)" d="M8.227 20.871c0 0.997-0.779 1.805-1.741 1.805s-1.741-0.808-1.741-1.805c0-0.997 0.779-1.805 1.741-1.805s1.741 0.808 1.741 1.805z"></path>
<path fill="#f8d24e" style="fill: var(--color3, #f8d24e)" d="M12.287 18.465c0 0.997-0.779 1.805-1.741 1.805s-1.741-0.808-1.741-1.805c0-0.997 0.779-1.805 1.741-1.805s1.741 0.808 1.741 1.805z"></path>
<path fill="#f8d24e" style="fill: var(--color3, #f8d24e)" d="M4.453 28.39c0 0.997-0.779 1.805-1.741 1.805s-1.741-0.808-1.741-1.805c0-0.997 0.779-1.805 1.741-1.805s1.741 0.808 1.741 1.805z"></path>
<path fill="#f8d24e" style="fill: var(--color3, #f8d24e)" d="M8.225 25.984c0 0.997-0.779 1.805-1.741 1.805s-1.741-0.808-1.741-1.805c0-0.997 0.779-1.805 1.741-1.805s1.741 0.808 1.741 1.805z"></path>
<path fill="#f8d24e" style="fill: var(--color3, #f8d24e)" d="M12.577 23.277c0 0.997-0.779 1.805-1.741 1.805s-1.741-0.808-1.741-1.805c0-0.997 0.779-1.805 1.741-1.805s1.741 0.808 1.741 1.805z"></path>
<path fill="#f8d24e" style="fill: var(--color3, #f8d24e)" d="M16.637 20.871c0 0.997-0.779 1.805-1.741 1.805s-1.741-0.808-1.741-1.805c0-0.997 0.779-1.805 1.741-1.805s1.741 0.808 1.741 1.805z"></path>
<path fill="#f8d24e" style="fill: var(--color3, #f8d24e)" d="M9.384 29.895c0 0.997-0.779 1.805-1.741 1.805s-1.741-0.808-1.741-1.805c0-0.997 0.779-1.805 1.741-1.805s1.741 0.808 1.741 1.805z"></path>
<path fill="#f8d24e" style="fill: var(--color3, #f8d24e)" d="M13.156 27.488c0 0.997-0.779 1.805-1.741 1.805s-1.741-0.808-1.741-1.805c0-0.997 0.779-1.805 1.741-1.805s1.741 0.808 1.741 1.805z"></path>
<path fill="#f8d24e" style="fill: var(--color3, #f8d24e)" d="M17.509 24.781c0 0.997-0.779 1.805-1.741 1.805s-1.741-0.808-1.741-1.805c0-0.997 0.779-1.805 1.741-1.805s1.741 0.808 1.741 1.805z"></path>
<path fill="#f8d24e" style="fill: var(--color3, #f8d24e)" d="M21.569 22.375c0 0.997-0.779 1.805-1.741 1.805s-1.741-0.808-1.741-1.805c0-0.997 0.779-1.805 1.741-1.805s1.741 0.808 1.741 1.805z"></path>
<path fill="#f8d24e" style="fill: var(--color3, #f8d24e)" d="M15.768 30.196c0 0.997-0.779 1.805-1.741 1.805s-1.741-0.808-1.741-1.805c0-0.997 0.779-1.805 1.741-1.805s1.741 0.808 1.741 1.805z"></path>
<path fill="#f8d24e" style="fill: var(--color3, #f8d24e)" d="M19.539 27.789c0 0.997-0.779 1.805-1.741 1.805s-1.741-0.808-1.741-1.805c0-0.997 0.779-1.805 1.741-1.805s1.741 0.808 1.741 1.805z"></path>
<path fill="#f8d24e" style="fill: var(--color3, #f8d24e)" d="M23.891 25.082c0 0.997-0.779 1.805-1.741 1.805s-1.741-0.808-1.741-1.805c0-0.997 0.779-1.805 1.741-1.805s1.741 0.808 1.741 1.805z"></path>
<path fill="#f8d24e" style="fill: var(--color3, #f8d24e)" d="M27.952 22.676c0 0.997-0.779 1.805-1.741 1.805s-1.741-0.808-1.741-1.805c0-0.997 0.779-1.805 1.741-1.805s1.741 0.808 1.741 1.805z"></path>
<path fill="#f8d24e" style="fill: var(--color3, #f8d24e)" d="M23.311 30.195c0 0.997-0.779 1.805-1.741 1.805s-1.741-0.808-1.741-1.805c0-0.997 0.779-1.805 1.741-1.805s1.741 0.808 1.741 1.805z"></path>
<path fill="#f8d24e" style="fill: var(--color3, #f8d24e)" d="M27.082 27.789c0 0.997-0.779 1.805-1.741 1.805s-1.741-0.808-1.741-1.805c0-0.997 0.779-1.805 1.741-1.805s1.741 0.808 1.741 1.805z"></path>
<path fill="#f8d24e" style="fill: var(--color3, #f8d24e)" d="M31.434 25.082c0 0.997-0.779 1.805-1.741 1.805s-1.741-0.808-1.741-1.805c0-0.997 0.779-1.805 1.741-1.805s1.741 0.808 1.741 1.805z"></path>
<path fill="#f8d24e" style="fill: var(--color3, #f8d24e)" d="M35.496 22.676c0 0.997-0.779 1.805-1.741 1.805s-1.741-0.808-1.741-1.805c0-0.997 0.779-1.805 1.741-1.805s1.741 0.808 1.741 1.805z"></path>
<path fill="#f8d24e" style="fill: var(--color3, #f8d24e)" d="M29.692 29.894c0 0.997-0.779 1.805-1.741 1.805s-1.741-0.808-1.741-1.805c0-0.997 0.779-1.805 1.741-1.805s1.741 0.808 1.741 1.805z"></path>
<path fill="#f8d24e" style="fill: var(--color3, #f8d24e)" d="M33.463 27.488c0 0.997-0.779 1.805-1.741 1.805s-1.741-0.808-1.741-1.805c0-0.997 0.779-1.805 1.741-1.805s1.741 0.808 1.741 1.805z"></path>
<path fill="#f8d24e" style="fill: var(--color3, #f8d24e)" d="M37.816 24.781c0 0.997-0.779 1.805-1.741 1.805s-1.741-0.808-1.741-1.805c0-0.997 0.779-1.805 1.741-1.805s1.741 0.808 1.741 1.805z"></path>
<path fill="#f8d24e" style="fill: var(--color3, #f8d24e)" d="M41.876 22.375c0 0.997-0.779 1.805-1.741 1.805s-1.741-0.808-1.741-1.805c0-0.997 0.779-1.805 1.741-1.805s1.741 0.808 1.741 1.805z"></path>
<path fill="#f8d24e" style="fill: var(--color3, #f8d24e)" d="M36.945 29.594c0 0.997-0.779 1.805-1.741 1.805s-1.741-0.808-1.741-1.805c0-0.997 0.779-1.805 1.741-1.805s1.741 0.808 1.741 1.805z"></path>
<path fill="#f8d24e" style="fill: var(--color3, #f8d24e)" d="M40.716 27.187c0 0.997-0.779 1.805-1.741 1.805s-1.741-0.808-1.741-1.805c0-0.997 0.779-1.805 1.741-1.805s1.741 0.808 1.741 1.805z"></path>
<path fill="#f8d24e" style="fill: var(--color3, #f8d24e)" d="M45.068 24.481c0 0.997-0.779 1.805-1.741 1.805s-1.741-0.808-1.741-1.805c0-0.997 0.779-1.805 1.741-1.805s1.741 0.808 1.741 1.805z"></path>
<path fill="#f8d24e" style="fill: var(--color3, #f8d24e)" d="M49.129 22.074c0 0.997-0.779 1.805-1.741 1.805s-1.741-0.808-1.741-1.805c0-0.997 0.779-1.805 1.741-1.805s1.741 0.808 1.741 1.805z"></path>
<path fill="#f8d24e" style="fill: var(--color3, #f8d24e)" d="M43.617 21.773c0 0.997-0.779 1.805-1.741 1.805s-1.741-0.808-1.741-1.805c0-0.997 0.779-1.805 1.741-1.805s1.741 0.808 1.741 1.805z"></path>
<path fill="#f8d24e" style="fill: var(--color3, #f8d24e)" d="M47.388 19.367c0 0.997-0.779 1.805-1.741 1.805s-1.741-0.808-1.741-1.805c0-0.997 0.779-1.805 1.741-1.805s1.741 0.808 1.741 1.805z"></path>
<path fill="#f8d24e" style="fill: var(--color3, #f8d24e)" d="M51.74 16.66c0 0.997-0.779 1.805-1.741 1.805s-1.741-0.808-1.741-1.805c0-0.997 0.779-1.805 1.741-1.805s1.741 0.808 1.741 1.805z"></path>
<path fill="#f8d24e" style="fill: var(--color3, #f8d24e)" d="M55.802 14.254c0 0.997-0.779 1.805-1.741 1.805s-1.741-0.808-1.741-1.805c0-0.997 0.779-1.805 1.741-1.805s1.741 0.808 1.741 1.805z"></path>
</symbol>
<symbol id="icon-points-hero" viewBox="0 0 100 32">
<path fill="#f8d24e" style="fill: var(--color3, #f8d24e)" d="M45.691 25.73c0 0.287-0.218 0.519-0.487 0.519s-0.487-0.232-0.487-0.519c0-0.287 0.218-0.519 0.487-0.519s0.487 0.232 0.487 0.519z"></path>
<path fill="#f8d24e" style="fill: var(--color3, #f8d24e)" d="M46.827 25.038c0 0.287-0.218 0.519-0.487 0.519s-0.487-0.232-0.487-0.519c0-0.287 0.218-0.519 0.487-0.519s0.487 0.232 0.487 0.519z"></path>
<path fill="#f8d24e" style="fill: var(--color3, #f8d24e)" d="M44.798 27.633c0 0.287-0.218 0.519-0.487 0.519s-0.487-0.232-0.487-0.519c0-0.287 0.218-0.519 0.487-0.519s0.487 0.232 0.487 0.519z"></path>
<path fill="#f8d24e" style="fill: var(--color3, #f8d24e)" d="M45.853 26.941c0 0.287-0.218 0.519-0.487 0.519s-0.487-0.232-0.487-0.519c0-0.287 0.218-0.519 0.487-0.519s0.487 0.232 0.487 0.519z"></path>
<path fill="#f8d24e" style="fill: var(--color3, #f8d24e)" d="M47.070 26.163c0 0.287-0.218 0.519-0.487 0.519s-0.487-0.232-0.487-0.519c0-0.287 0.218-0.519 0.487-0.519s0.487 0.232 0.487 0.519z"></path>
<path fill="#f8d24e" style="fill: var(--color3, #f8d24e)" d="M48.206 25.471c0 0.287-0.218 0.519-0.487 0.519s-0.487-0.232-0.487-0.519c0-0.287 0.218-0.519 0.487-0.519s0.487 0.232 0.487 0.519z"></path>
<path fill="#f8d24e" style="fill: var(--color3, #f8d24e)" d="M46.583 27.72c0 0.287-0.218 0.519-0.487 0.519s-0.487-0.232-0.487-0.519c0-0.287 0.218-0.519 0.487-0.519s0.487 0.232 0.487 0.519z"></path>
<path fill="#f8d24e" style="fill: var(--color3, #f8d24e)" d="M47.638 27.028c0 0.287-0.218 0.519-0.487 0.519s-0.487-0.232-0.487-0.519c0-0.287 0.218-0.519 0.487-0.519s0.487 0.232 0.487 0.519z"></path>
<path fill="#f8d24e" style="fill: var(--color3, #f8d24e)" d="M48.856 26.249c0 0.287-0.218 0.519-0.487 0.519s-0.487-0.232-0.487-0.519c0-0.287 0.218-0.519 0.487-0.519s0.487 0.232 0.487 0.519z"></path>
<path fill="#f8d24e" style="fill: var(--color3, #f8d24e)" d="M49.992 25.557c0 0.287-0.218 0.519-0.487 0.519s-0.487-0.232-0.487-0.519c0-0.287 0.218-0.519 0.487-0.519s0.487 0.232 0.487 0.519z"></path>
<path fill="#f8d24e" style="fill: var(--color3, #f8d24e)" d="M48.693 27.72c0 0.287-0.218 0.519-0.487 0.519s-0.487-0.232-0.487-0.519c0-0.287 0.218-0.519 0.487-0.519s0.487 0.232 0.487 0.519z"></path>
<path fill="#f8d24e" style="fill: var(--color3, #f8d24e)" d="M49.748 27.028c0 0.287-0.218 0.519-0.487 0.519s-0.487-0.232-0.487-0.519c0-0.287 0.218-0.519 0.487-0.519s0.487 0.232 0.487 0.519z"></path>
<path fill="#f8d24e" style="fill: var(--color3, #f8d24e)" d="M50.966 26.249c0 0.287-0.218 0.519-0.487 0.519s-0.487-0.232-0.487-0.519c0-0.287 0.218-0.519 0.487-0.519s0.487 0.232 0.487 0.519z"></path>
<path fill="#f8d24e" style="fill: var(--color3, #f8d24e)" d="M52.102 25.557c0 0.287-0.218 0.519-0.487 0.519s-0.487-0.232-0.487-0.519c0-0.287 0.218-0.519 0.487-0.519s0.487 0.232 0.487 0.519z"></path>
<path fill="#f8d24e" style="fill: var(--color3, #f8d24e)" d="M50.479 27.633c0 0.287-0.218 0.519-0.487 0.519s-0.487-0.232-0.487-0.519c0-0.287 0.218-0.519 0.487-0.519s0.487 0.232 0.487 0.519z"></path>
<path fill="#f8d24e" style="fill: var(--color3, #f8d24e)" d="M51.534 26.941c0 0.287-0.218 0.519-0.487 0.519s-0.487-0.232-0.487-0.519c0-0.287 0.218-0.519 0.487-0.519s0.487 0.232 0.487 0.519z"></path>
<path fill="#f8d24e" style="fill: var(--color3, #f8d24e)" d="M52.751 26.163c0 0.287-0.218 0.519-0.487 0.519s-0.487-0.232-0.487-0.519c0-0.287 0.218-0.519 0.487-0.519s0.487 0.232 0.487 0.519z"></path>
<path fill="#f8d24e" style="fill: var(--color3, #f8d24e)" d="M53.887 25.471c0 0.287-0.218 0.519-0.487 0.519s-0.487-0.232-0.487-0.519c0-0.287 0.218-0.519 0.487-0.519s0.487 0.232 0.487 0.519z"></path>
<path fill="#f8d24e" style="fill: var(--color3, #f8d24e)" d="M52.508 27.547c0 0.287-0.218 0.519-0.487 0.519s-0.487-0.232-0.487-0.519c0-0.287 0.218-0.519 0.487-0.519s0.487 0.232 0.487 0.519z"></path>
<path fill="#f8d24e" style="fill: var(--color3, #f8d24e)" d="M53.563 26.855c0 0.287-0.218 0.519-0.487 0.519s-0.487-0.232-0.487-0.519c0-0.287 0.218-0.519 0.487-0.519s0.487 0.232 0.487 0.519z"></path>
<path fill="#f8d24e" style="fill: var(--color3, #f8d24e)" d="M54.78 26.076c0 0.287-0.218 0.519-0.487 0.519s-0.487-0.232-0.487-0.519c0-0.287 0.218-0.519 0.487-0.519s0.487 0.232 0.487 0.519z"></path>
<path fill="#f8d24e" style="fill: var(--color3, #f8d24e)" d="M55.916 25.384c0 0.287-0.218 0.519-0.487 0.519s-0.487-0.232-0.487-0.519c0-0.287 0.218-0.519 0.487-0.519s0.487 0.232 0.487 0.519z"></path>
<path fill="#f8d24e" style="fill: var(--color3, #f8d24e)" d="M54.374 25.298c0 0.287-0.218 0.519-0.487 0.519s-0.487-0.232-0.487-0.519c0-0.287 0.218-0.519 0.487-0.519s0.487 0.232 0.487 0.519z"></path>
<path fill="#f8d24e" style="fill: var(--color3, #f8d24e)" d="M55.429 24.606c0 0.287-0.218 0.519-0.487 0.519s-0.487-0.232-0.487-0.519c0-0.287 0.218-0.519 0.487-0.519s0.487 0.232 0.487 0.519z"></path>
<path fill="#f8d24e" style="fill: var(--color3, #f8d24e)" d="M56.647 23.827c0 0.287-0.218 0.519-0.487 0.519s-0.487-0.232-0.487-0.519c0-0.287 0.218-0.519 0.487-0.519s0.487 0.232 0.487 0.519z"></path>
<path fill="#f8d24e" style="fill: var(--color3, #f8d24e)" d="M57.783 23.135c0 0.287-0.218 0.519-0.487 0.519s-0.487-0.232-0.487-0.519c0-0.287 0.218-0.519 0.487-0.519s0.487 0.232 0.487 0.519z"></path>
</symbol>
</defs>
</svg>
